Ruda-Regular.ufo
<glyph name="exclam" format="1">
  <advance width="268"/>
  <unicode hex="0021"/>
  <outline>
    <contour>
      <point x="166" y="190" type="line"/>
      <point x="102" y="190" type="line"/>
      <point x="88" y="695" type="line"/>
      <point x="181" y="695" type="line"/>
    </contour>
    <contour>
      <point x="80" y="0" type="line"/>
      <point x="80" y="89" type="line"/>
      <point x="188" y="89" type="line"/>
      <point x="188" y="0" type="line"/>
    </contour>
  </outline>
</glyph>
<glyph name="quotedbl" format="1">
  <advance width="339"/>
  <unicode hex="0022"/>
  <outline>
    <contour>
      <point x="56" y="713" type="line"/>
      <point x="139" y="713" type="line"/>
      <point x="139" y="694" type="line"/>
      <point x="123" y="478" type="line"/>
      <point x="70" y="478" type="line"/>
      <point x="56" y="695" type="line"/>
    </contour>
    <contour>
      <point x="199" y="713" type="line"/>
      <point x="283" y="713" type="line"/>
      <point x="283" y="694" type="line"/>
      <point x="266" y="478" type="line"/>
      <point x="213" y="478" type="line"/>
      <point x="199" y="695" type="line"/>
    </contour>
  </outline>
</glyph>
<glyph name="dollar" format="1">
  <advance width="512"/>
  <unicode hex="0024"/>
  <outline>
    <contour>
      <point x="36" y="51" type="qcurve"/>
      <point x="66" y="119" type="line"/>
      <point x="105" y="98"/>
      <point x="220" y="64"/>
      <point x="305" y="64"/>
      <point x="326" y="77" type="qcurve" smooth="yes"/>
      <point x="368" y="106"/>
      <point x="368" y="179" type="qcurve" smooth="yes"/>
      <point x="368" y="229"/>
      <point x="308" y="289"/>
      <point x="155" y="356"/>
      <point x="125" y="380" type="qcurve" smooth="yes"/>
      <point x="58" y="431"/>
      <point x="58" y="525" type="qcurve" smooth="yes"/>
      <point x="58" y="595"/>
      <point x="142" y="693"/>
      <point x="220" y="705" type="qcurve"/>
      <point x="220" y="802" type="line"/>
      <point x="294" y="802" type="line"/>
      <point x="294" y="707" type="line"/>
      <point x="364" y="703"/>
      <point x="427" y="686" type="qcurve"/>
      <point x="413" y="614" type="line"/>
      <point x="329" y="632"/>
      <point x="204" y="632"/>
      <point x="182" y="619" type="qcurve" smooth="yes"/>
      <point x="146" y="599"/>
      <point x="146" y="533" type="qcurve" smooth="yes"/>
      <point x="146" y="489"/>
      <point x="175" y="456" type="qcurve" smooth="yes"/>
      <point x="196" y="433"/>
      <point x="248" y="410" type="qcurve" smooth="yes"/>
      <point x="261" y="404"/>
      <point x="330" y="376"/>
      <point x="376" y="350"/>
      <point x="402" y="327" type="qcurve" smooth="yes"/>
      <point x="455" y="281"/>
      <point x="455" y="110"/>
      <point x="366" y="4"/>
      <point x="291" y="-9" type="qcurve"/>
      <point x="291" y="-117" type="line"/>
      <point x="218" y="-117" type="line"/>
      <point x="218" y="-11" type="line"/>
      <point x="174" y="-7"/>
      <point x="83" y="24"/>
    </contour>
  </outline>
</glyph>
<glyph name="percent" format="1">
  <advance width="799"/>
  <unicode hex="0025"/>
  <outline>
    <contour>
      <point x="266" y="707"/>
      <point x="353" y="634"/>
      <point x="353" y="481"/>
      <point x="265" y="407"/>
      <point x="140" y="407"/>
      <point x="53" y="481"/>
      <point x="53" y="634"/>
      <point x="140" y="707"/>
    </contour>
    <contour>
      <point x="123" y="640"/>
      <point x="123" y="474"/>
      <point x="283" y="474"/>
      <point x="283" y="640"/>
    </contour>
    <contour>
      <point x="532" y="293"/>
      <point x="659" y="293"/>
      <point x="746" y="220"/>
      <point x="746" y="67"/>
      <point x="658" y="-7"/>
      <point x="532" y="-7"/>
      <point x="445" y="67"/>
      <point x="445" y="220"/>
    </contour>
    <contour>
      <point x="516" y="226"/>
      <point x="516" y="60"/>
      <point x="675" y="60"/>
      <point x="675" y="226"/>
    </contour>
    <contour>
      <point x="263" y="-9" type="line"/>
      <point x="188" y="-9" type="line"/>
      <point x="374" y="382" type="line"/>
      <point x="530" y="733" type="line"/>
      <point x="604" y="733" type="line"/>
      <point x="427" y="351" type="line"/>
    </contour>
  </outline>
</glyph>
<glyph name="ampersand" format="1">
  <advance width="646"/>
  <unicode hex="0026"/>
  <outline>
    <contour>
      <point x="251" y="-13" type="qcurve" smooth="yes"/>
      <point x="156" y="-13"/>
      <point x="39" y="109"/>
      <point x="39" y="257"/>
      <point x="130" y="360"/>
      <point x="183" y="382" type="qcurve"/>
      <point x="89" y="440"/>
      <point x="89" y="540" type="qcurve" smooth="yes"/>
      <point x="89" y="613"/>
      <point x="185" y="708"/>
      <point x="357" y="708"/>
      <point x="446" y="611"/>
      <point x="446" y="544" type="qcurve" smooth="yes"/>
      <point x="446" y="436"/>
      <point x="334" y="379" type="qcurve"/>
      <point x="418" y="319"/>
      <point x="484" y="241" type="qcurve"/>
      <point x="523" y="308"/>
      <point x="547" y="375" type="qcurve"/>
      <point x="618" y="352" type="line"/>
      <point x="586" y="265"/>
      <point x="530" y="178" type="qcurve"/>
      <point x="579" y="101"/>
      <point x="619" y="-10" type="qcurve"/>
      <point x="539" y="-13" type="line"/>
      <point x="520" y="42"/>
      <point x="480" y="110" type="qcurve"/>
      <point x="375" y="-13"/>
    </contour>
    <contour>
      <point x="254" y="59" type="qcurve" smooth="yes"/>
      <point x="351" y="59"/>
      <point x="439" y="174" type="qcurve"/>
      <point x="362" y="279"/>
      <point x="259" y="340" type="qcurve"/>
      <point x="203" y="320"/>
      <point x="127" y="233"/>
      <point x="127" y="129"/>
      <point x="198" y="59"/>
    </contour>
    <contour>
      <point x="266" y="639" type="qcurve" smooth="yes"/>
      <point x="173" y="639"/>
      <point x="173" y="545" type="qcurve" smooth="yes"/>
      <point x="173" y="460"/>
      <point x="264" y="414" type="qcurve"/>
      <point x="306" y="431"/>
      <point x="361" y="498"/>
      <point x="361" y="587"/>
      <point x="315" y="639"/>
    </contour>
  </outline>
</glyph>
<glyph name="quotesingle" format="1">
  <advance width="195"/>
  <unicode hex="0027"/>
  <outline>
    <contour>
      <point x="56" y="713" type="line"/>
      <point x="139" y="713" type="line"/>
      <point x="139" y="694" type="line"/>
      <point x="123" y="478" type="line"/>
      <point x="70" y="478" type="line"/>
      <point x="56" y="695" type="line"/>
    </contour>
  </outline>
</glyph>
<glyph name="parenleft" format="1">
  <advance width="316"/>
  <unicode hex="0028"/>
  <outline>
    <contour>
      <point x="285" y="730" type="line"/>
      <point x="154" y="647"/>
      <point x="154" y="12"/>
      <point x="285" y="-72" type="qcurve"/>
      <point x="247" y="-124" type="line"/>
      <point x="69" y="-17"/>
      <point x="69" y="676"/>
      <point x="247" y="783" type="qcurve"/>
    </contour>
  </outline>
</glyph>
<glyph name="parenright" format="1">
  <advance width="316"/>
  <unicode hex="0029"/>
  <outline>
    <contour>
      <point x="68" y="783" type="line"/>
      <point x="247" y="676"/>
      <point x="247" y="-17"/>
      <point x="68" y="-124" type="qcurve"/>
      <point x="31" y="-72" type="line"/>
      <point x="162" y="12"/>
      <point x="162" y="647"/>
      <point x="31" y="730" type="qcurve"/>
    </contour>
  </outline>
</glyph>
<glyph name="plus" format="1">
  <advance width="621"/>
  <unicode hex="002B"/>
  <outline>
    <contour>
      <point x="52" y="257" type="line"/>
      <point x="52" y="328" type="line"/>
      <point x="273" y="328" type="line"/>
      <point x="273" y="553" type="line"/>
      <point x="347" y="553" type="line"/>
      <point x="347" y="328" type="line"/>
      <point x="569" y="328" type="line"/>
      <point x="569" y="257" type="line"/>
      <point x="347" y="257" type="line"/>
      <point x="347" y="32" type="line"/>
      <point x="273" y="32" type="line"/>
      <point x="273" y="257" type="line"/>
    </contour>
  </outline>
</glyph>
<glyph name="comma" format="1">
  <advance width="270"/>
  <unicode hex="002C"/>
  <outline>
    <contour>
      <point x="94" y="-36" type="qcurve" smooth="yes"/>
      <point x="94" y="84" type="line"/>
      <point x="176" y="84" type="line"/>
      <point x="176" y="14" type="line" smooth="yes"/>
      <point x="175" y="-106"/>
      <point x="102" y="-166" type="qcurve"/>
      <point x="62" y="-137" type="line"/>
      <point x="94" y="-98"/>
    </contour>
  </outline>
</glyph>
<glyph name="hyphen" format="1">
  <advance width="321"/>
  <unicode hex="002D"/>
  <outline>
    <contour>
      <point x="46" y="292" type="line"/>
      <point x="46" y="363" type="line"/>
      <point x="275" y="363" type="line"/>
      <point x="275" y="292" type="line"/>
    </contour>
  </outline>
</glyph>
<glyph name="slash" format="1">
  <advance width="430"/>
  <unicode hex="002F"/>
  <outline>
    <contour>
      <point x="92" y="-98" type="line"/>
      <point x="4" y="-98" type="line"/>
      <point x="174" y="319" type="line"/>
      <point x="319" y="695" type="line"/>
      <point x="408" y="695" type="line"/>
      <point x="242" y="288" type="line"/>
    </contour>
  </outline>
</glyph>
<glyph name="zero" format="1">
  <advance width="572"/>
  <unicode hex="0030"/>
  <outline>
    <contour>
      <point x="338" y="-13"/>
      <point x="235" y="-13"/>
      <point x="158" y="19"/>
      <point x="94" y="96"/>
      <point x="60" y="243"/>
      <point x="60" y="455"/>
      <point x="94" y="600"/>
      <point x="158" y="676"/>
      <point x="235" y="708"/>
      <point x="338" y="708"/>
      <point x="414" y="677"/>
      <point x="479" y="600"/>
      <point x="512" y="455"/>
      <point x="512" y="243"/>
      <point x="479" y="96"/>
      <point x="414" y="19"/>
    </contour>
    <contour>
      <point x="147" y="351" type="qcurve" smooth="yes"/>
      <point x="147" y="186"/>
      <point x="213" y="63"/>
      <point x="287" y="63" type="qcurve" smooth="yes"/>
      <point x="335" y="63"/>
      <point x="364" y="86" type="qcurve" smooth="yes"/>
      <point x="426" y="134"/>
      <point x="426" y="349" type="qcurve" smooth="yes"/>
      <point x="426" y="567"/>
      <point x="362" y="612" type="qcurve" smooth="yes"/>
      <point x="334" y="633"/>
      <point x="238" y="633"/>
      <point x="210" y="612" type="qcurve" smooth="yes"/>
      <point x="147" y="568"/>
    </contour>
  </outline>
</glyph>
<glyph name="one" format="1">
  <advance width="507"/>
  <unicode hex="0031"/>
  <outline>
    <contour>
      <point x="77" y="0" type="line"/>
      <point x="77" y="72" type="line"/>
      <point x="244" y="70" type="line"/>
      <point x="251" y="619" type="line"/>
      <point x="246" y="619" type="line"/>
      <point x="99" y="464" type="line"/>
      <point x="43" y="518" type="line"/>
      <point x="239" y="702" type="line"/>
      <point x="329" y="695" type="line"/>
      <point x="329" y="70" type="line"/>
      <point x="476" y="72" type="line"/>
      <point x="476" y="0" type="line"/>
    </contour>
  </outline>
</glyph>
<glyph name="two" format="1">
  <advance width="540"/>
  <unicode hex="0032"/>
  <outline>
    <contour>
      <point x="203" y="708"/>
      <point x="352" y="708"/>
      <point x="461" y="614"/>
      <point x="461" y="539" type="qcurve" smooth="yes"/>
      <point x="461" y="442"/>
      <point x="344" y="288" type="qcurve" smooth="yes"/>
      <point x="178" y="75" type="line"/>
      <point x="178" y="70" type="line"/>
      <point x="476" y="75" type="line"/>
      <point x="476" y="0" type="line"/>
      <point x="56" y="0" type="line"/>
      <point x="56" y="65" type="line"/>
      <point x="118" y="135"/>
      <point x="312" y="382"/>
      <point x="379" y="495"/>
      <point x="379" y="548" type="qcurve" smooth="yes"/>
      <point x="379" y="633"/>
      <point x="191" y="633"/>
      <point x="86" y="565" type="qcurve"/>
      <point x="51" y="628" type="line"/>
      <point x="81" y="656"/>
    </contour>
  </outline>
</glyph>
<glyph name="three" format="1">
  <advance width="503"/>
  <unicode hex="0033"/>
  <outline>
    <contour>
      <point x="245" y="62" type="qcurve" smooth="yes"/>
      <point x="305" y="62"/>
      <point x="352" y="121"/>
      <point x="352" y="269"/>
      <point x="288" y="335"/>
      <point x="216" y="335" type="qcurve" smooth="yes"/>
      <point x="123" y="335" type="line"/>
      <point x="123" y="401" type="line"/>
      <point x="251" y="412"/>
      <point x="282" y="424" type="qcurve" smooth="yes"/>
      <point x="325" y="441"/>
      <point x="332" y="491" type="qcurve" smooth="yes"/>
      <point x="334" y="504"/>
      <point x="334" y="522" type="qcurve" smooth="yes"/>
      <point x="334" y="586"/>
      <point x="289" y="636"/>
      <point x="200" y="636" type="qcurve" smooth="yes"/>
      <point x="162" y="636"/>
      <point x="63" y="624" type="qcurve"/>
      <point x="53" y="692" type="line"/>
      <point x="115" y="708"/>
      <point x="207" y="708" type="qcurve" smooth="yes"/>
      <point x="420" y="708"/>
      <point x="420" y="533" type="qcurve" smooth="yes"/>
      <point x="420" y="487"/>
      <point x="393" y="421"/>
      <point x="372" y="406" type="qcurve" smooth="yes"/>
      <point x="334" y="379"/>
      <point x="308" y="375" type="qcurve"/>
      <point x="308" y="371" type="line"/>
      <point x="355" y="365"/>
      <point x="394" y="332" type="qcurve" smooth="yes"/>
      <point x="441" y="291"/>
      <point x="441" y="102"/>
      <point x="340" y="-13"/>
      <point x="232" y="-13" type="qcurve" smooth="yes"/>
      <point x="178" y="-13"/>
      <point x="70" y="16"/>
      <point x="43" y="31" type="qcurve" smooth="yes"/>
      <point x="16" y="46" type="line"/>
      <point x="48" y="110" type="line"/>
      <point x="154" y="62"/>
    </contour>
  </outline>
</glyph>
<glyph name="four" format="1">
  <advance width="537"/>
  <unicode hex="0034"/>
  <outline>
    <contour>
      <point x="424" y="505" type="line"/>
      <point x="424" y="236" type="line"/>
      <point x="488" y="238" type="line"/>
      <point x="488" y="162" type="line"/>
      <point x="424" y="162" type="line"/>
      <point x="425" y="0" type="line"/>
      <point x="340" y="0" type="line"/>
      <point x="343" y="162" type="line"/>
      <point x="29" y="162" type="line"/>
      <point x="29" y="225" type="line"/>
      <point x="187" y="706" type="line"/>
      <point x="269" y="695" type="line"/>
      <point x="118" y="237" type="line"/>
      <point x="118" y="232" type="line"/>
      <point x="343" y="236" type="line"/>
      <point x="362" y="505" type="line"/>
    </contour>
  </outline>
</glyph>
<glyph name="five" format="1">
  <advance width="509"/>
  <unicode hex="0035"/>
  <outline>
    <contour>
      <point x="421" y="695" type="line"/>
      <point x="421" y="622" type="line"/>
      <point x="196" y="626" type="line"/>
      <point x="167" y="413" type="line"/>
      <point x="337" y="407"/>
      <point x="399" y="350" type="qcurve" smooth="yes"/>
      <point x="452" y="301"/>
      <point x="452" y="102"/>
      <point x="340" y="-13"/>
      <point x="243" y="-13" type="qcurve" smooth="yes"/>
      <point x="188" y="-13"/>
      <point x="80" y="24"/>
      <point x="54" y="42" type="qcurve" smooth="yes"/>
      <point x="27" y="60" type="line"/>
      <point x="59" y="123" type="line"/>
      <point x="99" y="99"/>
      <point x="215" y="62"/>
      <point x="303" y="62"/>
      <point x="344" y="89"/>
      <point x="364" y="159"/>
      <point x="364" y="197" type="qcurve" smooth="yes"/>
      <point x="364" y="281"/>
      <point x="305" y="338"/>
      <point x="154" y="338" type="qcurve" smooth="yes"/>
      <point x="75" y="336" type="line"/>
      <point x="126" y="695" type="line"/>
    </contour>
  </outline>
</glyph>
<glyph name="six" format="1">
  <advance width="552"/>
  <unicode hex="0036"/>
  <outline>
    <contour>
      <point x="380" y="-13"/>
      <point x="172" y="-13"/>
      <point x="60" y="146"/>
      <point x="60" y="330" type="qcurve" smooth="yes"/>
      <point x="60" y="549"/>
      <point x="137" y="634" type="qcurve" smooth="yes"/>
      <point x="174" y="674"/>
      <point x="262" y="708"/>
      <point x="308" y="708" type="qcurve" smooth="yes"/>
      <point x="391" y="708"/>
      <point x="440" y="688" type="qcurve" smooth="yes"/>
      <point x="457" y="682" type="line"/>
      <point x="438" y="611" type="line"/>
      <point x="368" y="632"/>
      <point x="235" y="632"/>
      <point x="202" y="599" type="qcurve" smooth="yes"/>
      <point x="157" y="552"/>
      <point x="150" y="409" type="qcurve"/>
      <point x="203" y="416"/>
      <point x="256" y="416" type="qcurve" smooth="yes"/>
      <point x="370" y="416"/>
      <point x="492" y="320"/>
      <point x="492" y="103"/>
    </contour>
    <contour>
      <point x="189" y="86" type="qcurve" smooth="yes"/>
      <point x="219" y="58"/>
      <point x="356" y="58"/>
      <point x="409" y="124"/>
      <point x="409" y="285"/>
      <point x="355" y="344"/>
      <point x="276" y="344" type="qcurve" smooth="yes"/>
      <point x="216" y="344"/>
      <point x="148" y="330" type="qcurve"/>
      <point x="148" y="250" type="line" smooth="yes"/>
      <point x="148" y="127"/>
    </contour>
  </outline>
</glyph>
<glyph name="seven" format="1">
  <advance width="471"/>
  <unicode hex="0037"/>
  <outline>
    <contour>
      <point x="24" y="695" type="line"/>
      <point x="448" y="695" type="line"/>
      <point x="448" y="640" type="line"/>
      <point x="164" y="-7" type="line"/>
      <point x="75" y="1" type="line"/>
      <point x="363" y="619" type="line"/>
      <point x="363" y="625" type="line"/>
      <point x="24" y="619" type="line"/>
    </contour>
  </outline>
</glyph>
<glyph name="eight" format="1">
  <advance width="540"/>
  <unicode hex="0038"/>
  <outline>
    <contour>
      <point x="173" y="708"/>
      <point x="367" y="708"/>
      <point x="471" y="610"/>
      <point x="471" y="533" type="qcurve" smooth="yes"/>
      <point x="471" y="419"/>
      <point x="366" y="359" type="qcurve"/>
      <point x="457" y="307"/>
      <point x="480" y="247" type="qcurve" smooth="yes"/>
      <point x="492" y="218"/>
      <point x="492" y="182" type="qcurve" smooth="yes"/>
      <point x="492" y="102"/>
      <point x="369" y="-13"/>
      <point x="164" y="-13"/>
      <point x="47" y="108"/>
      <point x="47" y="190" type="qcurve" smooth="yes"/>
      <point x="47" y="251"/>
      <point x="117" y="347"/>
      <point x="163" y="366" type="qcurve"/>
      <point x="68" y="434"/>
      <point x="68" y="534" type="qcurve" smooth="yes"/>
      <point x="68" y="612"/>
    </contour>
    <contour>
      <point x="401" y="170" type="qcurve" smooth="yes"/>
      <point x="401" y="229"/>
      <point x="331" y="295"/>
      <point x="241" y="326" type="qcurve"/>
      <point x="187" y="306"/>
      <point x="138" y="244"/>
      <point x="138" y="182" type="qcurve" smooth="yes"/>
      <point x="138" y="59"/>
      <point x="401" y="59"/>
    </contour>
    <contour>
      <point x="270" y="639" type="qcurve" smooth="yes"/>
      <point x="205" y="639"/>
      <point x="152" y="589"/>
      <point x="152" y="491"/>
      <point x="214" y="422"/>
      <point x="287" y="393" type="qcurve"/>
      <point x="386" y="428"/>
      <point x="386" y="532" type="qcurve" smooth="yes"/>
      <point x="386" y="639"/>
    </contour>
  </outline>
</glyph>
<glyph name="nine" format="1">
  <advance width="550"/>
  <unicode hex="0039"/>
  <outline>
    <contour>
      <point x="267" y="280" type="qcurve" smooth="yes"/>
      <point x="170" y="280"/>
      <point x="60" y="381"/>
      <point x="60" y="591"/>
      <point x="170" y="708"/>
      <point x="376" y="708"/>
      <point x="490" y="547"/>
      <point x="490" y="354" type="qcurve" smooth="yes"/>
      <point x="490" y="-13"/>
      <point x="269" y="-13" type="qcurve" smooth="yes"/>
      <point x="223" y="-13"/>
      <point x="128" y="17"/>
      <point x="104" y="32" type="qcurve" smooth="yes"/>
      <point x="79" y="48" type="line"/>
      <point x="110" y="111" type="line"/>
      <point x="140" y="91"/>
      <point x="240" y="58"/>
      <point x="324" y="58"/>
      <point x="370" y="108"/>
      <point x="401" y="221"/>
      <point x="401" y="295" type="qcurve"/>
      <point x="328" y="280"/>
    </contour>
    <contour>
      <point x="349" y="620" type="qcurve" smooth="yes"/>
      <point x="320" y="636"/>
      <point x="192" y="636"/>
      <point x="143" y="566"/>
      <point x="143" y="417"/>
      <point x="187" y="356"/>
      <point x="263" y="356" type="qcurve" smooth="yes"/>
      <point x="329" y="356"/>
      <point x="401" y="380" type="qcurve"/>
      <point x="401" y="591"/>
    </contour>
  </outline>
</glyph>
<glyph name="colon" format="1">
  <advance width="314"/>
  <unicode hex="003A"/>
  <outline>
    <contour>
      <point x="103" y="0" type="line"/>
      <point x="103" y="89" type="line"/>
      <point x="211" y="89" type="line"/>
      <point x="211" y="0" type="line"/>
    </contour>
    <contour>
      <point x="103" y="459" type="line"/>
      <point x="103" y="548" type="line"/>
      <point x="211" y="548" type="line"/>
      <point x="211" y="459" type="line"/>
    </contour>
  </outline>
</glyph>
<glyph name="semicolon" format="1">
  <advance width="312"/>
  <unicode hex="003B"/>
  <outline>
    <contour>
      <point x="113" y="-36" type="qcurve" smooth="yes"/>
      <point x="113" y="84" type="line"/>
      <point x="195" y="84" type="line"/>
      <point x="195" y="14" type="line" smooth="yes"/>
      <point x="194" y="-106"/>
      <point x="121" y="-166" type="qcurve"/>
      <point x="81" y="-137" type="line"/>
      <point x="113" y="-98"/>
    </contour>
    <contour>
      <point x="101" y="459" type="line"/>
      <point x="101" y="548" type="line"/>
      <point x="209" y="548" type="line"/>
      <point x="209" y="459" type="line"/>
    </contour>
  </outline>
</glyph>
<glyph name="less" format="1">
  <advance width="632"/>
  <unicode hex="003C"/>
  <outline>
    <contour>
      <point x="75" y="257" type="line"/>
      <point x="75" y="328" type="line"/>
      <point x="580" y="568" type="line"/>
      <point x="580" y="484" type="line"/>
      <point x="160" y="296" type="line"/>
      <point x="160" y="290" type="line"/>
      <point x="580" y="99" type="line"/>
      <point x="580" y="16" type="line"/>
    </contour>
  </outline>
</glyph>
<glyph name="equal" format="1">
  <advance width="618"/>
  <unicode hex="003D"/>
  <outline>
    <contour>
      <point x="52" y="335" type="line"/>
      <point x="52" y="407" type="line"/>
      <point x="566" y="407" type="line"/>
      <point x="566" y="335" type="line"/>
    </contour>
    <contour>
      <point x="52" y="179" type="line"/>
      <point x="52" y="251" type="line"/>
      <point x="566" y="251" type="line"/>
      <point x="566" y="179" type="line"/>
    </contour>
  </outline>
</glyph>
<glyph name="greater" format="1">
  <advance width="635"/>
  <unicode hex="003E"/>
  <outline>
    <contour>
      <point x="560" y="328" type="line"/>
      <point x="560" y="257" type="line"/>
      <point x="56" y="16" type="line"/>
      <point x="56" y="99" type="line"/>
      <point x="475" y="290" type="line"/>
      <point x="475" y="296" type="line"/>
      <point x="56" y="484" type="line"/>
      <point x="56" y="568" type="line"/>
    </contour>
  </outline>
</glyph>
<glyph name="question" format="1">
  <advance width="462"/>
  <unicode hex="003F"/>
  <outline>
    <contour>
      <point x="220" y="191" type="qcurve"/>
      <point x="150" y="191" type="line"/>
      <point x="150" y="201" type="line" smooth="yes"/>
      <point x="150" y="256"/>
      <point x="190" y="336"/>
      <point x="247" y="382"/>
      <point x="276" y="404" type="qcurve" smooth="yes"/>
      <point x="345" y="456"/>
      <point x="345" y="533" type="qcurve" smooth="yes"/>
      <point x="345" y="593"/>
      <point x="305" y="618" type="qcurve" smooth="yes"/>
      <point x="289" y="631"/>
      <point x="206" y="631"/>
      <point x="112" y="604"/>
      <point x="86" y="590" type="qcurve" smooth="yes"/>
      <point x="61" y="577" type="line"/>
      <point x="46" y="611"/>
      <point x="31" y="645" type="qcurve"/>
      <point x="70" y="670"/>
      <point x="186" y="708"/>
      <point x="233" y="708" type="qcurve" smooth="yes"/>
      <point x="321" y="708"/>
      <point x="432" y="605"/>
      <point x="432" y="525" type="qcurve" smooth="yes"/>
      <point x="432" y="471"/>
      <point x="388" y="390"/>
      <point x="326" y="340"/>
      <point x="295" y="318" type="qcurve" smooth="yes"/>
      <point x="220" y="263"/>
    </contour>
    <contour>
      <point x="132" y="0" type="line"/>
      <point x="132" y="89" type="line"/>
      <point x="240" y="89" type="line"/>
      <point x="240" y="0" type="line"/>
    </contour>
  </outline>
</glyph>
<glyph name="at" format="1">
  <advance width="835"/>
  <unicode hex="0040"/>
  <outline>
    <contour>
      <point x="574" y="124" type="qcurve" smooth="yes"/>
      <point x="533" y="124"/>
      <point x="499" y="185"/>
      <point x="497" y="243" type="qcurve"/>
      <point x="493" y="243" type="line"/>
      <point x="435" y="124"/>
      <point x="366" y="124" type="qcurve" smooth="yes"/>
      <point x="322" y="124"/>
      <point x="253" y="223"/>
      <point x="253" y="455"/>
      <point x="331" y="551"/>
      <point x="411" y="551" type="qcurve" smooth="yes"/>
      <point x="470" y="551"/>
      <point x="568" y="526" type="qcurve"/>
      <point x="566" y="393"/>
      <point x="566" y="266"/>
      <point x="567" y="223"/>
      <point x="571" y="198"/>
      <point x="577" y="192"/>
      <point x="583" y="192" type="qcurve" smooth="yes"/>
      <point x="617" y="192"/>
      <point x="692" y="304"/>
      <point x="692" y="389" type="qcurve" smooth="yes"/>
      <point x="692" y="499"/>
      <point x="553" y="628"/>
      <point x="302" y="628"/>
      <point x="141" y="478"/>
      <point x="141" y="196"/>
      <point x="301" y="34"/>
      <point x="416" y="34" type="qcurve" smooth="yes"/>
      <point x="458" y="34"/>
      <point x="503" y="43" type="qcurve"/>
      <point x="511" y="-24" type="line"/>
      <point x="471" y="-38"/>
      <point x="413" y="-38" type="qcurve" smooth="yes"/>
      <point x="325" y="-38"/>
      <point x="170" y="41"/>
      <point x="66" y="213"/>
      <point x="66" y="422"/>
      <point x="130" y="568"/>
      <point x="183" y="612" type="qcurve" smooth="yes"/>
      <point x="291" y="702"/>
      <point x="567" y="702"/>
      <point x="765" y="534"/>
      <point x="765" y="392" type="qcurve" smooth="yes"/>
      <point x="765" y="280"/>
      <point x="645" y="124"/>
    </contour>
    <contour>
      <point x="488" y="466" type="qcurve"/>
      <point x="455" y="475"/>
      <point x="370" y="475"/>
      <point x="359" y="465" type="qcurve" smooth="yes"/>
      <point x="338" y="447"/>
      <point x="338" y="204"/>
      <point x="377" y="204" type="qcurve" smooth="yes"/>
      <point x="412" y="204"/>
      <point x="488" y="387"/>
    </contour>
  </outline>
</glyph>
<glyph name="B" format="1">
  <advance width="614"/>
  <unicode hex="0042"/>
  <outline>
    <contour>
      <point x="316" y="708" type="qcurve" smooth="yes"/>
      <point x="512" y="708"/>
      <point x="512" y="523" type="qcurve" smooth="yes"/>
      <point x="512" y="482"/>
      <point x="489" y="418"/>
      <point x="472" y="402" type="qcurve" smooth="yes"/>
      <point x="439" y="371"/>
      <point x="412" y="366" type="qcurve" smooth="yes"/>
      <point x="400" y="364" type="line"/>
      <point x="400" y="361" type="line"/>
      <point x="438" y="359"/>
      <point x="479" y="329" type="qcurve" smooth="yes"/>
      <point x="501" y="313"/>
      <point x="530" y="247"/>
      <point x="530" y="141"/>
      <point x="495" y="53"/>
      <point x="464" y="30" type="qcurve" smooth="yes"/>
      <point x="407" y="-13"/>
      <point x="323" y="-13" type="qcurve" smooth="yes"/>
      <point x="237" y="-13"/>
      <point x="105" y="3" type="qcurve"/>
      <point x="110" y="323" type="line"/>
      <point x="105" y="696" type="line"/>
      <point x="221" y="708"/>
    </contour>
    <contour>
      <point x="191" y="63" type="line"/>
      <point x="269" y="52"/>
      <point x="396" y="52"/>
      <point x="440" y="119"/>
      <point x="440" y="270"/>
      <point x="375" y="329"/>
      <point x="312" y="329" type="qcurve" smooth="yes"/>
      <point x="189" y="329" type="line"/>
    </contour>
    <contour>
      <point x="189" y="395" type="line"/>
      <point x="257" y="394"/>
      <point x="380" y="394"/>
      <point x="425" y="451"/>
      <point x="425" y="590"/>
      <point x="374" y="646"/>
      <point x="313" y="646" type="qcurve" smooth="yes"/>
      <point x="255" y="646"/>
      <point x="189" y="638" type="qcurve"/>
    </contour>
  </outline>
</glyph>
<glyph name="C" format="1">
  <advance width="583"/>
  <unicode hex="0043"/>
  <outline>
    <contour>
      <point x="336" y="632" type="qcurve" smooth="yes"/>
      <point x="236" y="632"/>
      <point x="214" y="605" type="qcurve" smooth="yes"/>
      <point x="163" y="543"/>
      <point x="163" y="337" type="qcurve" smooth="yes"/>
      <point x="163" y="239"/>
      <point x="200" y="106"/>
      <point x="249" y="58"/>
      <point x="347" y="58"/>
      <point x="444" y="86"/>
      <point x="470" y="100" type="qcurve" smooth="yes"/>
      <point x="497" y="114" type="line"/>
      <point x="526" y="48" type="line"/>
      <point x="516" y="41"/>
      <point x="481" y="21"/>
      <point x="369" y="-13"/>
      <point x="312" y="-13" type="qcurve" smooth="yes"/>
      <point x="72" y="-13"/>
      <point x="72" y="340" type="qcurve" smooth="yes"/>
      <point x="72" y="590"/>
      <point x="176" y="666" type="qcurve" smooth="yes"/>
      <point x="209" y="690"/>
      <point x="282" y="708"/>
      <point x="431" y="708"/>
      <point x="497" y="692" type="qcurve"/>
      <point x="487" y="620" type="line"/>
      <point x="395" y="632"/>
    </contour>
  </outline>
</glyph>
<glyph name="D" format="1">
  <advance width="631"/>
  <unicode hex="0044"/>
  <outline>
    <contour>
      <point x="105" y="696" type="line"/>
      <point x="237" y="708"/>
      <point x="373" y="708"/>
      <point x="462" y="670"/>
      <point x="515" y="607"/>
      <point x="532" y="560" type="qcurve" smooth="yes"/>
      <point x="559" y="482"/>
      <point x="559" y="356" type="qcurve" smooth="yes"/>
      <point x="559" y="-13"/>
      <point x="302" y="-13" type="qcurve"/>
      <point x="105" y="0" type="line"/>
    </contour>
    <contour>
      <point x="291" y="61" type="qcurve" smooth="yes"/>
      <point x="382" y="61"/>
      <point x="410" y="89" type="qcurve" smooth="yes"/>
      <point x="465" y="144"/>
      <point x="465" y="569"/>
      <point x="412" y="615" type="qcurve" smooth="yes"/>
      <point x="389" y="635"/>
      <point x="315" y="635" type="qcurve"/>
      <point x="188" y="628" type="line"/>
      <point x="189" y="71" type="line"/>
      <point x="253" y="61"/>
    </contour>
  </outline>
</glyph>
<glyph name="E" format="1">
  <advance width="514"/>
  <unicode hex="0045"/>
  <outline>
    <contour>
      <point x="105" y="0" type="line"/>
      <point x="105" y="695" type="line"/>
      <point x="446" y="695" type="line"/>
      <point x="446" y="620" type="line"/>
      <point x="189" y="623" type="line"/>
      <point x="184" y="389" type="line"/>
      <point x="422" y="389" type="line"/>
      <point x="422" y="318" type="line"/>
      <point x="184" y="318" type="line"/>
      <point x="189" y="73" type="line"/>
      <point x="446" y="75" type="line"/>
      <point x="446" y="0" type="line"/>
    </contour>
  </outline>
</glyph>
<glyph name="F" format="1">
  <advance width="500"/>
  <unicode hex="0046"/>
  <outline>
    <contour>
      <point x="415" y="318" type="line"/>
      <point x="184" y="318" type="line"/>
      <point x="189" y="0" type="line"/>
      <point x="105" y="0" type="line"/>
      <point x="105" y="695" type="line"/>
      <point x="446" y="695" type="line"/>
      <point x="446" y="619" type="line"/>
      <point x="188" y="622" type="line"/>
      <point x="184" y="388" type="line"/>
      <point x="415" y="389" type="line"/>
    </contour>
  </outline>
</glyph>
<glyph name="G" format="1">
  <advance width="612"/>
  <unicode hex="0047"/>
  <outline>
    <contour>
      <point x="215" y="92" type="qcurve" smooth="yes"/>
      <point x="243" y="60"/>
      <point x="402" y="60"/>
      <point x="439" y="75" type="qcurve"/>
      <point x="439" y="295" type="line"/>
      <point x="333" y="300" type="line"/>
      <point x="333" y="362" type="line"/>
      <point x="519" y="362" type="line"/>
      <point x="519" y="26" type="line"/>
      <point x="443" y="-13"/>
      <point x="331" y="-13" type="qcurve" smooth="yes"/>
      <point x="286" y="-13"/>
      <point x="214" y="4"/>
      <point x="145" y="52"/>
      <point x="122" y="92" type="qcurve" smooth="yes"/>
      <point x="72" y="180"/>
      <point x="72" y="350" type="qcurve" smooth="yes"/>
      <point x="72" y="565"/>
      <point x="148" y="641" type="qcurve" smooth="yes"/>
      <point x="186" y="679"/>
      <point x="278" y="708"/>
      <point x="447" y="708"/>
      <point x="515" y="691" type="qcurve"/>
      <point x="505" y="619" type="line"/>
      <point x="392" y="632"/>
      <point x="338" y="632" type="qcurve" smooth="yes"/>
      <point x="239" y="632"/>
      <point x="213" y="605" type="qcurve" smooth="yes"/>
      <point x="163" y="553"/>
      <point x="162" y="352" type="qcurve" smooth="yes"/>
      <point x="163" y="150"/>
    </contour>
  </outline>
</glyph>
<glyph name="H" format="1">
  <advance width="665"/>
  <unicode hex="0048"/>
  <outline>
    <contour>
      <point x="105" y="0" type="line"/>
      <point x="105" y="695" type="line"/>
      <point x="189" y="695" type="line"/>
      <point x="186" y="391" type="line"/>
      <point x="479" y="391" type="line"/>
      <point x="477" y="695" type="line"/>
      <point x="560" y="695" type="line"/>
      <point x="560" y="0" type="line"/>
      <point x="477" y="0" type="line"/>
      <point x="480" y="317" type="line"/>
      <point x="186" y="317" type="line"/>
      <point x="189" y="0" type="line"/>
    </contour>
  </outline>
</glyph>
<glyph name="I" format="1">
  <advance width="295"/>
  <unicode hex="0049"/>
  <outline>
    <contour>
      <point x="185" y="388" type="line"/>
      <point x="190" y="0" type="line"/>
      <point x="105" y="-1" type="line"/>
      <point x="109" y="318" type="line"/>
      <point x="105" y="695" type="line"/>
      <point x="190" y="695" type="line"/>
    </contour>
  </outline>
</glyph>
<glyph name="J" format="1">
  <advance width="316"/>
  <unicode hex="004A"/>
  <outline>
    <contour>
      <point x="220" y="695" type="line"/>
      <point x="220" y="236" type="line" smooth="yes"/>
      <point x="220" y="-13"/>
      <point x="56" y="-13" type="qcurve"/>
      <point x="-7" y="-6" type="line"/>
      <point x="2" y="66" type="line"/>
      <point x="50" y="60"/>
      <point x="95" y="60"/>
      <point x="108" y="69" type="qcurve" smooth="yes"/>
      <point x="136" y="90"/>
      <point x="136" y="223" type="qcurve" smooth="yes"/>
      <point x="136" y="695" type="line"/>
    </contour>
  </outline>
</glyph>
<glyph name="L" format="1">
  <advance width="446"/>
  <unicode hex="004C"/>
  <outline>
    <contour>
      <point x="105" y="0" type="line"/>
      <point x="105" y="695" type="line"/>
      <point x="189" y="695" type="line"/>
      <point x="184" y="75" type="line"/>
      <point x="435" y="77" type="line"/>
      <point x="435" y="0" type="line"/>
    </contour>
  </outline>
</glyph>
<glyph name="M" format="1">
  <advance width="794"/>
  <unicode hex="004D"/>
  <outline>
    <contour>
      <point x="445" y="181" type="line"/>
      <point x="350" y="181" type="line"/>
      <point x="195" y="630" type="line"/>
      <point x="189" y="630" type="line"/>
      <point x="185" y="0" type="line"/>
      <point x="101" y="0" type="line"/>
      <point x="122" y="695" type="line"/>
      <point x="246" y="695" type="line"/>
      <point x="394" y="246" type="line"/>
      <point x="399" y="246" type="line"/>
      <point x="546" y="695" type="line"/>
      <point x="670" y="695" type="line"/>
      <point x="693" y="0" type="line"/>
      <point x="609" y="0" type="line"/>
      <point x="603" y="630" type="line"/>
      <point x="598" y="630" type="line"/>
    </contour>
  </outline>
</glyph>
<glyph name="P" format="1">
  <advance width="581"/>
  <unicode hex="0050"/>
  <outline>
    <contour>
      <point x="189" y="0" type="line"/>
      <point x="105" y="0" type="line"/>
      <point x="109" y="322" type="line"/>
      <point x="105" y="694" type="line"/>
      <point x="228" y="708"/>
      <point x="326" y="708" type="qcurve" smooth="yes"/>
      <point x="522" y="708"/>
      <point x="522" y="475" type="qcurve" smooth="yes"/>
      <point x="522" y="231"/>
      <point x="314" y="231" type="qcurve"/>
      <point x="189" y="237" type="line"/>
    </contour>
    <contour>
      <point x="189" y="314" type="line"/>
      <point x="260" y="302"/>
      <point x="385" y="302"/>
      <point x="404" y="321" type="qcurve" smooth="yes"/>
      <point x="433" y="351"/>
      <point x="433" y="605"/>
      <point x="399" y="628" type="qcurve" smooth="yes"/>
      <point x="376" y="644"/>
      <point x="242" y="644"/>
      <point x="189" y="633" type="qcurve"/>
    </contour>
  </outline>
</glyph>
<glyph name="Q" format="1">
  <advance width="663"/>
  <unicode hex="0051"/>
  <outline>
    <contour>
      <point x="415" y="-2" type="line"/>
      <point x="378" y="-13"/>
      <point x="271" y="-13"/>
      <point x="185" y="19"/>
      <point x="148" y="58" type="qcurve" smooth="yes"/>
      <point x="72" y="137"/>
      <point x="72" y="349" type="qcurve" smooth="yes"/>
      <point x="72" y="560"/>
      <point x="148" y="638" type="qcurve" smooth="yes"/>
      <point x="185" y="676"/>
      <point x="271" y="708"/>
      <point x="385" y="708"/>
      <point x="471" y="676"/>
      <point x="508" y="638" type="qcurve" smooth="yes"/>
      <point x="584" y="560"/>
      <point x="584" y="119"/>
      <point x="482" y="37" type="qcurve"/>
      <point x="482" y="31" type="line"/>
      <point x="619" y="-14" type="line"/>
      <point x="586" y="-92" type="line"/>
    </contour>
    <contour>
      <point x="162" y="469"/>
      <point x="162" y="253"/>
      <point x="180" y="141"/>
      <point x="225" y="82"/>
      <point x="281" y="64"/>
      <point x="391" y="64"/>
      <point x="424" y="82" type="qcurve" smooth="yes"/>
      <point x="495" y="121"/>
      <point x="495" y="346" type="qcurve" smooth="yes"/>
      <point x="495" y="573"/>
      <point x="425" y="613" type="qcurve" smooth="yes"/>
      <point x="392" y="632"/>
      <point x="264" y="632"/>
      <point x="198" y="594"/>
    </contour>
  </outline>
</glyph>
<glyph name="S" format="1">
  <advance width="511"/>
  <unicode hex="0053"/>
  <outline>
    <contour>
      <point x="36" y="51" type="line"/>
      <point x="66" y="119" type="line"/>
      <point x="105" y="98"/>
      <point x="220" y="64"/>
      <point x="305" y="64"/>
      <point x="326" y="77" type="qcurve" smooth="yes"/>
      <point x="368" y="106"/>
      <point x="368" y="179" type="qcurve" smooth="yes"/>
      <point x="368" y="230"/>
      <point x="307" y="290"/>
      <point x="215" y="329"/>
      <point x="184" y="342"/>
      <point x="126" y="373"/>
      <point x="101" y="400"/>
      <point x="86" y="420" type="qcurve" smooth="yes"/>
      <point x="58" y="457"/>
      <point x="58" y="605"/>
      <point x="165" y="708"/>
      <point x="264" y="708" type="qcurve" smooth="yes"/>
      <point x="341" y="708"/>
      <point x="427" y="686" type="qcurve"/>
      <point x="413" y="614" type="line"/>
      <point x="329" y="632"/>
      <point x="204" y="632"/>
      <point x="182" y="619" type="qcurve" smooth="yes"/>
      <point x="146" y="599"/>
      <point x="146" y="533" type="qcurve" smooth="yes"/>
      <point x="146" y="489"/>
      <point x="175" y="456" type="qcurve" smooth="yes"/>
      <point x="196" y="433"/>
      <point x="248" y="410" type="qcurve" smooth="yes"/>
      <point x="261" y="404"/>
      <point x="330" y="376"/>
      <point x="376" y="350"/>
      <point x="402" y="327" type="qcurve" smooth="yes"/>
      <point x="455" y="281"/>
      <point x="455" y="99"/>
      <point x="339" y="-13"/>
      <point x="246" y="-13" type="qcurve" smooth="yes"/>
      <point x="197" y="-13"/>
      <point x="92" y="19"/>
      <point x="64" y="35" type="qcurve" smooth="yes"/>
    </contour>
  </outline>
</glyph>
<glyph name="T" format="1">
  <advance width="474"/>
  <unicode hex="0054"/>
  <outline>
    <contour>
      <point x="2" y="695" type="line"/>
      <point x="472" y="695" type="line"/>
      <point x="472" y="619" type="line"/>
      <point x="277" y="622" type="line"/>
      <point x="279" y="0" type="line"/>
      <point x="196" y="0" type="line"/>
      <point x="198" y="622" type="line"/>
      <point x="2" y="619" type="line"/>
    </contour>
  </outline>
</glyph>
<glyph name="U" format="1">
  <advance width="661"/>
  <unicode hex="0055"/>
  <outline>
    <contour>
      <point x="472" y="695" type="line"/>
      <point x="556" y="695" type="line"/>
      <point x="556" y="311" type="line" smooth="yes"/>
      <point x="556" y="128"/>
      <point x="446" y="-13"/>
      <point x="215" y="-13"/>
      <point x="105" y="126"/>
      <point x="105" y="302" type="qcurve" smooth="yes"/>
      <point x="105" y="695" type="line"/>
      <point x="189" y="695" type="line"/>
      <point x="189" y="329" type="line" smooth="yes"/>
      <point x="189" y="207"/>
      <point x="213" y="98"/>
      <point x="267" y="63"/>
      <point x="368" y="63"/>
      <point x="413" y="74"/>
      <point x="449" y="103"/>
      <point x="456" y="134" type="qcurve" smooth="yes"/>
      <point x="472" y="198"/>
      <point x="472" y="329" type="qcurve" smooth="yes"/>
    </contour>
  </outline>
</glyph>
<glyph name="V" format="1">
  <advance width="528"/>
  <unicode hex="0056"/>
  <outline>
    <contour>
      <point x="264" y="67" type="line"/>
      <point x="413" y="695" type="line"/>
      <point x="503" y="695" type="line"/>
      <point x="315" y="0" type="line"/>
      <point x="206" y="0" type="line"/>
      <point x="19" y="695" type="line"/>
      <point x="108" y="695" type="line"/>
      <point x="258" y="67" type="line"/>
    </contour>
  </outline>
</glyph>
<glyph name="W" format="1">
  <advance width="748"/>
  <unicode hex="0057"/>
  <outline>
    <contour>
      <point x="312" y="527" type="line"/>
      <point x="426" y="527" type="line"/>
      <point x="541" y="74" type="line"/>
      <point x="547" y="74" type="line"/>
      <point x="619" y="695" type="line"/>
      <point x="705" y="695" type="line"/>
      <point x="603" y="0" type="line"/>
      <point x="489" y="0" type="line"/>
      <point x="372" y="455" type="line"/>
      <point x="367" y="455" type="line"/>
      <point x="252" y="0" type="line"/>
      <point x="132" y="0" type="line"/>
      <point x="33" y="695" type="line"/>
      <point x="119" y="695" type="line"/>
      <point x="192" y="74" type="line"/>
      <point x="197" y="74" type="line"/>
    </contour>
  </outline>
</glyph>
<glyph name="X" format="1">
  <advance width="536"/>
  <unicode hex="0058"/>
  <outline>
    <contour>
      <point x="10" y="0" type="line"/>
      <point x="210" y="344" type="line"/>
      <point x="15" y="695" type="line"/>
      <point x="113" y="695" type="line"/>
      <point x="257" y="400" type="line"/>
      <point x="263" y="400" type="line"/>
      <point x="411" y="695" type="line"/>
      <point x="508" y="695" type="line"/>
      <point x="314" y="341" type="line"/>
      <point x="514" y="0" type="line"/>
      <point x="417" y="0" type="line"/>
      <point x="266" y="284" type="line"/>
      <point x="261" y="284" type="line"/>
      <point x="107" y="0" type="line"/>
    </contour>
  </outline>
</glyph>
<glyph name="Y" format="1">
  <advance width="511"/>
  <unicode hex="0059"/>
  <outline>
    <contour>
      <point x="207" y="0" type="line"/>
      <point x="209" y="259" type="line"/>
      <point x="5" y="695" type="line"/>
      <point x="99" y="695" type="line"/>
      <point x="248" y="329" type="line"/>
      <point x="252" y="329" type="line"/>
      <point x="402" y="695" type="line"/>
      <point x="496" y="695" type="line"/>
      <point x="291" y="258" type="line"/>
      <point x="293" y="0" type="line"/>
    </contour>
  </outline>
</glyph>
<glyph name="Z" format="1">
  <advance width="531"/>
  <unicode hex="005A"/>
  <outline>
    <contour>
      <point x="29" y="0" type="line"/>
      <point x="29" y="76" type="line"/>
      <point x="391" y="617" type="line"/>
      <point x="391" y="623" type="line"/>
      <point x="49" y="619" type="line"/>
      <point x="49" y="695" type="line"/>
      <point x="485" y="695" type="line"/>
      <point x="485" y="617" type="line"/>
      <point x="127" y="78" type="line"/>
      <point x="127" y="73" type="line"/>
      <point x="489" y="76" type="line"/>
      <point x="489" y="0" type="line"/>
    </contour>
  </outline>
</glyph>
<glyph name="bracketleft" format="1">
  <advance width="311"/>
  <unicode hex="005B"/>
  <outline>
    <contour>
      <point x="270" y="-124" type="line"/>
      <point x="106" y="-124" type="line"/>
      <point x="106" y="783" type="line"/>
      <point x="270" y="783" type="line"/>
      <point x="270" y="715" type="line"/>
      <point x="181" y="718" type="line"/>
      <point x="181" y="-59" type="line"/>
      <point x="270" y="-56" type="line"/>
    </contour>
  </outline>
</glyph>
<glyph name="backslash" format="1">
  <advance width="432"/>
  <unicode hex="005C"/>
  <outline>
    <contour>
      <point x="426" y="-98" type="line"/>
      <point x="338" y="-98" type="line"/>
      <point x="188" y="288" type="line"/>
      <point x="22" y="695" type="line"/>
      <point x="111" y="695" type="line"/>
      <point x="256" y="319" type="line"/>
    </contour>
  </outline>
</glyph>
<glyph name="bracketright" format="1">
  <advance width="311"/>
  <unicode hex="005D"/>
  <outline>
    <contour>
      <point x="205" y="783" type="line"/>
      <point x="205" y="-124" type="line"/>
      <point x="41" y="-124" type="line"/>
      <point x="41" y="-56" type="line"/>
      <point x="131" y="-59" type="line"/>
      <point x="131" y="718" type="line"/>
      <point x="41" y="715" type="line"/>
      <point x="41" y="783" type="line"/>
    </contour>
  </outline>
</glyph>
<glyph name="asciicircum" format="1">
  <advance width="506"/>
  <unicode hex="005E"/>
  <outline>
    <contour>
      <point x="133" y="316" type="line"/>
      <point x="58" y="325" type="line"/>
      <point x="204" y="695" type="line"/>
      <point x="302" y="695" type="line"/>
      <point x="448" y="325" type="line"/>
      <point x="374" y="316" type="line"/>
      <point x="257" y="630" type="line"/>
      <point x="250" y="630" type="line"/>
    </contour>
  </outline>
</glyph>
<glyph name="underscore" format="1">
  <advance width="536"/>
  <unicode hex="005F"/>
  <outline>
    <contour>
      <point x="16" y="-161" type="line"/>
      <point x="16" y="-91" type="line"/>
      <point x="520" y="-91" type="line"/>
      <point x="520" y="-161" type="line"/>
    </contour>
  </outline>
</glyph>
<glyph name="grave" format="1">
  <advance width="597"/>
  <unicode hex="0060"/>
  <outline>
    <contour>
      <point x="170" y="735" type="line"/>
      <point x="200" y="802" type="line"/>
      <point x="422" y="707" type="line"/>
      <point x="402" y="657" type="line"/>
    </contour>
  </outline>
</glyph>
<glyph name="b" format="1">
  <advance width="576"/>
  <unicode hex="0062"/>
  <outline>
    <contour>
      <point x="90" y="753" type="line"/>
      <point x="173" y="753" type="line"/>
      <point x="173" y="573" type="line"/>
      <point x="266" y="595"/>
      <point x="324" y="595" type="qcurve" smooth="yes"/>
      <point x="506" y="595"/>
      <point x="506" y="301" type="qcurve" smooth="yes"/>
      <point x="506" y="-13"/>
      <point x="305" y="-13" type="qcurve" smooth="yes"/>
      <point x="264" y="-13"/>
      <point x="133" y="10"/>
      <point x="90" y="25" type="qcurve"/>
    </contour>
    <contour>
      <point x="173" y="77" type="line"/>
      <point x="236" y="60"/>
      <point x="354" y="60"/>
      <point x="373" y="76" type="qcurve" smooth="yes"/>
      <point x="419" y="119"/>
      <point x="419" y="479"/>
      <point x="387" y="505" type="qcurve" smooth="yes"/>
      <point x="366" y="521"/>
      <point x="326" y="521" type="qcurve" smooth="yes"/>
      <point x="255" y="521"/>
      <point x="173" y="495" type="qcurve"/>
    </contour>
  </outline>
</glyph>
<glyph name="c" format="1">
  <advance width="518"/>
  <unicode hex="0063"/>
  <outline>
    <contour>
      <point x="305" y="522" type="qcurve" smooth="yes"/>
      <point x="229" y="522"/>
      <point x="203" y="496" type="qcurve" smooth="yes"/>
      <point x="183" y="474"/>
      <point x="157" y="361"/>
      <point x="157" y="287" type="qcurve" smooth="yes"/>
      <point x="157" y="119"/>
      <point x="221" y="75" type="qcurve" smooth="yes"/>
      <point x="243" y="59"/>
      <point x="316" y="59"/>
      <point x="401" y="82"/>
      <point x="451" y="105" type="qcurve"/>
      <point x="477" y="40" type="line"/>
      <point x="469" y="34"/>
      <point x="440" y="16"/>
      <point x="347" y="-13"/>
      <point x="300" y="-13" type="qcurve" smooth="yes"/>
      <point x="192" y="-13"/>
      <point x="70" y="136"/>
      <point x="70" y="459"/>
      <point x="204" y="595"/>
      <point x="321" y="595" type="qcurve" smooth="yes"/>
      <point x="397" y="595"/>
      <point x="463" y="579" type="qcurve"/>
      <point x="453" y="509" type="line"/>
      <point x="345" y="522"/>
    </contour>
  </outline>
</glyph>
<glyph name="d" format="1">
  <advance width="581"/>
  <unicode hex="0064"/>
  <outline>
    <contour>
      <point x="491" y="753" type="line"/>
      <point x="491" y="0" type="line"/>
      <point x="436" y="0" type="line"/>
      <point x="425" y="60" type="line"/>
      <point x="419" y="60" type="line"/>
      <point x="411" y="52"/>
      <point x="381" y="28"/>
      <point x="294" y="-13"/>
      <point x="254" y="-13" type="qcurve" smooth="yes"/>
      <point x="169" y="-13"/>
      <point x="70" y="134"/>
      <point x="70" y="280" type="qcurve" smooth="yes"/>
      <point x="70" y="595"/>
      <point x="277" y="595" type="qcurve" smooth="yes"/>
      <point x="330" y="595"/>
      <point x="408" y="574" type="qcurve"/>
      <point x="408" y="753" type="line"/>
    </contour>
    <contour>
      <point x="408" y="494" type="line"/>
      <point x="344" y="521"/>
      <point x="213" y="521"/>
      <point x="193" y="497" type="qcurve" smooth="yes"/>
      <point x="157" y="450"/>
      <point x="157" y="109"/>
      <point x="202" y="74" type="qcurve" smooth="yes"/>
      <point x="215" y="62"/>
      <point x="290" y="62"/>
      <point x="365" y="88"/>
      <point x="408" y="114" type="qcurve"/>
    </contour>
  </outline>
</glyph>
<glyph name="e" format="1">
  <advance width="569"/>
  <unicode hex="0065"/>
  <outline>
    <contour>
      <point x="302" y="-13" type="qcurve" smooth="yes"/>
      <point x="70" y="-13"/>
      <point x="70" y="595"/>
      <point x="300" y="595" type="qcurve" smooth="yes"/>
      <point x="402" y="595"/>
      <point x="504" y="468"/>
      <point x="504" y="321" type="qcurve" smooth="yes"/>
      <point x="504" y="259" type="line"/>
      <point x="158" y="259" type="line"/>
      <point x="158" y="124"/>
      <point x="201" y="84" type="qcurve" smooth="yes"/>
      <point x="228" y="60"/>
      <point x="275" y="60" type="qcurve" smooth="yes"/>
      <point x="359" y="60"/>
      <point x="440" y="88" type="qcurve" smooth="yes"/>
      <point x="467" y="98" type="line"/>
      <point x="488" y="30" type="line"/>
      <point x="404" y="-13"/>
    </contour>
    <contour>
      <point x="396" y="493" type="qcurve" smooth="yes"/>
      <point x="376" y="523"/>
      <point x="220" y="523"/>
      <point x="158" y="441"/>
      <point x="158" y="325" type="qcurve"/>
      <point x="419" y="330" type="line"/>
      <point x="419" y="455"/>
    </contour>
  </outline>
</glyph>
<glyph name="f" format="1">
  <advance width="338"/>
  <unicode hex="0066"/>
  <outline>
    <contour>
      <point x="198" y="548" type="qcurve"/>
      <point x="325" y="548" type="line"/>
      <point x="325" y="481" type="line"/>
      <point x="198" y="481" type="line"/>
      <point x="198" y="0" type="line"/>
      <point x="115" y="0" type="line"/>
      <point x="115" y="484" type="line"/>
      <point x="50" y="484" type="line"/>
      <point x="50" y="535" type="line"/>
      <point x="115" y="548" type="line"/>
      <point x="119" y="668"/>
      <point x="207" y="766"/>
      <point x="287" y="766" type="qcurve" smooth="yes"/>
      <point x="343" y="764" type="line"/>
      <point x="337" y="694" type="line"/>
      <point x="286" y="696"/>
      <point x="240" y="696"/>
      <point x="226" y="688" type="qcurve" smooth="yes"/>
      <point x="198" y="670"/>
    </contour>
  </outline>
</glyph>
<glyph name="g" format="1">
  <advance width="521"/>
  <unicode hex="0067"/>
  <outline>
    <contour>
      <point x="456" y="385" type="qcurve" smooth="yes"/>
      <point x="456" y="297"/>
      <point x="343" y="188"/>
      <point x="245" y="188" type="qcurve"/>
      <point x="235" y="129"/>
      <point x="235" y="122"/>
      <point x="278" y="104"/>
      <point x="284" y="102" type="qcurve" smooth="yes"/>
      <point x="314" y="89"/>
      <point x="325" y="84" type="qcurve" smooth="yes"/>
      <point x="406" y="50"/>
      <point x="469" y="-16"/>
      <point x="469" y="-52" type="qcurve" smooth="yes"/>
      <point x="469" y="-112"/>
      <point x="351" y="-179"/>
      <point x="253" y="-179" type="qcurve" smooth="yes"/>
      <point x="205" y="-179"/>
      <point x="109" y="-166"/>
      <point x="61" y="-152" type="qcurve"/>
      <point x="71" y="-77" type="line"/>
      <point x="215" y="-102"/>
      <point x="354" y="-102"/>
      <point x="394" y="-85"/>
      <point x="394" y="-43"/>
      <point x="371" y="-27" type="qcurve" smooth="yes"/>
      <point x="339" y="-5"/>
      <point x="146" y="74"/>
      <point x="146" y="79" type="qcurve" smooth="yes"/>
      <point x="193" y="194" type="line"/>
      <point x="125" y="210"/>
      <point x="47" y="312"/>
      <point x="47" y="382" type="qcurve" smooth="yes"/>
      <point x="47" y="496"/>
      <point x="174" y="595"/>
      <point x="277" y="595" type="qcurve" smooth="yes"/>
      <point x="338" y="595"/>
      <point x="488" y="583" type="qcurve"/>
      <point x="488" y="530" type="line"/>
      <point x="422" y="520" type="line"/>
      <point x="456" y="445"/>
    </contour>
    <contour>
      <point x="128" y="466"/>
      <point x="128" y="316"/>
      <point x="183" y="262"/>
      <point x="320" y="262"/>
      <point x="376" y="315"/>
      <point x="376" y="387" type="qcurve" smooth="yes"/>
      <point x="376" y="457"/>
      <point x="360" y="512"/>
      <point x="356" y="514" type="qcurve" smooth="yes"/>
      <point x="350" y="519"/>
      <point x="261" y="521" type="qcurve" smooth="yes"/>
      <point x="188" y="521"/>
    </contour>
  </outline>
</glyph>
<glyph name="h" format="1">
  <advance width="584"/>
  <unicode hex="0068"/>
  <outline>
    <contour>
      <point x="168" y="0" type="line"/>
      <point x="85" y="0" type="line"/>
      <point x="85" y="753" type="line"/>
      <point x="168" y="753" type="line"/>
      <point x="168" y="546" type="line"/>
      <point x="281" y="595"/>
      <point x="344" y="595" type="qcurve" smooth="yes"/>
      <point x="429" y="595"/>
      <point x="496" y="494"/>
      <point x="496" y="387" type="qcurve" smooth="yes"/>
      <point x="496" y="0" type="line"/>
      <point x="413" y="0" type="line"/>
      <point x="413" y="358" type="line" smooth="yes"/>
      <point x="413" y="467"/>
      <point x="393" y="496" type="qcurve" smooth="yes"/>
      <point x="378" y="517"/>
      <point x="340" y="517" type="qcurve" smooth="yes"/>
      <point x="268" y="517"/>
      <point x="193" y="486" type="qcurve" smooth="yes"/>
      <point x="168" y="475" type="line"/>
    </contour>
  </outline>
</glyph>
<glyph name="i" format="1">
  <advance width="295"/>
  <unicode hex="0069"/>
  <outline>
    <contour>
      <point x="189" y="0" type="line"/>
      <point x="106" y="0" type="line"/>
      <point x="106" y="582" type="line"/>
      <point x="189" y="582" type="line"/>
    </contour>
    <contour>
      <point x="199" y="668" type="line"/>
      <point x="97" y="668" type="line"/>
      <point x="97" y="753" type="line"/>
      <point x="199" y="753" type="line"/>
    </contour>
  </outline>
</glyph>
<glyph name="j" format="1">
  <advance width="307"/>
  <unicode hex="006A"/>
  <outline>
    <contour>
      <point x="201" y="582" type="line"/>
      <point x="201" y="55" type="line" smooth="yes"/>
      <point x="201" y="-178"/>
      <point x="43" y="-178" type="qcurve"/>
      <point x="-17" y="-173" type="line"/>
      <point x="-8" y="-99" type="line"/>
      <point x="20" y="-103"/>
      <point x="82" y="-103"/>
      <point x="94" y="-94" type="qcurve" smooth="yes"/>
      <point x="118" y="-78"/>
      <point x="118" y="52" type="qcurve" smooth="yes"/>
      <point x="118" y="582" type="line"/>
    </contour>
    <contour>
      <point x="211" y="668" type="line"/>
      <point x="109" y="668" type="line"/>
      <point x="109" y="753" type="line"/>
      <point x="211" y="753" type="line"/>
    </contour>
  </outline>
</glyph>
<glyph name="k" format="1">
  <advance width="522"/>
  <unicode hex="006B"/>
  <outline>
    <contour>
      <point x="173" y="753" type="line"/>
      <point x="173" y="0" type="line"/>
      <point x="90" y="0" type="line"/>
      <point x="95" y="321" type="line"/>
      <point x="90" y="753" type="line"/>
    </contour>
    <contour>
      <point x="174" y="314" type="line"/>
      <point x="406" y="582" type="line"/>
      <point x="513" y="582" type="line"/>
      <point x="266" y="319" type="line"/>
      <point x="266" y="314" type="line"/>
      <point x="531" y="0" type="line"/>
      <point x="423" y="0" type="line"/>
    </contour>
  </outline>
</glyph>
<glyph name="l" format="1">
  <advance width="263"/>
  <unicode hex="006C"/>
  <outline>
    <contour>
      <point x="173" y="0" type="line"/>
      <point x="90" y="0" type="line"/>
      <point x="90" y="753" type="line"/>
      <point x="173" y="753" type="line"/>
    </contour>
  </outline>
</glyph>
<glyph name="m" format="1">
  <advance width="917"/>
  <unicode hex="006D"/>
  <outline>
    <contour>
      <point x="354" y="516" type="qcurve" smooth="yes"/>
      <point x="288" y="516"/>
      <point x="184" y="464" type="qcurve"/>
      <point x="184" y="0" type="line"/>
      <point x="101" y="0" type="line"/>
      <point x="101" y="582" type="line"/>
      <point x="157" y="582" type="line"/>
      <point x="166" y="525" type="line"/>
      <point x="171" y="525" type="line"/>
      <point x="288" y="595"/>
      <point x="369" y="595" type="qcurve" smooth="yes"/>
      <point x="412" y="595"/>
      <point x="474" y="555"/>
      <point x="488" y="520" type="qcurve"/>
      <point x="526" y="543"/>
      <point x="574" y="569"/>
      <point x="655" y="595"/>
      <point x="691" y="595" type="qcurve" smooth="yes"/>
      <point x="768" y="595"/>
      <point x="829" y="488"/>
      <point x="829" y="383" type="qcurve" smooth="yes"/>
      <point x="829" y="0" type="line"/>
      <point x="746" y="0" type="line"/>
      <point x="746" y="355" type="line" smooth="yes"/>
      <point x="746" y="470"/>
      <point x="717" y="516"/>
      <point x="675" y="516" type="qcurve" smooth="yes"/>
      <point x="603" y="516"/>
      <point x="503" y="459" type="qcurve"/>
      <point x="507" y="415"/>
      <point x="507" y="387" type="qcurve" smooth="yes"/>
      <point x="507" y="0" type="line"/>
      <point x="424" y="0" type="line"/>
      <point x="424" y="358" type="line" smooth="yes"/>
      <point x="424" y="422"/>
      <point x="418" y="478"/>
      <point x="393" y="516"/>
    </contour>
  </outline>
</glyph>
<glyph name="n" format="1">
  <advance width="601"/>
  <unicode hex="006E"/>
  <outline>
    <contour>
      <point x="184" y="0" type="line"/>
      <point x="101" y="0" type="line"/>
      <point x="101" y="582" type="line"/>
      <point x="157" y="582" type="line"/>
      <point x="166" y="525" type="line"/>
      <point x="171" y="525" type="line"/>
      <point x="291" y="595"/>
      <point x="379" y="595" type="qcurve" smooth="yes"/>
      <point x="458" y="595"/>
      <point x="488" y="534" type="qcurve" smooth="yes"/>
      <point x="513" y="483"/>
      <point x="513" y="387" type="qcurve" smooth="yes"/>
      <point x="513" y="0" type="line"/>
      <point x="429" y="0" type="line"/>
      <point x="429" y="358" type="line" smooth="yes"/>
      <point x="429" y="472"/>
      <point x="400" y="516"/>
      <point x="360" y="516" type="qcurve" smooth="yes"/>
      <point x="284" y="516"/>
      <point x="184" y="463" type="qcurve"/>
    </contour>
  </outline>
</glyph>
<glyph name="o" format="1">
  <advance width="576"/>
  <unicode hex="006F"/>
  <outline>
    <contour>
      <point x="169" y="595"/>
      <point x="406" y="595"/>
      <point x="506" y="440"/>
      <point x="506" y="142"/>
      <point x="406" y="-13"/>
      <point x="169" y="-13"/>
      <point x="70" y="141"/>
      <point x="70" y="440"/>
    </contour>
    <contour>
      <point x="234" y="523"/>
      <point x="181" y="489"/>
      <point x="154" y="390"/>
      <point x="154" y="192"/>
      <point x="180" y="92"/>
      <point x="234" y="58"/>
      <point x="342" y="58"/>
      <point x="395" y="92"/>
      <point x="421" y="192"/>
      <point x="421" y="390"/>
      <point x="395" y="489"/>
      <point x="342" y="523"/>
    </contour>
  </outline>
</glyph>
<glyph name="p" format="1">
  <advance width="577"/>
  <unicode hex="0070"/>
  <outline>
    <contour>
      <point x="168" y="-166" type="line"/>
      <point x="85" y="-166" type="line"/>
      <point x="85" y="582" type="line"/>
      <point x="141" y="582" type="line"/>
      <point x="152" y="523" type="line"/>
      <point x="157" y="523" type="line" smooth="yes"/>
      <point x="159" y="524"/>
      <point x="199" y="552"/>
      <point x="236" y="574"/>
      <point x="300" y="595"/>
      <point x="331" y="595" type="qcurve" smooth="yes"/>
      <point x="415" y="595"/>
      <point x="507" y="451"/>
      <point x="507" y="302" type="qcurve" smooth="yes"/>
      <point x="507" y="-13"/>
      <point x="296" y="-13" type="qcurve" smooth="yes"/>
      <point x="250" y="-13"/>
      <point x="168" y="1" type="qcurve"/>
    </contour>
    <contour>
      <point x="168" y="81" type="line"/>
      <point x="253" y="60"/>
      <point x="353" y="60"/>
      <point x="372" y="76" type="qcurve" smooth="yes"/>
      <point x="419" y="115"/>
      <point x="419" y="318" type="qcurve" smooth="yes"/>
      <point x="419" y="474"/>
      <point x="390" y="503" type="qcurve" smooth="yes"/>
      <point x="373" y="520"/>
      <point x="299" y="520"/>
      <point x="216" y="493"/>
      <point x="168" y="466" type="qcurve"/>
    </contour>
  </outline>
</glyph>
<glyph name="q" format="1">
  <advance width="577"/>
  <unicode hex="0071"/>
  <outline>
    <contour>
      <point x="487" y="-166" type="line"/>
      <point x="404" y="-166" type="line"/>
      <point x="404" y="20" type="line"/>
      <point x="330" y="-13"/>
      <point x="260" y="-13" type="qcurve" smooth="yes"/>
      <point x="70" y="-13"/>
      <point x="70" y="302" type="qcurve" smooth="yes"/>
      <point x="70" y="463"/>
      <point x="173" y="595"/>
      <point x="281" y="595" type="qcurve" smooth="yes"/>
      <point x="323" y="595"/>
      <point x="426" y="578"/>
      <point x="487" y="561" type="qcurve"/>
    </contour>
    <contour>
      <point x="404" y="506" type="line"/>
      <point x="346" y="522"/>
      <point x="208" y="522"/>
      <point x="190" y="501" type="qcurve" smooth="yes"/>
      <point x="157" y="463"/>
      <point x="157" y="121"/>
      <point x="197" y="79" type="qcurve" smooth="yes"/>
      <point x="215" y="61"/>
      <point x="250" y="61" type="qcurve" smooth="yes"/>
      <point x="318" y="61"/>
      <point x="382" y="85" type="qcurve" smooth="yes"/>
      <point x="404" y="93" type="line"/>
    </contour>
  </outline>
</glyph>
<glyph name="r" format="1">
  <advance width="395"/>
  <unicode hex="0072"/>
  <outline>
    <contour>
      <point x="368" y="510" type="line"/>
      <point x="345" y="512"/>
      <point x="292" y="512"/>
      <point x="208" y="480"/>
      <point x="184" y="461" type="qcurve"/>
      <point x="184" y="0" type="line"/>
      <point x="101" y="0" type="line"/>
      <point x="101" y="582" type="line"/>
      <point x="154" y="582" type="line"/>
      <point x="165" y="523" type="line"/>
      <point x="171" y="523" type="line"/>
      <point x="212" y="553"/>
      <point x="304" y="595"/>
      <point x="334" y="595" type="qcurve" smooth="yes"/>
      <point x="375" y="590" type="line"/>
    </contour>
  </outline>
</glyph>
<glyph name="s" format="1">
  <advance width="492"/>
  <unicode hex="0073"/>
  <outline>
    <contour>
      <point x="393" y="501" type="line"/>
      <point x="314" y="523"/>
      <point x="174" y="523"/>
      <point x="134" y="493"/>
      <point x="134" y="450" type="qcurve" smooth="yes"/>
      <point x="134" y="412"/>
      <point x="163" y="383"/>
      <point x="179" y="369"/>
      <point x="217" y="354"/>
      <point x="226" y="351" type="qcurve" smooth="yes"/>
      <point x="263" y="340"/>
      <point x="293" y="332" type="qcurve" smooth="yes"/>
      <point x="360" y="313"/>
      <point x="434" y="243"/>
      <point x="434" y="86"/>
      <point x="335" y="-13"/>
      <point x="245" y="-13" type="qcurve" smooth="yes"/>
      <point x="201" y="-13"/>
      <point x="106" y="11"/>
      <point x="55" y="35" type="qcurve"/>
      <point x="76" y="106" type="line"/>
      <point x="167" y="59"/>
      <point x="260" y="59" type="qcurve" smooth="yes"/>
      <point x="305" y="59"/>
      <point x="324" y="75" type="qcurve" smooth="yes"/>
      <point x="353" y="100"/>
      <point x="353" y="153" type="qcurve" smooth="yes"/>
      <point x="353" y="219"/>
      <point x="292" y="246" type="qcurve" smooth="yes"/>
      <point x="268" y="257"/>
      <point x="182" y="282"/>
      <point x="151" y="292"/>
      <point x="100" y="319"/>
      <point x="88" y="334" type="qcurve" smooth="yes"/>
      <point x="56" y="374"/>
      <point x="56" y="437" type="qcurve" smooth="yes"/>
      <point x="56" y="595"/>
      <point x="246" y="595" type="qcurve" smooth="yes"/>
      <point x="334" y="595"/>
      <point x="406" y="571" type="qcurve"/>
    </contour>
  </outline>
</glyph>
<glyph name="t" format="1">
  <advance width="364"/>
  <unicode hex="0074"/>
  <outline>
    <contour>
      <point x="194" y="548" type="line"/>
      <point x="310" y="548" type="line"/>
      <point x="310" y="481" type="line"/>
      <point x="194" y="481" type="line"/>
      <point x="194" y="179" type="line" smooth="yes"/>
      <point x="194" y="95"/>
      <point x="211" y="61"/>
      <point x="255" y="61" type="qcurve" smooth="yes"/>
      <point x="309" y="63" type="line"/>
      <point x="309" y="-4" type="line"/>
      <point x="288" y="-9"/>
      <point x="253" y="-9" type="qcurve" smooth="yes"/>
      <point x="181" y="-9"/>
      <point x="111" y="70"/>
      <point x="111" y="185" type="qcurve" smooth="yes"/>
      <point x="111" y="483" type="line"/>
      <point x="45" y="483" type="line"/>
      <point x="45" y="535" type="line"/>
      <point x="114" y="549" type="line"/>
      <point x="136" y="685" type="line"/>
      <point x="194" y="685" type="line"/>
    </contour>
  </outline>
</glyph>
<glyph name="u" format="1">
  <advance width="600"/>
  <unicode hex="0075"/>
  <outline>
    <contour>
      <point x="416" y="582" type="line"/>
      <point x="499" y="582" type="line"/>
      <point x="499" y="0" type="line"/>
      <point x="443" y="0" type="line"/>
      <point x="433" y="56" type="line"/>
      <point x="428" y="56" type="line" smooth="yes"/>
      <point x="427" y="56"/>
      <point x="368" y="23"/>
      <point x="349" y="14" type="qcurve" smooth="yes"/>
      <point x="288" y="-13"/>
      <point x="234" y="-13" type="qcurve" smooth="yes"/>
      <point x="88" y="-13"/>
      <point x="88" y="195" type="qcurve" smooth="yes"/>
      <point x="88" y="582" type="line"/>
      <point x="171" y="582" type="line"/>
      <point x="171" y="224" type="line" smooth="yes"/>
      <point x="171" y="109"/>
      <point x="198" y="64"/>
      <point x="301" y="64"/>
      <point x="416" y="117" type="qcurve"/>
    </contour>
  </outline>
</glyph>
<glyph name="v" format="1">
  <advance width="474"/>
  <unicode hex="0076"/>
  <outline>
    <contour>
      <point x="459" y="582" type="line"/>
      <point x="286" y="0" type="line"/>
      <point x="183" y="0" type="line"/>
      <point x="14" y="582" type="line"/>
      <point x="104" y="582" type="line"/>
      <point x="232" y="68" type="line"/>
      <point x="238" y="68" type="line"/>
      <point x="369" y="582" type="line"/>
    </contour>
  </outline>
</glyph>
<glyph name="w" format="1">
  <advance width="727"/>
  <unicode hex="0077"/>
  <outline>
    <contour>
      <point x="702" y="582" type="line"/>
      <point x="585" y="0" type="line"/>
      <point x="462" y="0" type="line"/>
      <point x="364" y="458" type="line"/>
      <point x="358" y="458" type="line"/>
      <point x="260" y="0" type="line"/>
      <point x="138" y="0" type="line"/>
      <point x="21" y="582" type="line"/>
      <point x="105" y="582" type="line"/>
      <point x="196" y="48" type="line"/>
      <point x="201" y="48" type="line"/>
      <point x="300" y="505" type="line"/>
      <point x="423" y="505" type="line"/>
      <point x="521" y="48" type="line"/>
      <point x="527" y="48" type="line"/>
      <point x="617" y="582" type="line"/>
    </contour>
  </outline>
</glyph>
<glyph name="x" format="1">
  <advance width="491"/>
  <unicode hex="0078"/>
  <outline>
    <contour>
      <point x="291" y="301" type="line"/>
      <point x="466" y="0" type="line"/>
      <point x="369" y="0" type="line"/>
      <point x="242" y="251" type="line"/>
      <point x="237" y="251" type="line"/>
      <point x="113" y="0" type="line"/>
      <point x="17" y="0" type="line"/>
      <point x="191" y="303" type="line"/>
      <point x="19" y="582" type="line"/>
      <point x="113" y="582" type="line"/>
      <point x="240" y="349" type="line"/>
      <point x="246" y="349" type="line"/>
      <point x="369" y="582" type="line"/>
      <point x="463" y="582" type="line"/>
    </contour>
  </outline>
</glyph>
<glyph name="y" format="1">
  <advance width="479"/>
  <unicode hex="0079"/>
  <outline>
    <contour>
      <point x="125" y="-166" type="line"/>
      <point x="204" y="57" type="line"/>
      <point x="3" y="582" type="line"/>
      <point x="101" y="582" type="line"/>
      <point x="238" y="155" type="line"/>
      <point x="243" y="155" type="line"/>
      <point x="379" y="582" type="line"/>
      <point x="469" y="582" type="line"/>
      <point x="267" y="37" type="line"/>
      <point x="213" y="-166" type="line"/>
    </contour>
  </outline>
</glyph>
<glyph name="braceleft" format="1">
  <advance width="417"/>
  <unicode hex="007B"/>
  <outline>
    <contour>
      <point x="176" y="493" type="qcurve" smooth="yes"/>
      <point x="176" y="592" type="line" smooth="yes"/>
      <point x="176" y="784"/>
      <point x="330" y="784" type="qcurve"/>
      <point x="383" y="781" type="line"/>
      <point x="379" y="716" type="line"/>
      <point x="339" y="719"/>
      <point x="319" y="719" type="qcurve" smooth="yes"/>
      <point x="285" y="719"/>
      <point x="259" y="671"/>
      <point x="259" y="590" type="qcurve" smooth="yes"/>
      <point x="259" y="492" type="line" smooth="yes"/>
      <point x="259" y="447"/>
      <point x="236" y="383"/>
      <point x="218" y="368" type="qcurve" smooth="yes"/>
      <point x="186" y="343"/>
      <point x="166" y="341" type="qcurve" smooth="yes"/>
      <point x="165" y="341" type="line"/>
      <point x="165" y="335" type="line"/>
      <point x="185" y="333"/>
      <point x="216" y="308" type="qcurve" smooth="yes"/>
      <point x="235" y="294"/>
      <point x="259" y="228"/>
      <point x="259" y="182" type="qcurve" smooth="yes"/>
      <point x="259" y="77" type="line" smooth="yes"/>
      <point x="259" y="-7"/>
      <point x="287" y="-59"/>
      <point x="321" y="-59" type="qcurve" smooth="yes"/>
      <point x="379" y="-56" type="line"/>
      <point x="383" y="-122" type="line"/>
      <point x="351" y="-124"/>
      <point x="333" y="-124" type="qcurve" smooth="yes"/>
      <point x="176" y="-124"/>
      <point x="176" y="77" type="qcurve" smooth="yes"/>
      <point x="176" y="186" type="line" smooth="yes"/>
      <point x="176" y="251"/>
      <point x="132" y="290"/>
      <point x="56" y="302" type="qcurve"/>
      <point x="56" y="376" type="line"/>
      <point x="130" y="387"/>
      <point x="176" y="429"/>
    </contour>
  </outline>
</glyph>
<glyph name="bar" format="1">
  <advance width="280"/>
  <unicode hex="007C"/>
  <outline>
    <contour>
      <point x="177" y="-81" type="line"/>
      <point x="103" y="-81" type="line"/>
      <point x="103" y="753" type="line"/>
      <point x="177" y="753" type="line"/>
    </contour>
  </outline>
</glyph>
<glyph name="braceright" format="1">
  <advance width="417"/>
  <unicode hex="007D"/>
  <outline>
    <contour>
      <point x="241" y="186" type="qcurve" smooth="yes"/>
      <point x="241" y="77" type="line" smooth="yes"/>
      <point x="241" y="-124"/>
      <point x="84" y="-124" type="qcurve"/>
      <point x="34" y="-122" type="line"/>
      <point x="38" y="-56" type="line"/>
      <point x="78" y="-59"/>
      <point x="96" y="-59" type="qcurve" smooth="yes"/>
      <point x="130" y="-59"/>
      <point x="158" y="-7"/>
      <point x="158" y="77" type="qcurve" smooth="yes"/>
      <point x="158" y="182" type="line" smooth="yes"/>
      <point x="158" y="228"/>
      <point x="182" y="294"/>
      <point x="200" y="308" type="qcurve" smooth="yes"/>
      <point x="232" y="333"/>
      <point x="252" y="335" type="qcurve"/>
      <point x="252" y="341" type="line"/>
      <point x="251" y="341" type="line" smooth="yes"/>
      <point x="231" y="343"/>
      <point x="199" y="368" type="qcurve" smooth="yes"/>
      <point x="181" y="383"/>
      <point x="158" y="447"/>
      <point x="158" y="492" type="qcurve" smooth="yes"/>
      <point x="158" y="589" type="line" smooth="yes"/>
      <point x="158" y="670"/>
      <point x="132" y="719"/>
      <point x="98" y="719" type="qcurve" smooth="yes"/>
      <point x="38" y="716" type="line"/>
      <point x="34" y="781" type="line"/>
      <point x="65" y="784"/>
      <point x="87" y="784" type="qcurve" smooth="yes"/>
      <point x="241" y="784"/>
      <point x="241" y="591" type="qcurve" smooth="yes"/>
      <point x="241" y="493" type="line" smooth="yes"/>
      <point x="241" y="429"/>
      <point x="287" y="387"/>
      <point x="361" y="376" type="qcurve"/>
      <point x="361" y="302" type="line"/>
      <point x="285" y="290"/>
      <point x="241" y="251"/>
    </contour>
  </outline>
</glyph>
<glyph name="asciitilde" format="1">
  <advance width="524"/>
  <unicode hex="007E"/>
  <outline>
    <contour>
      <point x="380" y="215" type="qcurve" smooth="yes"/>
      <point x="358" y="215"/>
      <point x="171" y="289"/>
      <point x="109" y="289"/>
      <point x="57" y="247" type="qcurve"/>
      <point x="27" y="289" type="line"/>
      <point x="97" y="363"/>
      <point x="145" y="363" type="qcurve" smooth="yes"/>
      <point x="182" y="363"/>
      <point x="358" y="290"/>
      <point x="416" y="290"/>
      <point x="464" y="319" type="qcurve"/>
      <point x="490" y="278" type="line"/>
      <point x="443" y="215"/>
    </contour>
  </outline>
</glyph>
<glyph name="exclamdown" format="1">
  <advance width="268"/>
  <unicode hex="00A1"/>
  <outline>
    <contour>
      <point x="103" y="393" type="line"/>
      <point x="168" y="393" type="line"/>
      <point x="182" y="-112" type="line"/>
      <point x="89" y="-112" type="line"/>
    </contour>
    <contour>
      <point x="80" y="493" type="line"/>
      <point x="80" y="582" type="line"/>
      <point x="188" y="582" type="line"/>
      <point x="188" y="493" type="line"/>
    </contour>
  </outline>
</glyph>
<glyph name="cent" format="1">
  <advance width="518"/>
  <unicode hex="00A2"/>
  <outline>
    <contour>
      <point x="305" y="522" type="qcurve" smooth="yes"/>
      <point x="229" y="522"/>
      <point x="203" y="496" type="qcurve" smooth="yes"/>
      <point x="183" y="474"/>
      <point x="157" y="361"/>
      <point x="157" y="287" type="qcurve" smooth="yes"/>
      <point x="157" y="119"/>
      <point x="221" y="75" type="qcurve" smooth="yes"/>
      <point x="243" y="59"/>
      <point x="316" y="59"/>
      <point x="401" y="82"/>
      <point x="451" y="105" type="qcurve"/>
      <point x="477" y="40" type="line"/>
      <point x="424" y="0"/>
      <point x="342" y="-10" type="qcurve"/>
      <point x="342" y="-118" type="line"/>
      <point x="269" y="-118" type="line"/>
      <point x="269" y="-11" type="line"/>
      <point x="175" y="-2"/>
      <point x="70" y="148"/>
      <point x="70" y="293" type="qcurve" smooth="yes"/>
      <point x="70" y="564"/>
      <point x="269" y="592" type="qcurve"/>
      <point x="269" y="694" type="line"/>
      <point x="342" y="694" type="line"/>
      <point x="342" y="595" type="line"/>
      <point x="409" y="592"/>
      <point x="463" y="579" type="qcurve"/>
      <point x="453" y="509" type="line"/>
      <point x="345" y="522"/>
    </contour>
  </outline>
</glyph>
<glyph name="sterling" format="1">
  <advance width="557"/>
  <unicode hex="00A3"/>
  <outline>
    <contour>
      <point x="72" y="346" type="line"/>
      <point x="72" y="411" type="line"/>
      <point x="160" y="411" type="line"/>
      <point x="162" y="575"/>
      <point x="281" y="708"/>
      <point x="383" y="708" type="qcurve" smooth="yes"/>
      <point x="447" y="708"/>
      <point x="503" y="692" type="qcurve"/>
      <point x="494" y="622" type="line"/>
      <point x="411" y="635"/>
      <point x="372" y="635" type="qcurve" smooth="yes"/>
      <point x="306" y="635"/>
      <point x="284" y="609" type="qcurve" smooth="yes"/>
      <point x="247" y="564"/>
      <point x="244" y="411" type="qcurve"/>
      <point x="424" y="411" type="line"/>
      <point x="424" y="346" type="line"/>
      <point x="244" y="346" type="line"/>
      <point x="244" y="75" type="line"/>
      <point x="488" y="77" type="line"/>
      <point x="488" y="0" type="line"/>
      <point x="72" y="0" type="line"/>
      <point x="72" y="74" type="line"/>
      <point x="160" y="74" type="line"/>
      <point x="160" y="346" type="line"/>
    </contour>
  </outline>
</glyph>
<glyph name="currency" format="1">
  <advance width="649"/>
  <unicode hex="00A4"/>
  <outline>
    <contour>
      <point x="191" y="544" type="line"/>
      <point x="256" y="586"/>
      <point x="401" y="586"/>
      <point x="463" y="546" type="qcurve"/>
      <point x="521" y="603" type="line"/>
      <point x="577" y="548" type="line"/>
      <point x="520" y="492" type="line"/>
      <point x="565" y="431"/>
      <point x="565" y="272"/>
      <point x="523" y="211" type="qcurve"/>
      <point x="580" y="154" type="line"/>
      <point x="524" y="100" type="line"/>
      <point x="467" y="155" type="line"/>
      <point x="402" y="113"/>
      <point x="253" y="113"/>
      <point x="186" y="158" type="qcurve"/>
      <point x="129" y="101" type="line"/>
      <point x="75" y="157" type="line"/>
      <point x="132" y="214" type="line"/>
      <point x="92" y="273"/>
      <point x="92" y="428"/>
      <point x="134" y="489" type="qcurve"/>
      <point x="78" y="546" type="line"/>
      <point x="133" y="602" type="line"/>
    </contour>
    <contour>
      <point x="256" y="512"/>
      <point x="172" y="433"/>
      <point x="172" y="266"/>
      <point x="256" y="187"/>
      <point x="411" y="187"/>
      <point x="485" y="263"/>
      <point x="485" y="433"/>
      <point x="402" y="512"/>
    </contour>
  </outline>
</glyph>
<glyph name="brokenbar" format="1">
  <advance width="280"/>
  <unicode hex="00A6"/>
  <outline>
    <contour>
      <point x="177" y="403" type="line"/>
      <point x="103" y="403" type="line"/>
      <point x="103" y="753" type="line"/>
      <point x="177" y="753" type="line"/>
    </contour>
    <contour>
      <point x="177" y="-81" type="line"/>
      <point x="103" y="-81" type="line"/>
      <point x="103" y="269" type="line"/>
      <point x="177" y="269" type="line"/>
    </contour>
  </outline>
</glyph>
<glyph name="section" format="1">
  <advance width="521"/>
  <unicode hex="00A7"/>
  <outline>
    <contour>
      <point x="470" y="302" type="qcurve" smooth="yes"/>
      <point x="470" y="234"/>
      <point x="402" y="170" type="qcurve"/>
      <point x="439" y="133"/>
      <point x="439" y="-2"/>
      <point x="340" y="-93"/>
      <point x="259" y="-93" type="qcurve" smooth="yes"/>
      <point x="209" y="-93"/>
      <point x="109" y="-69"/>
      <point x="84" y="-57" type="qcurve" smooth="yes"/>
      <point x="60" y="-45" type="line"/>
      <point x="81" y="26" type="line"/>
      <point x="175" y="-21"/>
      <point x="261" y="-21" type="qcurve" smooth="yes"/>
      <point x="312" y="-21"/>
      <point x="332" y="-6" type="qcurve" smooth="yes"/>
      <point x="361" y="14"/>
      <point x="361" y="70" type="qcurve" smooth="yes"/>
      <point x="361" y="107"/>
      <point x="299" y="151"/>
      <point x="210" y="175"/>
      <point x="121" y="204"/>
      <point x="59" y="273"/>
      <point x="59" y="328" type="qcurve" smooth="yes"/>
      <point x="59" y="398"/>
      <point x="121" y="447" type="qcurve"/>
      <point x="79" y="486"/>
      <point x="79" y="624"/>
      <point x="163" y="708"/>
      <point x="335" y="708"/>
      <point x="407" y="685" type="qcurve"/>
      <point x="394" y="615" type="line"/>
      <point x="322" y="637"/>
      <point x="238" y="637" type="qcurve" smooth="yes"/>
      <point x="194" y="637"/>
      <point x="157" y="606"/>
      <point x="157" y="524"/>
      <point x="221" y="476"/>
      <point x="314" y="449"/>
      <point x="406" y="418"/>
      <point x="470" y="353"/>
    </contour>
    <contour>
      <point x="343" y="208" type="qcurve"/>
      <point x="394" y="259"/>
      <point x="394" y="326"/>
      <point x="333" y="362"/>
      <point x="207" y="397"/>
      <point x="178" y="410" type="qcurve"/>
      <point x="137" y="374"/>
      <point x="137" y="326" type="qcurve" smooth="yes"/>
      <point x="137" y="298"/>
      <point x="179" y="260"/>
      <point x="231" y="244"/>
      <point x="318" y="219"/>
    </contour>
  </outline>
</glyph>
<glyph name="dieresis" format="1">
  <advance width="555"/>
  <unicode hex="00A8"/>
  <outline>
    <contour>
      <point x="234" y="684" type="line"/>
      <point x="135" y="684" type="line"/>
      <point x="135" y="766" type="line"/>
      <point x="234" y="766" type="line"/>
    </contour>
    <contour>
      <point x="420" y="684" type="line"/>
      <point x="322" y="684" type="line"/>
      <point x="322" y="766" type="line"/>
      <point x="420" y="766" type="line"/>
    </contour>
  </outline>
</glyph>
<glyph name="copyright" format="1">
  <advance width="836"/>
  <unicode hex="00A9"/>
  <outline>
    <contour>
      <point x="512" y="460" type="line"/>
      <point x="456" y="468"/>
      <point x="367" y="468"/>
      <point x="355" y="453" type="qcurve" smooth="yes"/>
      <point x="327" y="421"/>
      <point x="327" y="215"/>
      <point x="358" y="188" type="qcurve" smooth="yes"/>
      <point x="371" y="175"/>
      <point x="399" y="175" type="qcurve" smooth="yes"/>
      <point x="454" y="175"/>
      <point x="502" y="195" type="qcurve" smooth="yes"/>
      <point x="518" y="202" type="line"/>
      <point x="536" y="141" type="line"/>
      <point x="484" y="104"/>
      <point x="335" y="104"/>
      <point x="248" y="207"/>
      <point x="248" y="316" type="qcurve" smooth="yes"/>
      <point x="248" y="449"/>
      <point x="299" y="496" type="qcurve" smooth="yes"/>
      <point x="344" y="537"/>
      <point x="484" y="537"/>
      <point x="517" y="525" type="qcurve"/>
    </contour>
    <contour>
      <point x="72" y="169"/>
      <point x="72" y="473"/>
      <point x="271" y="671"/>
      <point x="569" y="671"/>
      <point x="764" y="474"/>
      <point x="764" y="170"/>
      <point x="569" y="-27"/>
      <point x="265" y="-27"/>
    </contour>
    <contour>
      <point x="144" y="450"/>
      <point x="144" y="192"/>
      <point x="289" y="43"/>
      <point x="546" y="43"/>
      <point x="692" y="193"/>
      <point x="692" y="451"/>
      <point x="546" y="601"/>
      <point x="294" y="601"/>
    </contour>
  </outline>
</glyph>
<glyph name="ordfeminine" format="1">
  <advance width="424"/>
  <unicode hex="00AA"/>
  <outline>
    <contour>
      <point x="208" y="546" type="qcurve" smooth="yes"/>
      <point x="278" y="546" type="line"/>
      <point x="278" y="605"/>
      <point x="255" y="640"/>
      <point x="220" y="640" type="qcurve" smooth="yes"/>
      <point x="155" y="640"/>
      <point x="97" y="614" type="qcurve" smooth="yes"/>
      <point x="77" y="605" type="line"/>
      <point x="59" y="663" type="line"/>
      <point x="144" y="702"/>
      <point x="284" y="702"/>
      <point x="346" y="630"/>
      <point x="346" y="557" type="qcurve" smooth="yes"/>
      <point x="346" y="298" type="line"/>
      <point x="300" y="298" type="line"/>
      <point x="290" y="336" type="line"/>
      <point x="286" y="336" type="line"/>
      <point x="220" y="289"/>
      <point x="164" y="289" type="qcurve" smooth="yes"/>
      <point x="50" y="289"/>
      <point x="50" y="422" type="qcurve" smooth="yes"/>
      <point x="50" y="546"/>
    </contour>
    <contour>
      <point x="278" y="483" type="line"/>
      <point x="251" y="486"/>
      <point x="154" y="486"/>
      <point x="141" y="473" type="qcurve" smooth="yes"/>
      <point x="121" y="456"/>
      <point x="121" y="381"/>
      <point x="148" y="352"/>
      <point x="172" y="352" type="qcurve" smooth="yes"/>
      <point x="214" y="352"/>
      <point x="262" y="378" type="qcurve" smooth="yes"/>
      <point x="278" y="386" type="line"/>
    </contour>
  </outline>
</glyph>
<glyph name="logicalnot" format="1">
  <advance width="587"/>
  <unicode hex="00AC"/>
  <outline>
    <contour>
      <point x="543" y="117" type="line"/>
      <point x="470" y="117" type="line"/>
      <point x="470" y="257" type="line"/>
      <point x="28" y="257" type="line"/>
      <point x="28" y="330" type="line"/>
      <point x="543" y="330" type="line"/>
    </contour>
  </outline>
</glyph>
<glyph name="uni00AD" format="1">
  <advance width="389"/>
  <unicode hex="00AD"/>
  <outline>
    <contour>
      <point x="80" y="258" type="line"/>
      <point x="80" y="329" type="line"/>
      <point x="309" y="329" type="line"/>
      <point x="309" y="258" type="line"/>
    </contour>
  </outline>
</glyph>
<glyph name="registered" format="1">
  <advance width="836"/>
  <unicode hex="00AE"/>
  <outline>
    <contour>
      <point x="72" y="169"/>
      <point x="72" y="473"/>
      <point x="271" y="671"/>
      <point x="569" y="671"/>
      <point x="764" y="474"/>
      <point x="764" y="170"/>
      <point x="569" y="-27"/>
      <point x="265" y="-27"/>
    </contour>
    <contour>
      <point x="144" y="450"/>
      <point x="144" y="192"/>
      <point x="289" y="43"/>
      <point x="546" y="43"/>
      <point x="692" y="193"/>
      <point x="692" y="451"/>
      <point x="546" y="601"/>
      <point x="294" y="601"/>
    </contour>
    <contour>
      <point x="353" y="118" type="line"/>
      <point x="281" y="118" type="line"/>
      <point x="284" y="311" type="line"/>
      <point x="282" y="524" type="line"/>
      <point x="358" y="532"/>
      <point x="426" y="532" type="qcurve" smooth="yes"/>
      <point x="564" y="532"/>
      <point x="564" y="402" type="qcurve" smooth="yes"/>
      <point x="564" y="348"/>
      <point x="517" y="284"/>
      <point x="485" y="276" type="qcurve"/>
      <point x="485" y="273" type="line"/>
      <point x="565" y="118" type="line"/>
      <point x="484" y="118" type="line"/>
      <point x="413" y="267" type="line"/>
      <point x="353" y="268" type="line"/>
    </contour>
    <contour>
      <point x="352" y="335" type="line"/>
      <point x="384" y="331"/>
      <point x="463" y="331"/>
      <point x="489" y="364"/>
      <point x="489" y="440"/>
      <point x="464" y="469"/>
      <point x="427" y="469" type="qcurve" smooth="yes"/>
      <point x="354" y="464" type="line"/>
    </contour>
  </outline>
</glyph>
<glyph name="macron" format="1">
  <advance width="564"/>
  <unicode hex="00AF"/>
  <outline>
    <contour>
      <point x="145" y="693" type="line"/>
      <point x="145" y="753" type="line"/>
      <point x="425" y="753" type="line"/>
      <point x="425" y="693" type="line"/>
    </contour>
  </outline>
</glyph>
<glyph name="degree" format="1">
  <advance width="347"/>
  <unicode hex="00B0"/>
  <outline>
    <contour>
      <point x="237" y="707"/>
      <point x="324" y="634"/>
      <point x="324" y="481"/>
      <point x="236" y="407"/>
      <point x="111" y="407"/>
      <point x="23" y="481"/>
      <point x="23" y="634"/>
      <point x="111" y="707"/>
    </contour>
    <contour>
      <point x="94" y="640"/>
      <point x="94" y="474"/>
      <point x="253" y="474"/>
      <point x="253" y="640"/>
    </contour>
  </outline>
</glyph>
<glyph name="twosuperior" format="1">
  <advance width="370"/>
  <unicode hex="00B2"/>
  <outline>
    <contour>
      <point x="142" y="703"/>
      <point x="232" y="703"/>
      <point x="298" y="650"/>
      <point x="298" y="550"/>
      <point x="234" y="465" type="qcurve"/>
      <point x="144" y="357" type="line"/>
      <point x="144" y="353" type="line"/>
      <point x="305" y="357" type="line"/>
      <point x="305" y="298" type="line"/>
      <point x="55" y="298" type="line"/>
      <point x="55" y="349" type="line"/>
      <point x="188" y="492"/>
      <point x="220" y="556" type="qcurve" smooth="yes"/>
      <point x="234" y="583"/>
      <point x="234" y="602" type="qcurve" smooth="yes"/>
      <point x="234" y="643"/>
      <point x="192" y="643" type="qcurve" smooth="yes"/>
      <point x="137" y="643"/>
      <point x="76" y="606" type="qcurve"/>
      <point x="50" y="658" type="line"/>
      <point x="68" y="673"/>
    </contour>
  </outline>
</glyph>
<glyph name="acute" format="1">
  <advance width="598"/>
  <unicode hex="00B4"/>
  <outline>
    <contour>
      <point x="397" y="802" type="line"/>
      <point x="428" y="735" type="line"/>
      <point x="195" y="657" type="line"/>
      <point x="175" y="707" type="line"/>
    </contour>
  </outline>
</glyph>
<glyph name="mu" format="1">
  <advance width="601"/>
  <unicode hex="00B5"/>
  <unicode hex="03BC"/>
  <outline>
    <contour>
      <point x="88" y="-166" type="line"/>
      <point x="88" y="582" type="line"/>
      <point x="172" y="582" type="line"/>
      <point x="172" y="225" type="line" smooth="yes"/>
      <point x="172" y="113"/>
      <point x="185" y="89" type="qcurve" smooth="yes"/>
      <point x="201" y="64"/>
      <point x="310" y="64"/>
      <point x="416" y="117" type="qcurve"/>
      <point x="416" y="582" type="line"/>
      <point x="500" y="582" type="line"/>
      <point x="500" y="0" type="line"/>
      <point x="444" y="0" type="line"/>
      <point x="434" y="56" type="line"/>
      <point x="428" y="56" type="line"/>
      <point x="311" y="-13"/>
      <point x="244" y="-13" type="qcurve" smooth="yes"/>
      <point x="200" y="-13"/>
      <point x="168" y="5" type="qcurve"/>
      <point x="164" y="2" type="line"/>
      <point x="172" y="-166" type="line"/>
    </contour>
  </outline>
</glyph>
<glyph name="paragraph" format="1">
  <advance width="658"/>
  <unicode hex="00B6"/>
  <outline>
    <contour>
      <point x="560" y="-154" type="line"/>
      <point x="476" y="-154" type="line"/>
      <point x="476" y="621" type="line"/>
      <point x="349" y="621" type="line"/>
      <point x="349" y="-154" type="line"/>
      <point x="265" y="-154" type="line"/>
      <point x="265" y="194" type="line"/>
      <point x="159" y="194"/>
      <point x="49" y="308"/>
      <point x="49" y="582"/>
      <point x="158" y="695"/>
      <point x="265" y="695" type="qcurve" smooth="yes"/>
      <point x="560" y="695" type="line"/>
    </contour>
  </outline>
</glyph>
<glyph name="periodcentered" format="1">
  <advance width="300"/>
  <unicode hex="00B7"/>
  <outline>
    <contour>
      <point x="154" y="387" type="qcurve" smooth="yes"/>
      <point x="177" y="387"/>
      <point x="210" y="361"/>
      <point x="210" y="302"/>
      <point x="177" y="274"/>
      <point x="130" y="274"/>
      <point x="97" y="302"/>
      <point x="97" y="331" type="qcurve" smooth="yes"/>
      <point x="97" y="387"/>
    </contour>
  </outline>
</glyph>
<glyph name="cedilla" format="1">
  <advance width="508"/>
  <unicode hex="00B8"/>
  <outline>
    <contour>
      <point x="362" y="10" type="line"/>
      <point x="381" y="-39"/>
      <point x="381" y="-125"/>
      <point x="320" y="-179"/>
      <point x="272" y="-179" type="qcurve" smooth="yes"/>
      <point x="244" y="-179"/>
      <point x="199" y="-170" type="qcurve"/>
      <point x="199" y="-108" type="line"/>
      <point x="243" y="-113"/>
      <point x="295" y="-113"/>
      <point x="317" y="-101"/>
      <point x="317" y="-47"/>
      <point x="303" y="6" type="qcurve"/>
    </contour>
  </outline>
</glyph>
<glyph name="onesuperior" format="1">
  <advance width="371"/>
  <unicode hex="00B9"/>
  <outline>
    <contour>
      <point x="64" y="298" type="line"/>
      <point x="64" y="356" type="line"/>
      <point x="165" y="356" type="line"/>
      <point x="165" y="636" type="line"/>
      <point x="161" y="636" type="line"/>
      <point x="75" y="563" type="line"/>
      <point x="39" y="609" type="line"/>
      <point x="161" y="702" type="line"/>
      <point x="233" y="697" type="line"/>
      <point x="233" y="356" type="line"/>
      <point x="321" y="356" type="line"/>
      <point x="321" y="298" type="line"/>
    </contour>
  </outline>
</glyph>
<glyph name="ordmasculine" format="1">
  <advance width="357"/>
  <unicode hex="00BA"/>
  <outline>
    <contour>
      <point x="94" y="702"/>
      <point x="263" y="702"/>
      <point x="334" y="597"/>
      <point x="334" y="394"/>
      <point x="263" y="289"/>
      <point x="94" y="289"/>
      <point x="23" y="394"/>
      <point x="23" y="597"/>
    </contour>
    <contour>
      <point x="129" y="641"/>
      <point x="93" y="584"/>
      <point x="93" y="407"/>
      <point x="130" y="350"/>
      <point x="227" y="350"/>
      <point x="265" y="407"/>
      <point x="265" y="584"/>
      <point x="227" y="641"/>
    </contour>
  </outline>
</glyph>
<glyph name="guillemotright" format="1">
  <advance width="460"/>
  <unicode hex="00BB"/>
  <outline>
    <contour>
      <point x="279" y="88" type="line"/>
      <point x="218" y="127" type="line"/>
      <point x="339" y="327" type="line"/>
      <point x="339" y="334" type="line"/>
      <point x="218" y="534" type="line"/>
      <point x="279" y="572" type="line"/>
      <point x="420" y="330" type="line"/>
    </contour>
    <contour>
      <point x="101" y="88" type="line"/>
      <point x="39" y="127" type="line"/>
      <point x="161" y="327" type="line"/>
      <point x="161" y="334" type="line"/>
      <point x="39" y="534" type="line"/>
      <point x="101" y="572" type="line"/>
      <point x="242" y="330" type="line"/>
    </contour>
  </outline>
</glyph>
<glyph name="onehalf" format="1">
  <advance width="909"/>
  <unicode hex="00BD"/>
  <outline>
    <contour>
      <point x="327" y="-9" type="line"/>
      <point x="252" y="-9" type="line"/>
      <point x="438" y="382" type="line"/>
      <point x="594" y="733" type="line"/>
      <point x="668" y="733" type="line"/>
      <point x="491" y="351" type="line"/>
    </contour>
    <contour>
      <point x="682" y="405"/>
      <point x="771" y="405"/>
      <point x="837" y="352"/>
      <point x="837" y="252"/>
      <point x="773" y="167" type="qcurve"/>
      <point x="683" y="59" type="line"/>
      <point x="683" y="55" type="line"/>
      <point x="844" y="59" type="line"/>
      <point x="844" y="0" type="line"/>
      <point x="594" y="0" type="line"/>
      <point x="594" y="51" type="line"/>
      <point x="727" y="194"/>
      <point x="760" y="258" type="qcurve" smooth="yes"/>
      <point x="773" y="285"/>
      <point x="773" y="304" type="qcurve" smooth="yes"/>
      <point x="773" y="345"/>
      <point x="731" y="345" type="qcurve" smooth="yes"/>
      <point x="676" y="345"/>
      <point x="615" y="308" type="qcurve"/>
      <point x="589" y="360" type="line"/>
      <point x="607" y="375"/>
    </contour>
    <contour>
      <point x="64" y="298" type="line"/>
      <point x="64" y="356" type="line"/>
      <point x="165" y="356" type="line"/>
      <point x="165" y="636" type="line"/>
      <point x="161" y="636" type="line"/>
      <point x="75" y="563" type="line"/>
      <point x="39" y="609" type="line"/>
      <point x="161" y="702" type="line"/>
      <point x="233" y="697" type="line"/>
      <point x="233" y="356" type="line"/>
      <point x="321" y="356" type="line"/>
      <point x="321" y="298" type="line"/>
    </contour>
  </outline>
</glyph>
<glyph name="threequarters" format="1">
  <advance width="857"/>
  <unicode hex="00BE"/>
  <outline>
    <contour>
      <point x="303" y="-9" type="line"/>
      <point x="228" y="-9" type="line"/>
      <point x="414" y="382" type="line"/>
      <point x="570" y="733" type="line"/>
      <point x="644" y="733" type="line"/>
      <point x="467" y="351" type="line"/>
    </contour>
    <contour>
      <point x="61" y="376" type="line"/>
      <point x="117" y="348"/>
      <point x="202" y="348"/>
      <point x="228" y="378"/>
      <point x="228" y="451"/>
      <point x="192" y="481"/>
      <point x="154" y="481" type="qcurve" smooth="yes"/>
      <point x="104" y="481" type="line"/>
      <point x="104" y="535" type="line"/>
      <point x="184" y="541"/>
      <point x="217" y="562"/>
      <point x="217" y="620"/>
      <point x="205" y="632" type="qcurve" smooth="yes"/>
      <point x="189" y="645"/>
      <point x="117" y="645"/>
      <point x="69" y="639" type="qcurve"/>
      <point x="64" y="694" type="line"/>
      <point x="111" y="703"/>
      <point x="156" y="703" type="qcurve" smooth="yes"/>
      <point x="283" y="703"/>
      <point x="283" y="601" type="qcurve" smooth="yes"/>
      <point x="283" y="568"/>
      <point x="254" y="525"/>
      <point x="228" y="514"/>
      <point x="218" y="513" type="qcurve"/>
      <point x="218" y="509" type="line"/>
      <point x="295" y="498"/>
      <point x="295" y="410" type="qcurve" smooth="yes"/>
      <point x="295" y="290"/>
      <point x="169" y="290" type="qcurve" smooth="yes"/>
      <point x="137" y="290"/>
      <point x="74" y="307"/>
      <point x="42" y="324" type="qcurve"/>
    </contour>
    <contour>
      <point x="763" y="293" type="line"/>
      <point x="763" y="141" type="line"/>
      <point x="800" y="142" type="line"/>
      <point x="800" y="82" type="line"/>
      <point x="763" y="82" type="line"/>
      <point x="763" y="0" type="line"/>
      <point x="698" y="0" type="line"/>
      <point x="700" y="82" type="line"/>
      <point x="522" y="82" type="line"/>
      <point x="522" y="134" type="line"/>
      <point x="617" y="406" type="line"/>
      <point x="678" y="399" type="line"/>
      <point x="584" y="140" type="line"/>
      <point x="584" y="136" type="line"/>
      <point x="700" y="141" type="line"/>
      <point x="711" y="293" type="line"/>
    </contour>
  </outline>
</glyph>
<glyph name="questiondown" format="1">
  <advance width="463"/>
  <unicode hex="00BF"/>
  <outline>
    <contour>
      <point x="432" y="-63" type="qcurve"/>
      <point x="405" y="-79" type="line" smooth="yes"/>
      <point x="378" y="-95"/>
      <point x="276" y="-126"/>
      <point x="229" y="-126" type="qcurve" smooth="yes"/>
      <point x="141" y="-126"/>
      <point x="30" y="-23"/>
      <point x="30" y="57" type="qcurve" smooth="yes"/>
      <point x="30" y="111"/>
      <point x="74" y="192"/>
      <point x="136" y="242"/>
      <point x="167" y="264" type="qcurve" smooth="yes"/>
      <point x="242" y="319"/>
      <point x="242" y="391" type="qcurve"/>
      <point x="313" y="391" type="line"/>
      <point x="313" y="382" type="line" smooth="yes"/>
      <point x="313" y="301"/>
      <point x="274" y="256" type="qcurve" smooth="yes"/>
      <point x="257" y="235"/>
      <point x="216" y="200"/>
      <point x="174" y="169"/>
      <point x="157" y="152" type="qcurve" smooth="yes"/>
      <point x="118" y="111"/>
      <point x="118" y="50" type="qcurve" smooth="yes"/>
      <point x="118" y="-9"/>
      <point x="157" y="-36" type="qcurve" smooth="yes"/>
      <point x="176" y="-49"/>
      <point x="257" y="-49"/>
      <point x="367" y="-15"/>
      <point x="401" y="5" type="qcurve"/>
      <point x="425" y="-49"/>
    </contour>
    <contour>
      <point x="223" y="493" type="line"/>
      <point x="223" y="582" type="line"/>
      <point x="331" y="582" type="line"/>
      <point x="331" y="493" type="line"/>
    </contour>
  </outline>
</glyph>
<glyph name="Agrave" format="1">
  <advance width="515"/>
  <unicode hex="00C0"/>
  <outline>
    <contour>
      <point x="94" y="0" type="line"/>
      <point x="5" y="0" type="line"/>
      <point x="201" y="695" type="line"/>
      <point x="306" y="695" type="line"/>
      <point x="502" y="0" type="line"/>
      <point x="412" y="0" type="line"/>
      <point x="364" y="186" type="line"/>
      <point x="143" y="186" type="line"/>
    </contour>
    <contour>
      <point x="348" y="256" type="line"/>
      <point x="256" y="627" type="line"/>
      <point x="250" y="627" type="line"/>
      <point x="158" y="256" type="line"/>
    </contour>
    <contour>
      <point x="122" y="797" type="line"/>
      <point x="148" y="868" type="line"/>
      <point x="374" y="787" type="line"/>
      <point x="354" y="736" type="line"/>
    </contour>
  </outline>
</glyph>
<glyph name="Aacute" format="1">
  <advance width="515"/>
  <unicode hex="00C1"/>
  <outline>
    <contour>
      <point x="94" y="0" type="line"/>
      <point x="5" y="0" type="line"/>
      <point x="201" y="695" type="line"/>
      <point x="306" y="695" type="line"/>
      <point x="502" y="0" type="line"/>
      <point x="412" y="0" type="line"/>
      <point x="364" y="186" type="line"/>
      <point x="143" y="186" type="line"/>
    </contour>
    <contour>
      <point x="348" y="256" type="line"/>
      <point x="256" y="627" type="line"/>
      <point x="250" y="627" type="line"/>
      <point x="158" y="256" type="line"/>
    </contour>
    <contour>
      <point x="365" y="869" type="line"/>
      <point x="393" y="796" type="line"/>
      <point x="158" y="736" type="line"/>
      <point x="140" y="787" type="line"/>
    </contour>
  </outline>
</glyph>
<glyph name="Acircumflex" format="1">
  <advance width="515"/>
  <unicode hex="00C2"/>
  <outline>
    <contour>
      <point x="94" y="0" type="line"/>
      <point x="5" y="0" type="line"/>
      <point x="201" y="695" type="line"/>
      <point x="306" y="695" type="line"/>
      <point x="502" y="0" type="line"/>
      <point x="412" y="0" type="line"/>
      <point x="364" y="186" type="line"/>
      <point x="143" y="186" type="line"/>
    </contour>
    <contour>
      <point x="348" y="256" type="line"/>
      <point x="256" y="627" type="line"/>
      <point x="250" y="627" type="line"/>
      <point x="158" y="256" type="line"/>
    </contour>
    <contour>
      <point x="399" y="771" type="line"/>
      <point x="371" y="733" type="line"/>
      <point x="256" y="794" type="line"/>
      <point x="249" y="794" type="line"/>
      <point x="134" y="733" type="line"/>
      <point x="106" y="771" type="line"/>
      <point x="227" y="866" type="line"/>
      <point x="278" y="866" type="line"/>
    </contour>
  </outline>
</glyph>
<glyph name="Atilde" format="1">
  <advance width="515"/>
  <unicode hex="00C3"/>
  <outline>
    <contour>
      <point x="94" y="0" type="line"/>
      <point x="5" y="0" type="line"/>
      <point x="201" y="695" type="line"/>
      <point x="306" y="695" type="line"/>
      <point x="502" y="0" type="line"/>
      <point x="412" y="0" type="line"/>
      <point x="364" y="186" type="line"/>
      <point x="143" y="186" type="line"/>
    </contour>
    <contour>
      <point x="348" y="256" type="line"/>
      <point x="256" y="627" type="line"/>
      <point x="250" y="627" type="line"/>
      <point x="158" y="256" type="line"/>
    </contour>
    <contour>
      <point x="83" y="756" type="line"/>
      <point x="83" y="857"/>
      <point x="151" y="857" type="qcurve" smooth="yes"/>
      <point x="182" y="857"/>
      <point x="343" y="811"/>
      <point x="350" y="811" type="qcurve" smooth="yes"/>
      <point x="362" y="811"/>
      <point x="376" y="854" type="qcurve"/>
      <point x="429" y="847" type="line"/>
      <point x="429" y="793"/>
      <point x="393" y="746"/>
      <point x="332" y="746"/>
      <point x="168" y="794"/>
      <point x="162" y="794" type="qcurve" smooth="yes"/>
      <point x="151" y="794"/>
      <point x="135" y="750" type="qcurve"/>
    </contour>
  </outline>
</glyph>
<glyph name="Adieresis" format="1">
  <advance width="515"/>
  <unicode hex="00C4"/>
  <outline>
    <contour>
      <point x="94" y="0" type="line"/>
      <point x="5" y="0" type="line"/>
      <point x="201" y="695" type="line"/>
      <point x="306" y="695" type="line"/>
      <point x="502" y="0" type="line"/>
      <point x="412" y="0" type="line"/>
      <point x="364" y="186" type="line"/>
      <point x="143" y="186" type="line"/>
    </contour>
    <contour>
      <point x="348" y="256" type="line"/>
      <point x="256" y="627" type="line"/>
      <point x="250" y="627" type="line"/>
      <point x="158" y="256" type="line"/>
    </contour>
    <contour>
      <point x="211" y="762" type="line"/>
      <point x="112" y="762" type="line"/>
      <point x="112" y="844" type="line"/>
      <point x="211" y="844" type="line"/>
    </contour>
    <contour>
      <point x="397" y="762" type="line"/>
      <point x="299" y="762" type="line"/>
      <point x="299" y="844" type="line"/>
      <point x="397" y="844" type="line"/>
    </contour>
  </outline>
</glyph>
<glyph name="Aring" format="1">
  <advance width="515"/>
  <unicode hex="00C5"/>
  <outline>
    <contour>
      <point x="94" y="0" type="line"/>
      <point x="5" y="0" type="line"/>
      <point x="201" y="695" type="line"/>
      <point x="306" y="695" type="line"/>
      <point x="502" y="0" type="line"/>
      <point x="412" y="0" type="line"/>
      <point x="364" y="186" type="line"/>
      <point x="143" y="186" type="line"/>
    </contour>
    <contour>
      <point x="348" y="256" type="line"/>
      <point x="256" y="627" type="line"/>
      <point x="250" y="627" type="line"/>
      <point x="158" y="256" type="line"/>
    </contour>
    <contour>
      <point x="289" y="887"/>
      <point x="337" y="848"/>
      <point x="337" y="761"/>
      <point x="289" y="722"/>
      <point x="217" y="722"/>
      <point x="169" y="761"/>
      <point x="169" y="848"/>
      <point x="217" y="887"/>
    </contour>
    <contour>
      <point x="234" y="841"/>
      <point x="217" y="826"/>
      <point x="217" y="783"/>
      <point x="234" y="768"/>
      <point x="272" y="768"/>
      <point x="287" y="782"/>
      <point x="287" y="826"/>
      <point x="272" y="841"/>
    </contour>
  </outline>
</glyph>
<glyph name="AE" format="1">
  <advance width="765"/>
  <unicode hex="00C6"/>
  <outline>
    <contour>
      <point x="356" y="0" type="line"/>
      <point x="356" y="183" type="line"/>
      <point x="164" y="183" type="line"/>
      <point x="86" y="0" type="line"/>
      <point x="-3" y="0" type="line"/>
      <point x="296" y="695" type="line"/>
      <point x="697" y="695" type="line"/>
      <point x="697" y="619" type="line"/>
      <point x="439" y="622" type="line"/>
      <point x="435" y="389" type="line"/>
      <point x="673" y="389" type="line"/>
      <point x="673" y="318" type="line"/>
      <point x="435" y="318" type="line"/>
      <point x="439" y="73" type="line"/>
      <point x="697" y="75" type="line"/>
      <point x="697" y="0" type="line"/>
    </contour>
    <contour>
      <point x="356" y="256" type="line"/>
      <point x="356" y="627" type="line"/>
      <point x="338" y="627" type="line"/>
      <point x="185" y="256" type="line"/>
    </contour>
  </outline>
</glyph>
<glyph name="Ccedilla" format="1">
  <advance width="583"/>
  <unicode hex="00C7"/>
  <outline>
    <contour>
      <point x="336" y="632" type="qcurve" smooth="yes"/>
      <point x="236" y="632"/>
      <point x="214" y="605" type="qcurve" smooth="yes"/>
      <point x="163" y="543"/>
      <point x="163" y="337" type="qcurve" smooth="yes"/>
      <point x="163" y="239"/>
      <point x="200" y="106"/>
      <point x="249" y="58"/>
      <point x="347" y="58"/>
      <point x="444" y="86"/>
      <point x="470" y="100" type="qcurve" smooth="yes"/>
      <point x="497" y="114" type="line"/>
      <point x="526" y="48" type="line"/>
      <point x="470" y="8"/>
      <point x="381" y="-7" type="qcurve"/>
      <point x="394" y="-50"/>
      <point x="394" y="-79" type="qcurve" smooth="yes"/>
      <point x="394" y="-125"/>
      <point x="333" y="-179"/>
      <point x="285" y="-179" type="qcurve" smooth="yes"/>
      <point x="257" y="-179"/>
      <point x="212" y="-170" type="qcurve"/>
      <point x="212" y="-108" type="line"/>
      <point x="256" y="-113"/>
      <point x="308" y="-113"/>
      <point x="330" y="-101"/>
      <point x="330" y="-45"/>
      <point x="322" y="-13" type="qcurve"/>
      <point x="312" y="-13" type="line" smooth="yes"/>
      <point x="72" y="-13"/>
      <point x="72" y="340" type="qcurve" smooth="yes"/>
      <point x="72" y="590"/>
      <point x="176" y="666" type="qcurve" smooth="yes"/>
      <point x="209" y="690"/>
      <point x="282" y="708"/>
      <point x="431" y="708"/>
      <point x="497" y="692" type="qcurve"/>
      <point x="487" y="620" type="line"/>
      <point x="395" y="632"/>
    </contour>
  </outline>
</glyph>
<glyph name="Egrave" format="1">
  <advance width="514"/>
  <unicode hex="00C8"/>
  <outline>
    <contour>
      <point x="105" y="0" type="line"/>
      <point x="105" y="695" type="line"/>
      <point x="446" y="695" type="line"/>
      <point x="446" y="620" type="line"/>
      <point x="189" y="623" type="line"/>
      <point x="184" y="389" type="line"/>
      <point x="422" y="389" type="line"/>
      <point x="422" y="318" type="line"/>
      <point x="184" y="318" type="line"/>
      <point x="189" y="73" type="line"/>
      <point x="446" y="75" type="line"/>
      <point x="446" y="0" type="line"/>
    </contour>
    <contour>
      <point x="144" y="797" type="line"/>
      <point x="170" y="868" type="line"/>
      <point x="396" y="787" type="line"/>
      <point x="376" y="736" type="line"/>
    </contour>
  </outline>
</glyph>
<glyph name="Eacute" format="1">
  <advance width="514"/>
  <unicode hex="00C9"/>
  <outline>
    <contour>
      <point x="105" y="0" type="line"/>
      <point x="105" y="695" type="line"/>
      <point x="446" y="695" type="line"/>
      <point x="446" y="620" type="line"/>
      <point x="189" y="623" type="line"/>
      <point x="184" y="389" type="line"/>
      <point x="422" y="389" type="line"/>
      <point x="422" y="318" type="line"/>
      <point x="184" y="318" type="line"/>
      <point x="189" y="73" type="line"/>
      <point x="446" y="75" type="line"/>
      <point x="446" y="0" type="line"/>
    </contour>
    <contour>
      <point x="404" y="869" type="line"/>
      <point x="432" y="796" type="line"/>
      <point x="197" y="736" type="line"/>
      <point x="179" y="787" type="line"/>
    </contour>
  </outline>
</glyph>
<glyph name="Ecircumflex" format="1">
  <advance width="514"/>
  <unicode hex="00CA"/>
  <outline>
    <contour>
      <point x="105" y="0" type="line"/>
      <point x="105" y="695" type="line"/>
      <point x="446" y="695" type="line"/>
      <point x="446" y="620" type="line"/>
      <point x="189" y="623" type="line"/>
      <point x="184" y="389" type="line"/>
      <point x="422" y="389" type="line"/>
      <point x="422" y="318" type="line"/>
      <point x="184" y="318" type="line"/>
      <point x="189" y="73" type="line"/>
      <point x="446" y="75" type="line"/>
      <point x="446" y="0" type="line"/>
    </contour>
    <contour>
      <point x="427" y="771" type="line"/>
      <point x="399" y="733" type="line"/>
      <point x="284" y="794" type="line"/>
      <point x="277" y="794" type="line"/>
      <point x="162" y="733" type="line"/>
      <point x="134" y="771" type="line"/>
      <point x="255" y="866" type="line"/>
      <point x="306" y="866" type="line"/>
    </contour>
  </outline>
</glyph>
<glyph name="Edieresis" format="1">
  <advance width="514"/>
  <unicode hex="00CB"/>
  <outline>
    <contour>
      <point x="105" y="0" type="line"/>
      <point x="105" y="695" type="line"/>
      <point x="446" y="695" type="line"/>
      <point x="446" y="620" type="line"/>
      <point x="189" y="623" type="line"/>
      <point x="184" y="389" type="line"/>
      <point x="422" y="389" type="line"/>
      <point x="422" y="318" type="line"/>
      <point x="184" y="318" type="line"/>
      <point x="189" y="73" type="line"/>
      <point x="446" y="75" type="line"/>
      <point x="446" y="0" type="line"/>
    </contour>
    <contour>
      <point x="236" y="762" type="line"/>
      <point x="137" y="762" type="line"/>
      <point x="137" y="844" type="line"/>
      <point x="236" y="844" type="line"/>
    </contour>
    <contour>
      <point x="422" y="762" type="line"/>
      <point x="324" y="762" type="line"/>
      <point x="324" y="844" type="line"/>
      <point x="422" y="844" type="line"/>
    </contour>
  </outline>
</glyph>
<glyph name="Igrave" format="1">
  <advance width="295"/>
  <unicode hex="00CC"/>
  <outline>
    <contour>
      <point x="7" y="795" type="line"/>
      <point x="33" y="868" type="line"/>
      <point x="247" y="789" type="line"/>
      <point x="227" y="736" type="line"/>
    </contour>
    <contour>
      <point x="185" y="388" type="line"/>
      <point x="190" y="0" type="line"/>
      <point x="105" y="-1" type="line"/>
      <point x="109" y="318" type="line"/>
      <point x="105" y="695" type="line"/>
      <point x="190" y="695" type="line"/>
    </contour>
  </outline>
</glyph>
<glyph name="Iacute" format="1">
  <advance width="295"/>
  <unicode hex="00CD"/>
  <outline>
    <contour>
      <point x="264" y="869" type="line"/>
      <point x="292" y="794" type="line"/>
      <point x="71" y="736" type="line"/>
      <point x="53" y="789" type="line"/>
    </contour>
    <contour>
      <point x="185" y="388" type="line"/>
      <point x="190" y="0" type="line"/>
      <point x="105" y="-1" type="line"/>
      <point x="109" y="318" type="line"/>
      <point x="105" y="695" type="line"/>
      <point x="190" y="695" type="line"/>
    </contour>
  </outline>
</glyph>
<glyph name="Icircumflex" format="1">
  <advance width="295"/>
  <unicode hex="00CE"/>
  <outline>
    <contour>
      <point x="287" y="773" type="line"/>
      <point x="261" y="733" type="line"/>
      <point x="151" y="794" type="line"/>
      <point x="144" y="794" type="line"/>
      <point x="34" y="733" type="line"/>
      <point x="8" y="773" type="line"/>
      <point x="122" y="866" type="line"/>
      <point x="173" y="866" type="line"/>
    </contour>
    <contour>
      <point x="185" y="388" type="line"/>
      <point x="190" y="0" type="line"/>
      <point x="105" y="-1" type="line"/>
      <point x="109" y="318" type="line"/>
      <point x="105" y="695" type="line"/>
      <point x="190" y="695" type="line"/>
    </contour>
  </outline>
</glyph>
<glyph name="Idieresis" format="1">
  <advance width="295"/>
  <unicode hex="00CF"/>
  <outline>
    <contour>
      <point x="116" y="762" type="line"/>
      <point x="17" y="762" type="line"/>
      <point x="17" y="844" type="line"/>
      <point x="116" y="844" type="line"/>
    </contour>
    <contour>
      <point x="278" y="762" type="line"/>
      <point x="180" y="762" type="line"/>
      <point x="180" y="844" type="line"/>
      <point x="278" y="844" type="line"/>
    </contour>
    <contour>
      <point x="185" y="388" type="line"/>
      <point x="190" y="0" type="line"/>
      <point x="105" y="-1" type="line"/>
      <point x="109" y="318" type="line"/>
      <point x="105" y="695" type="line"/>
      <point x="190" y="695" type="line"/>
    </contour>
  </outline>
</glyph>
<glyph name="Eth" format="1">
  <advance width="643"/>
  <unicode hex="00D0"/>
  <outline>
    <contour>
      <point x="52" y="321" type="line"/>
      <point x="52" y="391" type="line"/>
      <point x="118" y="391" type="line"/>
      <point x="118" y="696" type="line"/>
      <point x="249" y="708"/>
      <point x="385" y="708"/>
      <point x="474" y="670"/>
      <point x="527" y="607"/>
      <point x="544" y="560" type="qcurve" smooth="yes"/>
      <point x="571" y="482"/>
      <point x="571" y="356" type="qcurve" smooth="yes"/>
      <point x="571" y="-13"/>
      <point x="314" y="-13" type="qcurve" smooth="yes"/>
      <point x="280" y="-13"/>
      <point x="118" y="0" type="qcurve"/>
      <point x="118" y="321" type="line"/>
    </contour>
    <contour>
      <point x="200" y="391" type="line"/>
      <point x="308" y="391" type="line"/>
      <point x="308" y="321" type="line"/>
      <point x="200" y="321" type="line"/>
      <point x="200" y="71" type="line"/>
      <point x="265" y="61"/>
      <point x="303" y="61" type="qcurve" smooth="yes"/>
      <point x="394" y="61"/>
      <point x="422" y="89" type="qcurve" smooth="yes"/>
      <point x="477" y="144"/>
      <point x="477" y="571"/>
      <point x="424" y="615" type="qcurve" smooth="yes"/>
      <point x="402" y="635"/>
      <point x="327" y="635" type="qcurve"/>
      <point x="200" y="628" type="line"/>
    </contour>
  </outline>
</glyph>
<glyph name="Ntilde" format="1">
  <advance width="677"/>
  <unicode hex="00D1"/>
  <outline>
    <contour>
      <point x="105" y="695" type="line"/>
      <point x="222" y="695" type="line"/>
      <point x="500" y="79" type="line"/>
      <point x="505" y="79" type="line"/>
      <point x="490" y="695" type="line"/>
      <point x="572" y="695" type="line"/>
      <point x="572" y="0" type="line"/>
      <point x="455" y="0" type="line"/>
      <point x="178" y="616" type="line"/>
      <point x="174" y="616" type="line"/>
      <point x="187" y="0" type="line"/>
      <point x="105" y="0" type="line"/>
    </contour>
    <contour>
      <point x="172" y="756" type="line"/>
      <point x="172" y="857"/>
      <point x="240" y="857" type="qcurve" smooth="yes"/>
      <point x="271" y="857"/>
      <point x="432" y="811"/>
      <point x="438" y="811" type="qcurve" smooth="yes"/>
      <point x="451" y="811"/>
      <point x="465" y="854" type="qcurve"/>
      <point x="518" y="847" type="line"/>
      <point x="518" y="793"/>
      <point x="482" y="746"/>
      <point x="421" y="746"/>
      <point x="257" y="794"/>
      <point x="251" y="794" type="qcurve" smooth="yes"/>
      <point x="240" y="794"/>
      <point x="224" y="750" type="qcurve"/>
    </contour>
  </outline>
</glyph>
<glyph name="Ocircumflex" format="1">
  <advance width="656"/>
  <unicode hex="00D4"/>
  <outline>
    <contour>
      <point x="271" y="-13"/>
      <point x="185" y="19"/>
      <point x="148" y="58" type="qcurve" smooth="yes"/>
      <point x="72" y="137"/>
      <point x="72" y="349" type="qcurve" smooth="yes"/>
      <point x="72" y="560"/>
      <point x="148" y="638" type="qcurve" smooth="yes"/>
      <point x="185" y="676"/>
      <point x="271" y="708"/>
      <point x="385" y="708"/>
      <point x="471" y="676"/>
      <point x="508" y="638" type="qcurve" smooth="yes"/>
      <point x="584" y="560"/>
      <point x="584" y="349" type="qcurve" smooth="yes"/>
      <point x="584" y="137"/>
      <point x="508" y="58" type="qcurve" smooth="yes"/>
      <point x="471" y="19"/>
      <point x="385" y="-13"/>
    </contour>
    <contour>
      <point x="180" y="141"/>
      <point x="225" y="82"/>
      <point x="281" y="64"/>
      <point x="391" y="64"/>
      <point x="424" y="82" type="qcurve" smooth="yes"/>
      <point x="495" y="121"/>
      <point x="495" y="346" type="qcurve" smooth="yes"/>
      <point x="495" y="573"/>
      <point x="425" y="613" type="qcurve" smooth="yes"/>
      <point x="392" y="632"/>
      <point x="264" y="632"/>
      <point x="198" y="594"/>
      <point x="162" y="469"/>
      <point x="162" y="253"/>
    </contour>
    <contour>
      <point x="481" y="771" type="line"/>
      <point x="453" y="733" type="line"/>
      <point x="338" y="794" type="line"/>
      <point x="331" y="794" type="line"/>
      <point x="216" y="733" type="line"/>
      <point x="188" y="771" type="line"/>
      <point x="309" y="866" type="line"/>
      <point x="360" y="866" type="line"/>
    </contour>
  </outline>
</glyph>
<glyph name="Otilde" format="1">
  <advance width="656"/>
  <unicode hex="00D5"/>
  <outline>
    <contour>
      <point x="271" y="-13"/>
      <point x="185" y="19"/>
      <point x="148" y="58" type="qcurve" smooth="yes"/>
      <point x="72" y="137"/>
      <point x="72" y="349" type="qcurve" smooth="yes"/>
      <point x="72" y="560"/>
      <point x="148" y="638" type="qcurve" smooth="yes"/>
      <point x="185" y="676"/>
      <point x="271" y="708"/>
      <point x="385" y="708"/>
      <point x="471" y="676"/>
      <point x="508" y="638" type="qcurve" smooth="yes"/>
      <point x="584" y="560"/>
      <point x="584" y="349" type="qcurve" smooth="yes"/>
      <point x="584" y="137"/>
      <point x="508" y="58" type="qcurve" smooth="yes"/>
      <point x="471" y="19"/>
      <point x="385" y="-13"/>
    </contour>
    <contour>
      <point x="180" y="141"/>
      <point x="225" y="82"/>
      <point x="281" y="64"/>
      <point x="391" y="64"/>
      <point x="424" y="82" type="qcurve" smooth="yes"/>
      <point x="495" y="121"/>
      <point x="495" y="346" type="qcurve" smooth="yes"/>
      <point x="495" y="573"/>
      <point x="425" y="613" type="qcurve" smooth="yes"/>
      <point x="392" y="632"/>
      <point x="264" y="632"/>
      <point x="198" y="594"/>
      <point x="162" y="469"/>
      <point x="162" y="253"/>
    </contour>
    <contour>
      <point x="157" y="756" type="line"/>
      <point x="157" y="857"/>
      <point x="225" y="857" type="qcurve" smooth="yes"/>
      <point x="256" y="857"/>
      <point x="417" y="811"/>
      <point x="424" y="811" type="qcurve" smooth="yes"/>
      <point x="436" y="811"/>
      <point x="450" y="854" type="qcurve"/>
      <point x="503" y="847" type="line"/>
      <point x="503" y="793"/>
      <point x="467" y="746"/>
      <point x="406" y="746"/>
      <point x="242" y="794"/>
      <point x="236" y="794" type="qcurve" smooth="yes"/>
      <point x="225" y="794"/>
      <point x="209" y="750" type="qcurve"/>
    </contour>
  </outline>
</glyph>
<glyph name="Oslash" format="1">
  <advance width="656"/>
  <unicode hex="00D8"/>
  <outline>
    <contour>
      <point x="385" y="-13"/>
      <point x="263" y="-13"/>
      <point x="214" y="8" type="qcurve"/>
      <point x="193" y="-39" type="line"/>
      <point x="113" y="-39" type="line"/>
      <point x="156" y="49" type="line"/>
      <point x="72" y="133"/>
      <point x="72" y="349" type="qcurve" smooth="yes"/>
      <point x="72" y="560"/>
      <point x="148" y="638" type="qcurve" smooth="yes"/>
      <point x="185" y="676"/>
      <point x="271" y="708"/>
      <point x="400" y="708"/>
      <point x="451" y="682" type="qcurve"/>
      <point x="472" y="729" type="line"/>
      <point x="551" y="729" type="line"/>
      <point x="508" y="638" type="line"/>
      <point x="584" y="552"/>
      <point x="584" y="349" type="qcurve" smooth="yes"/>
      <point x="584" y="137"/>
      <point x="508" y="58" type="qcurve" smooth="yes"/>
      <point x="471" y="19"/>
    </contour>
    <contour>
      <point x="162" y="469"/>
      <point x="162" y="187"/>
      <point x="193" y="126" type="qcurve"/>
      <point x="306" y="359" type="line"/>
      <point x="421" y="615" type="line"/>
      <point x="388" y="632"/>
      <point x="264" y="632"/>
      <point x="198" y="594"/>
    </contour>
    <contour>
      <point x="245" y="76" type="line"/>
      <point x="276" y="64"/>
      <point x="391" y="64"/>
      <point x="424" y="82" type="qcurve" smooth="yes"/>
      <point x="495" y="121"/>
      <point x="495" y="346" type="qcurve" smooth="yes"/>
      <point x="495" y="495"/>
      <point x="469" y="557" type="qcurve"/>
      <point x="360" y="328" type="line"/>
    </contour>
  </outline>
</glyph>
<glyph name="Uacute" format="1">
  <advance width="661"/>
  <unicode hex="00DA"/>
  <outline>
    <contour>
      <point x="556" y="695" type="line"/>
      <point x="556" y="311" type="line" smooth="yes"/>
      <point x="556" y="128"/>
      <point x="446" y="-13"/>
      <point x="215" y="-13"/>
      <point x="105" y="126"/>
      <point x="105" y="302" type="qcurve" smooth="yes"/>
      <point x="105" y="695" type="line"/>
      <point x="189" y="695" type="line"/>
      <point x="189" y="329" type="line" smooth="yes"/>
      <point x="189" y="207"/>
      <point x="213" y="98"/>
      <point x="267" y="63"/>
      <point x="368" y="63"/>
      <point x="390" y="68" type="qcurve" smooth="yes"/>
      <point x="444" y="82"/>
      <point x="456" y="134" type="qcurve" smooth="yes"/>
      <point x="472" y="198"/>
      <point x="472" y="329" type="qcurve" smooth="yes"/>
      <point x="472" y="695" type="line"/>
    </contour>
    <contour>
      <point x="468" y="869" type="line"/>
      <point x="496" y="796" type="line"/>
      <point x="261" y="736" type="line"/>
      <point x="243" y="787" type="line"/>
    </contour>
  </outline>
</glyph>
<glyph name="Ucircumflex" format="1">
  <advance width="661"/>
  <unicode hex="00DB"/>
  <outline>
    <contour>
      <point x="556" y="695" type="line"/>
      <point x="556" y="311" type="line" smooth="yes"/>
      <point x="556" y="128"/>
      <point x="446" y="-13"/>
      <point x="215" y="-13"/>
      <point x="105" y="126"/>
      <point x="105" y="302" type="qcurve" smooth="yes"/>
      <point x="105" y="695" type="line"/>
      <point x="189" y="695" type="line"/>
      <point x="189" y="329" type="line" smooth="yes"/>
      <point x="189" y="207"/>
      <point x="213" y="98"/>
      <point x="267" y="63"/>
      <point x="368" y="63"/>
      <point x="390" y="68" type="qcurve" smooth="yes"/>
      <point x="444" y="82"/>
      <point x="456" y="134" type="qcurve" smooth="yes"/>
      <point x="472" y="198"/>
      <point x="472" y="329" type="qcurve" smooth="yes"/>
      <point x="472" y="695" type="line"/>
    </contour>
    <contour>
      <point x="478" y="771" type="line"/>
      <point x="450" y="733" type="line"/>
      <point x="335" y="794" type="line"/>
      <point x="328" y="794" type="line"/>
      <point x="213" y="733" type="line"/>
      <point x="185" y="771" type="line"/>
      <point x="306" y="866" type="line"/>
      <point x="357" y="866" type="line"/>
    </contour>
  </outline>
</glyph>
<glyph name="Udieresis" format="1">
  <advance width="661"/>
  <unicode hex="00DC"/>
  <outline>
    <contour>
      <point x="472" y="695" type="line"/>
      <point x="556" y="695" type="line"/>
      <point x="556" y="311" type="line" smooth="yes"/>
      <point x="556" y="128"/>
      <point x="446" y="-13"/>
      <point x="215" y="-13"/>
      <point x="105" y="126"/>
      <point x="105" y="302" type="qcurve" smooth="yes"/>
      <point x="105" y="695" type="line"/>
      <point x="189" y="695" type="line"/>
      <point x="189" y="329" type="line" smooth="yes"/>
      <point x="189" y="207"/>
      <point x="213" y="98"/>
      <point x="267" y="63"/>
      <point x="368" y="63"/>
      <point x="413" y="74"/>
      <point x="449" y="103"/>
      <point x="456" y="134" type="qcurve" smooth="yes"/>
      <point x="472" y="198"/>
      <point x="472" y="329" type="qcurve" smooth="yes"/>
    </contour>
    <contour>
      <point x="287" y="759" type="line"/>
      <point x="188" y="759" type="line"/>
      <point x="188" y="841" type="line"/>
      <point x="287" y="841" type="line"/>
    </contour>
    <contour>
      <point x="473" y="759" type="line"/>
      <point x="375" y="759" type="line"/>
      <point x="375" y="841" type="line"/>
      <point x="473" y="841" type="line"/>
    </contour>
  </outline>
</glyph>
<glyph name="Yacute" format="1">
  <advance width="511"/>
  <unicode hex="00DD"/>
  <outline>
    <contour>
      <point x="207" y="0" type="line"/>
      <point x="209" y="259" type="line"/>
      <point x="5" y="695" type="line"/>
      <point x="99" y="695" type="line"/>
      <point x="248" y="329" type="line"/>
      <point x="252" y="329" type="line"/>
      <point x="402" y="695" type="line"/>
      <point x="496" y="695" type="line"/>
      <point x="291" y="258" type="line"/>
      <point x="293" y="0" type="line"/>
    </contour>
    <contour>
      <point x="392" y="869" type="line"/>
      <point x="420" y="796" type="line"/>
      <point x="185" y="736" type="line"/>
      <point x="167" y="787" type="line"/>
    </contour>
  </outline>
</glyph>
<glyph name="Thorn" format="1">
  <advance width="595"/>
  <unicode hex="00DE"/>
  <outline>
    <contour>
      <point x="337" y="611" type="qcurve" smooth="yes"/>
      <point x="431" y="611"/>
      <point x="532" y="494"/>
      <point x="532" y="379" type="qcurve" smooth="yes"/>
      <point x="532" y="239"/>
      <point x="462" y="184" type="qcurve" smooth="yes"/>
      <point x="402" y="137"/>
      <point x="313" y="137" type="qcurve"/>
      <point x="186" y="143" type="line"/>
      <point x="187" y="0" type="line"/>
      <point x="103" y="0" type="line"/>
      <point x="106" y="325" type="line"/>
      <point x="103" y="695" type="line"/>
      <point x="187" y="695" type="line"/>
      <point x="186" y="604" type="line"/>
      <point x="291" y="611"/>
    </contour>
    <contour>
      <point x="185" y="220" type="line"/>
      <point x="259" y="208"/>
      <point x="392" y="208"/>
      <point x="412" y="227" type="qcurve" smooth="yes"/>
      <point x="443" y="257"/>
      <point x="443" y="509"/>
      <point x="407" y="531" type="qcurve" smooth="yes"/>
      <point x="380" y="547"/>
      <point x="247" y="547"/>
      <point x="185" y="536" type="qcurve"/>
    </contour>
  </outline>
</glyph>
<glyph name="germandbls" format="1">
  <advance width="615"/>
  <unicode hex="00DF"/>
  <outline>
    <contour>
      <point x="189" y="491" type="qcurve" smooth="yes"/>
      <point x="189" y="0" type="line"/>
      <point x="105" y="0" type="line"/>
      <point x="105" y="490" type="line" smooth="yes"/>
      <point x="105" y="598"/>
      <point x="216" y="708"/>
      <point x="384" y="708"/>
      <point x="498" y="613"/>
      <point x="498" y="530" type="qcurve" smooth="yes"/>
      <point x="498" y="493"/>
      <point x="474" y="431"/>
      <point x="457" y="414" type="qcurve" smooth="yes"/>
      <point x="422" y="377"/>
      <point x="401" y="377" type="qcurve"/>
      <point x="447" y="371"/>
      <point x="488" y="337" type="qcurve" smooth="yes"/>
      <point x="511" y="318"/>
      <point x="539" y="244"/>
      <point x="539" y="195" type="qcurve" smooth="yes"/>
      <point x="539" y="100"/>
      <point x="435" y="-13"/>
      <point x="340" y="-13" type="qcurve" smooth="yes"/>
      <point x="304" y="-13"/>
      <point x="257" y="-3" type="qcurve"/>
      <point x="267" y="60" type="line"/>
      <point x="299" y="53"/>
      <point x="335" y="53" type="qcurve" smooth="yes"/>
      <point x="396" y="53"/>
      <point x="451" y="115"/>
      <point x="451" y="266"/>
      <point x="390" y="339"/>
      <point x="311" y="339" type="qcurve" smooth="yes"/>
      <point x="285" y="339" type="line"/>
      <point x="285" y="398" type="line"/>
      <point x="352" y="405"/>
      <point x="412" y="463"/>
      <point x="412" y="525" type="qcurve" smooth="yes"/>
      <point x="412" y="645"/>
      <point x="302" y="645" type="qcurve" smooth="yes"/>
      <point x="239" y="645"/>
      <point x="189" y="572"/>
    </contour>
  </outline>
</glyph>
<glyph name="agrave" format="1">
  <advance width="568"/>
  <unicode hex="00E0"/>
  <outline>
    <contour>
      <point x="284" y="358" type="qcurve" smooth="yes"/>
      <point x="390" y="358" type="line"/>
      <point x="390" y="475"/>
      <point x="355" y="523"/>
      <point x="261" y="523"/>
      <point x="156" y="498"/>
      <point x="96" y="473" type="qcurve"/>
      <point x="67" y="538" type="line"/>
      <point x="80" y="544"/>
      <point x="123" y="563"/>
      <point x="241" y="595"/>
      <point x="290" y="595" type="qcurve" smooth="yes"/>
      <point x="473" y="595"/>
      <point x="473" y="383" type="qcurve" smooth="yes"/>
      <point x="473" y="0" type="line"/>
      <point x="419" y="0" type="line"/>
      <point x="407" y="61" type="line"/>
      <point x="401" y="61" type="line"/>
      <point x="391" y="53"/>
      <point x="355" y="28"/>
      <point x="255" y="-13"/>
      <point x="211" y="-13" type="qcurve" smooth="yes"/>
      <point x="140" y="-13"/>
      <point x="54" y="84"/>
      <point x="54" y="273"/>
      <point x="172" y="358"/>
    </contour>
    <contour>
      <point x="390" y="281" type="line"/>
      <point x="347" y="288"/>
      <point x="190" y="288"/>
      <point x="168" y="269" type="qcurve" smooth="yes"/>
      <point x="141" y="248"/>
      <point x="141" y="113"/>
      <point x="180" y="61"/>
      <point x="259" y="61"/>
      <point x="341" y="88"/>
      <point x="390" y="115" type="qcurve"/>
    </contour>
    <contour>
      <point x="151" y="735" type="line"/>
      <point x="181" y="802" type="line"/>
      <point x="403" y="707" type="line"/>
      <point x="383" y="657" type="line"/>
    </contour>
  </outline>
</glyph>
<glyph name="acircumflex" format="1">
  <advance width="568"/>
  <unicode hex="00E2"/>
  <outline>
    <contour>
      <point x="390" y="358" type="line"/>
      <point x="390" y="475"/>
      <point x="355" y="523"/>
      <point x="307" y="523" type="qcurve" smooth="yes"/>
      <point x="204" y="523"/>
      <point x="96" y="473" type="qcurve"/>
      <point x="67" y="538" type="line"/>
      <point x="98" y="552" type="line" smooth="yes"/>
      <point x="129" y="566"/>
      <point x="241" y="595"/>
      <point x="290" y="595" type="qcurve" smooth="yes"/>
      <point x="473" y="595"/>
      <point x="473" y="383" type="qcurve" smooth="yes"/>
      <point x="473" y="0" type="line"/>
      <point x="419" y="0" type="line"/>
      <point x="407" y="61" type="line"/>
      <point x="401" y="61" type="line"/>
      <point x="376" y="42" type="line" smooth="yes"/>
      <point x="350" y="24"/>
      <point x="255" y="-13"/>
      <point x="211" y="-13" type="qcurve" smooth="yes"/>
      <point x="140" y="-13"/>
      <point x="54" y="84"/>
      <point x="54" y="273"/>
      <point x="172" y="358"/>
      <point x="284" y="358" type="qcurve" smooth="yes"/>
    </contour>
    <contour>
      <point x="225" y="61" type="qcurve" smooth="yes"/>
      <point x="301" y="61"/>
      <point x="390" y="115" type="qcurve"/>
      <point x="390" y="281" type="line"/>
      <point x="332" y="288"/>
      <point x="283" y="288" type="qcurve" smooth="yes"/>
      <point x="190" y="288"/>
      <point x="168" y="269" type="qcurve" smooth="yes"/>
      <point x="141" y="248"/>
      <point x="141" y="113"/>
      <point x="180" y="61"/>
    </contour>
    <contour>
      <point x="418" y="693" type="line"/>
      <point x="389" y="659" type="line"/>
      <point x="275" y="730" type="line"/>
      <point x="268" y="730" type="line"/>
      <point x="154" y="659" type="line"/>
      <point x="125" y="693" type="line"/>
      <point x="246" y="802" type="line"/>
      <point x="297" y="802" type="line"/>
    </contour>
  </outline>
</glyph>
<glyph name="aring" format="1">
  <advance width="568"/>
  <unicode hex="00E5"/>
  <outline>
    <contour>
      <point x="284" y="358" type="qcurve" smooth="yes"/>
      <point x="390" y="358" type="line"/>
      <point x="390" y="475"/>
      <point x="355" y="523"/>
      <point x="261" y="523"/>
      <point x="156" y="498"/>
      <point x="96" y="473" type="qcurve"/>
      <point x="67" y="538" type="line"/>
      <point x="80" y="544"/>
      <point x="123" y="563"/>
      <point x="241" y="595"/>
      <point x="290" y="595" type="qcurve" smooth="yes"/>
      <point x="473" y="595"/>
      <point x="473" y="383" type="qcurve" smooth="yes"/>
      <point x="473" y="0" type="line"/>
      <point x="419" y="0" type="line"/>
      <point x="407" y="61" type="line"/>
      <point x="401" y="61" type="line"/>
      <point x="391" y="53"/>
      <point x="355" y="28"/>
      <point x="255" y="-13"/>
      <point x="211" y="-13" type="qcurve" smooth="yes"/>
      <point x="140" y="-13"/>
      <point x="54" y="84"/>
      <point x="54" y="273"/>
      <point x="172" y="358"/>
    </contour>
    <contour>
      <point x="390" y="281" type="line"/>
      <point x="347" y="288"/>
      <point x="190" y="288"/>
      <point x="168" y="269" type="qcurve" smooth="yes"/>
      <point x="141" y="248"/>
      <point x="141" y="113"/>
      <point x="180" y="61"/>
      <point x="259" y="61"/>
      <point x="341" y="88"/>
      <point x="390" y="115" type="qcurve"/>
    </contour>
    <contour>
      <point x="308" y="814"/>
      <point x="356" y="775"/>
      <point x="356" y="686"/>
      <point x="308" y="647"/>
      <point x="236" y="647"/>
      <point x="188" y="686"/>
      <point x="188" y="775"/>
      <point x="236" y="814"/>
    </contour>
    <contour>
      <point x="253" y="768"/>
      <point x="236" y="753"/>
      <point x="236" y="708"/>
      <point x="253" y="693"/>
      <point x="291" y="693"/>
      <point x="306" y="708"/>
      <point x="306" y="753"/>
      <point x="291" y="768"/>
    </contour>
  </outline>
</glyph>
<glyph name="ae" format="1">
  <advance width="883"/>
  <unicode hex="00E6"/>
  <outline>
    <contour>
      <point x="615" y="-13" type="qcurve" smooth="yes"/>
      <point x="490" y="-13"/>
      <point x="437" y="68" type="qcurve"/>
      <point x="432" y="68" type="line"/>
      <point x="419" y="59"/>
      <point x="376" y="32"/>
      <point x="262" y="-13"/>
      <point x="215" y="-13" type="qcurve" smooth="yes"/>
      <point x="140" y="-13"/>
      <point x="54" y="79"/>
      <point x="54" y="171" type="qcurve" smooth="yes"/>
      <point x="54" y="342"/>
      <point x="284" y="342" type="qcurve" smooth="yes"/>
      <point x="390" y="342" type="line"/>
      <point x="390" y="471"/>
      <point x="355" y="523"/>
      <point x="261" y="523"/>
      <point x="156" y="498"/>
      <point x="96" y="473" type="qcurve"/>
      <point x="67" y="538" type="line"/>
      <point x="186" y="595"/>
      <point x="279" y="595" type="qcurve" smooth="yes"/>
      <point x="400" y="595"/>
      <point x="443" y="519" type="qcurve"/>
      <point x="447" y="519" type="line"/>
      <point x="503" y="595"/>
      <point x="717" y="595"/>
      <point x="818" y="471"/>
      <point x="818" y="329" type="qcurve" smooth="yes"/>
      <point x="818" y="270" type="line"/>
      <point x="475" y="270" type="line"/>
      <point x="475" y="234" type="line"/>
      <point x="479" y="124"/>
      <point x="517" y="84" type="qcurve" smooth="yes"/>
      <point x="544" y="60"/>
      <point x="606" y="60" type="qcurve" smooth="yes"/>
      <point x="671" y="60"/>
      <point x="754" y="88" type="qcurve" smooth="yes"/>
      <point x="781" y="98" type="line"/>
      <point x="802" y="30" type="line"/>
      <point x="720" y="-13"/>
    </contour>
    <contour>
      <point x="390" y="265" type="line"/>
      <point x="349" y="272"/>
      <point x="190" y="272"/>
      <point x="168" y="253" type="qcurve" smooth="yes"/>
      <point x="141" y="235"/>
      <point x="141" y="107"/>
      <point x="181" y="61"/>
      <point x="220" y="61" type="qcurve" smooth="yes"/>
      <point x="290" y="61"/>
      <point x="365" y="98" type="qcurve" smooth="yes"/>
      <point x="390" y="111" type="line"/>
    </contour>
    <contour>
      <point x="710" y="496" type="qcurve" smooth="yes"/>
      <point x="692" y="523"/>
      <point x="537" y="523"/>
      <point x="474" y="445"/>
      <point x="474" y="336" type="qcurve"/>
      <point x="733" y="341" type="line"/>
      <point x="733" y="458"/>
    </contour>
  </outline>
</glyph>
<glyph name="ccedilla" format="1">
  <advance width="518"/>
  <unicode hex="00E7"/>
  <outline>
    <contour>
      <point x="305" y="522" type="qcurve" smooth="yes"/>
      <point x="229" y="522"/>
      <point x="203" y="496" type="qcurve" smooth="yes"/>
      <point x="183" y="474"/>
      <point x="157" y="361"/>
      <point x="157" y="287" type="qcurve" smooth="yes"/>
      <point x="157" y="119"/>
      <point x="221" y="75" type="qcurve" smooth="yes"/>
      <point x="243" y="59"/>
      <point x="316" y="59"/>
      <point x="401" y="82"/>
      <point x="451" y="105" type="qcurve"/>
      <point x="477" y="40" type="line"/>
      <point x="435" y="9"/>
      <point x="367" y="-5" type="qcurve"/>
      <point x="381" y="-45"/>
      <point x="381" y="-125"/>
      <point x="320" y="-179"/>
      <point x="272" y="-179" type="qcurve" smooth="yes"/>
      <point x="244" y="-179"/>
      <point x="199" y="-170" type="qcurve"/>
      <point x="199" y="-108" type="line"/>
      <point x="243" y="-113"/>
      <point x="295" y="-113"/>
      <point x="317" y="-101"/>
      <point x="317" y="-45"/>
      <point x="309" y="-13" type="qcurve"/>
      <point x="300" y="-13" type="line" smooth="yes"/>
      <point x="192" y="-13"/>
      <point x="70" y="136"/>
      <point x="70" y="459"/>
      <point x="204" y="595"/>
      <point x="321" y="595" type="qcurve" smooth="yes"/>
      <point x="397" y="595"/>
      <point x="463" y="579" type="qcurve"/>
      <point x="453" y="509" type="line"/>
      <point x="345" y="522"/>
    </contour>
  </outline>
</glyph>
<glyph name="ecircumflex" format="1">
  <advance width="569"/>
  <unicode hex="00EA"/>
  <outline>
    <contour>
      <point x="302" y="-13" type="qcurve" smooth="yes"/>
      <point x="70" y="-13"/>
      <point x="70" y="595"/>
      <point x="300" y="595" type="qcurve" smooth="yes"/>
      <point x="402" y="595"/>
      <point x="504" y="468"/>
      <point x="504" y="321" type="qcurve" smooth="yes"/>
      <point x="504" y="259" type="line"/>
      <point x="158" y="259" type="line"/>
      <point x="158" y="124"/>
      <point x="201" y="84" type="qcurve" smooth="yes"/>
      <point x="228" y="60"/>
      <point x="284" y="60" type="qcurve" smooth="yes"/>
      <point x="369" y="60"/>
      <point x="467" y="98" type="qcurve"/>
      <point x="488" y="30" type="line"/>
      <point x="440" y="8"/>
      <point x="347" y="-13"/>
    </contour>
    <contour>
      <point x="158" y="325" type="qcurve"/>
      <point x="419" y="330" type="line"/>
      <point x="419" y="455"/>
      <point x="396" y="493" type="qcurve" smooth="yes"/>
      <point x="376" y="523"/>
      <point x="220" y="523"/>
      <point x="158" y="441"/>
    </contour>
    <contour>
      <point x="431" y="693" type="line"/>
      <point x="402" y="659" type="line"/>
      <point x="288" y="730" type="line"/>
      <point x="281" y="730" type="line"/>
      <point x="167" y="659" type="line"/>
      <point x="138" y="693" type="line"/>
      <point x="259" y="802" type="line"/>
      <point x="310" y="802" type="line"/>
    </contour>
  </outline>
</glyph>
<glyph name="edieresis" format="1">
  <advance width="569"/>
  <unicode hex="00EB"/>
  <outline>
    <contour>
      <point x="302" y="-13" type="qcurve" smooth="yes"/>
      <point x="70" y="-13"/>
      <point x="70" y="595"/>
      <point x="300" y="595" type="qcurve" smooth="yes"/>
      <point x="402" y="595"/>
      <point x="504" y="468"/>
      <point x="504" y="321" type="qcurve" smooth="yes"/>
      <point x="504" y="259" type="line"/>
      <point x="158" y="259" type="line"/>
      <point x="158" y="124"/>
      <point x="201" y="84" type="qcurve" smooth="yes"/>
      <point x="228" y="60"/>
      <point x="275" y="60" type="qcurve" smooth="yes"/>
      <point x="359" y="60"/>
      <point x="440" y="88" type="qcurve" smooth="yes"/>
      <point x="467" y="98" type="line"/>
      <point x="488" y="30" type="line"/>
      <point x="404" y="-13"/>
    </contour>
    <contour>
      <point x="396" y="493" type="qcurve" smooth="yes"/>
      <point x="376" y="523"/>
      <point x="220" y="523"/>
      <point x="158" y="441"/>
      <point x="158" y="325" type="qcurve"/>
      <point x="419" y="330" type="line"/>
      <point x="419" y="455"/>
    </contour>
    <contour>
      <point x="244" y="684" type="line"/>
      <point x="145" y="684" type="line"/>
      <point x="145" y="766" type="line"/>
      <point x="244" y="766" type="line"/>
    </contour>
    <contour>
      <point x="430" y="684" type="line"/>
      <point x="332" y="684" type="line"/>
      <point x="332" y="766" type="line"/>
      <point x="430" y="766" type="line"/>
    </contour>
  </outline>
</glyph>
<glyph name="igrave" format="1">
  <advance width="295"/>
  <unicode hex="00EC"/>
  <outline>
    <contour>
      <point x="-31" y="734" type="line"/>
      <point x="-3" y="802" type="line"/>
      <point x="215" y="707" type="line"/>
      <point x="195" y="657" type="line"/>
    </contour>
    <contour>
      <point x="189" y="0" type="line"/>
      <point x="106" y="0" type="line"/>
      <point x="106" y="582" type="line"/>
      <point x="189" y="582" type="line"/>
    </contour>
  </outline>
</glyph>
<glyph name="iacute" format="1">
  <advance width="295"/>
  <unicode hex="00ED"/>
  <outline>
    <contour>
      <point x="275" y="802" type="line"/>
      <point x="302" y="734" type="line"/>
      <point x="76" y="657" type="line"/>
      <point x="56" y="707" type="line"/>
    </contour>
    <contour>
      <point x="106" y="0" type="line"/>
      <point x="106" y="582" type="line"/>
      <point x="189" y="582" type="line"/>
      <point x="189" y="0" type="line"/>
    </contour>
  </outline>
</glyph>
<glyph name="icircumflex" format="1">
  <advance width="295"/>
  <unicode hex="00EE"/>
  <outline>
    <contour>
      <point x="288" y="693" type="line"/>
      <point x="256" y="660" type="line"/>
      <point x="152" y="730" type="line"/>
      <point x="144" y="730" type="line"/>
      <point x="40" y="660" type="line"/>
      <point x="7" y="693" type="line"/>
      <point x="121" y="802" type="line"/>
      <point x="174" y="802" type="line"/>
    </contour>
    <contour>
      <point x="106" y="0" type="line"/>
      <point x="106" y="582" type="line"/>
      <point x="189" y="582" type="line"/>
      <point x="189" y="0" type="line"/>
    </contour>
  </outline>
</glyph>
<glyph name="idieresis" format="1">
  <advance width="295"/>
  <unicode hex="00EF"/>
  <outline>
    <contour>
      <point x="106" y="684" type="line"/>
      <point x="7" y="684" type="line"/>
      <point x="7" y="766" type="line"/>
      <point x="106" y="766" type="line"/>
    </contour>
    <contour>
      <point x="288" y="684" type="line"/>
      <point x="190" y="684" type="line"/>
      <point x="190" y="766" type="line"/>
      <point x="288" y="766" type="line"/>
    </contour>
    <contour>
      <point x="189" y="0" type="line"/>
      <point x="106" y="0" type="line"/>
      <point x="106" y="582" type="line"/>
      <point x="189" y="582" type="line"/>
    </contour>
  </outline>
</glyph>
<glyph name="eth" format="1">
  <advance width="576"/>
  <unicode hex="00F0"/>
  <outline>
    <contour>
      <point x="506" y="286" type="qcurve" smooth="yes"/>
      <point x="506" y="139"/>
      <point x="406" y="-13"/>
      <point x="169" y="-13"/>
      <point x="70" y="134"/>
      <point x="70" y="276" type="qcurve" smooth="yes"/>
      <point x="70" y="520"/>
      <point x="286" y="520" type="qcurve" smooth="yes"/>
      <point x="362" y="520"/>
      <point x="415" y="479" type="qcurve"/>
      <point x="420" y="482" type="line"/>
      <point x="397" y="555"/>
      <point x="329" y="617" type="qcurve"/>
      <point x="234" y="556" type="line"/>
      <point x="226" y="626" type="line"/>
      <point x="280" y="658" type="line"/>
      <point x="252" y="678"/>
      <point x="210" y="706" type="qcurve"/>
      <point x="247" y="766" type="line"/>
      <point x="302" y="737"/>
      <point x="345" y="704" type="qcurve"/>
      <point x="453" y="775" type="line"/>
      <point x="460" y="704" type="line"/>
      <point x="391" y="662" type="line"/>
      <point x="506" y="545"/>
    </contour>
    <contour>
      <point x="363" y="448"/>
      <point x="212" y="448"/>
      <point x="154" y="379"/>
      <point x="154" y="182"/>
      <point x="181" y="90"/>
      <point x="234" y="58"/>
      <point x="342" y="58"/>
      <point x="395" y="90"/>
      <point x="421" y="182"/>
      <point x="421" y="379"/>
    </contour>
  </outline>
</glyph>
<glyph name="ntilde" format="1">
  <advance width="601"/>
  <unicode hex="00F1"/>
  <outline>
    <contour>
      <point x="184" y="0" type="line"/>
      <point x="101" y="0" type="line"/>
      <point x="101" y="582" type="line"/>
      <point x="157" y="582" type="line"/>
      <point x="166" y="525" type="line"/>
      <point x="171" y="525" type="line"/>
      <point x="291" y="595"/>
      <point x="379" y="595" type="qcurve" smooth="yes"/>
      <point x="419" y="595"/>
      <point x="446" y="580" type="qcurve" smooth="yes"/>
      <point x="513" y="541"/>
      <point x="513" y="387" type="qcurve" smooth="yes"/>
      <point x="513" y="0" type="line"/>
      <point x="429" y="0" type="line"/>
      <point x="429" y="358" type="line" smooth="yes"/>
      <point x="429" y="472"/>
      <point x="400" y="516"/>
      <point x="360" y="516" type="qcurve" smooth="yes"/>
      <point x="284" y="516"/>
      <point x="184" y="463" type="qcurve"/>
    </contour>
    <contour>
      <point x="130" y="675" type="line"/>
      <point x="130" y="776"/>
      <point x="198" y="776" type="qcurve" smooth="yes"/>
      <point x="229" y="776"/>
      <point x="390" y="728"/>
      <point x="396" y="728" type="qcurve" smooth="yes"/>
      <point x="409" y="728"/>
      <point x="423" y="773" type="qcurve"/>
      <point x="476" y="766" type="line"/>
      <point x="476" y="712"/>
      <point x="440" y="665"/>
      <point x="379" y="665"/>
      <point x="215" y="715"/>
      <point x="209" y="715" type="qcurve" smooth="yes"/>
      <point x="198" y="715"/>
      <point x="182" y="669" type="qcurve"/>
    </contour>
  </outline>
</glyph>
<glyph name="ocircumflex" format="1">
  <advance width="576"/>
  <unicode hex="00F4"/>
  <outline>
    <contour>
      <point x="506" y="440"/>
      <point x="506" y="142"/>
      <point x="406" y="-13"/>
      <point x="169" y="-13"/>
      <point x="70" y="141"/>
      <point x="70" y="440"/>
      <point x="169" y="595"/>
      <point x="406" y="595"/>
    </contour>
    <contour>
      <point x="234" y="523"/>
      <point x="181" y="489"/>
      <point x="154" y="390"/>
      <point x="154" y="192"/>
      <point x="180" y="92"/>
      <point x="234" y="58"/>
      <point x="342" y="58"/>
      <point x="395" y="92"/>
      <point x="421" y="192"/>
      <point x="421" y="390"/>
      <point x="395" y="489"/>
      <point x="342" y="523"/>
    </contour>
    <contour>
      <point x="434" y="693" type="line"/>
      <point x="405" y="659" type="line"/>
      <point x="291" y="730" type="line"/>
      <point x="284" y="730" type="line"/>
      <point x="170" y="659" type="line"/>
      <point x="141" y="693" type="line"/>
      <point x="262" y="802" type="line"/>
      <point x="313" y="802" type="line"/>
    </contour>
  </outline>
</glyph>
<glyph name="otilde" format="1">
  <advance width="576"/>
  <unicode hex="00F5"/>
  <outline>
    <contour>
      <point x="506" y="440"/>
      <point x="506" y="142"/>
      <point x="406" y="-13"/>
      <point x="169" y="-13"/>
      <point x="70" y="141"/>
      <point x="70" y="440"/>
      <point x="169" y="595"/>
      <point x="406" y="595"/>
    </contour>
    <contour>
      <point x="234" y="523"/>
      <point x="181" y="489"/>
      <point x="154" y="390"/>
      <point x="154" y="192"/>
      <point x="180" y="92"/>
      <point x="234" y="58"/>
      <point x="342" y="58"/>
      <point x="395" y="92"/>
      <point x="421" y="192"/>
      <point x="421" y="390"/>
      <point x="395" y="489"/>
      <point x="342" y="523"/>
    </contour>
    <contour>
      <point x="115" y="675" type="line"/>
      <point x="115" y="776"/>
      <point x="183" y="776" type="qcurve" smooth="yes"/>
      <point x="214" y="776"/>
      <point x="375" y="728"/>
      <point x="382" y="728" type="qcurve" smooth="yes"/>
      <point x="394" y="728"/>
      <point x="408" y="773" type="qcurve"/>
      <point x="461" y="766" type="line"/>
      <point x="461" y="712"/>
      <point x="425" y="665"/>
      <point x="364" y="665"/>
      <point x="200" y="715"/>
      <point x="194" y="715" type="qcurve" smooth="yes"/>
      <point x="183" y="715"/>
      <point x="167" y="669" type="qcurve"/>
    </contour>
  </outline>
</glyph>
<glyph name="odieresis" format="1">
  <advance width="576"/>
  <unicode hex="00F6"/>
  <outline>
    <contour>
      <point x="169" y="595"/>
      <point x="406" y="595"/>
      <point x="506" y="440"/>
      <point x="506" y="142"/>
      <point x="406" y="-13"/>
      <point x="169" y="-13"/>
      <point x="70" y="141"/>
      <point x="70" y="440"/>
    </contour>
    <contour>
      <point x="234" y="523"/>
      <point x="181" y="489"/>
      <point x="154" y="390"/>
      <point x="154" y="192"/>
      <point x="180" y="92"/>
      <point x="234" y="58"/>
      <point x="342" y="58"/>
      <point x="395" y="92"/>
      <point x="421" y="192"/>
      <point x="421" y="390"/>
      <point x="395" y="489"/>
      <point x="342" y="523"/>
    </contour>
    <contour>
      <point x="245" y="684" type="line"/>
      <point x="146" y="684" type="line"/>
      <point x="146" y="766" type="line"/>
      <point x="245" y="766" type="line"/>
    </contour>
    <contour>
      <point x="431" y="684" type="line"/>
      <point x="333" y="684" type="line"/>
      <point x="333" y="766" type="line"/>
      <point x="431" y="766" type="line"/>
    </contour>
  </outline>
</glyph>
<glyph name="divide" format="1">
  <advance width="618"/>
  <unicode hex="00F7"/>
  <outline>
    <contour>
      <point x="256" y="445" type="line"/>
      <point x="256" y="535" type="line"/>
      <point x="364" y="535" type="line"/>
      <point x="364" y="445" type="line"/>
    </contour>
    <contour>
      <point x="256" y="50" type="line"/>
      <point x="256" y="140" type="line"/>
      <point x="364" y="140" type="line"/>
      <point x="364" y="50" type="line"/>
    </contour>
    <contour>
      <point x="52" y="257" type="line"/>
      <point x="52" y="328" type="line"/>
      <point x="567" y="328" type="line"/>
      <point x="567" y="257" type="line"/>
    </contour>
  </outline>
</glyph>
<glyph name="oslash" format="1">
  <advance width="579"/>
  <unicode hex="00F8"/>
  <outline>
    <contour>
      <point x="124" y="60" type="line"/>
      <point x="71" y="133"/>
      <point x="71" y="440"/>
      <point x="171" y="595"/>
      <point x="290" y="595" type="qcurve" smooth="yes"/>
      <point x="336" y="595"/>
      <point x="370" y="583" type="qcurve"/>
      <point x="390" y="627" type="line"/>
      <point x="466" y="627" type="line"/>
      <point x="429" y="550" type="line"/>
      <point x="508" y="479"/>
      <point x="508" y="291" type="qcurve" smooth="yes"/>
      <point x="508" y="142"/>
      <point x="408" y="-13"/>
      <point x="290" y="-13" type="qcurve" smooth="yes"/>
      <point x="222" y="-13"/>
      <point x="176" y="13" type="qcurve"/>
      <point x="153" y="-38" type="line"/>
      <point x="77" y="-38" type="line"/>
    </contour>
    <contour>
      <point x="206" y="77" type="line"/>
      <point x="231" y="58"/>
      <point x="344" y="58"/>
      <point x="397" y="92"/>
      <point x="423" y="192"/>
      <point x="423" y="432"/>
      <point x="395" y="480" type="qcurve"/>
      <point x="305" y="291" type="line"/>
    </contour>
    <contour>
      <point x="340" y="518" type="line"/>
      <point x="322" y="523"/>
      <point x="236" y="523"/>
      <point x="182" y="489"/>
      <point x="156" y="390"/>
      <point x="156" y="194"/>
      <point x="167" y="147" type="qcurve"/>
      <point x="251" y="322" type="line"/>
    </contour>
  </outline>
</glyph>
<glyph name="ugrave" format="1">
  <advance width="600"/>
  <unicode hex="00F9"/>
  <outline>
    <contour>
      <point x="416" y="582" type="line"/>
      <point x="499" y="582" type="line"/>
      <point x="499" y="0" type="line"/>
      <point x="443" y="0" type="line"/>
      <point x="433" y="56" type="line"/>
      <point x="428" y="56" type="line" smooth="yes"/>
      <point x="427" y="56"/>
      <point x="368" y="23"/>
      <point x="349" y="14" type="qcurve" smooth="yes"/>
      <point x="288" y="-13"/>
      <point x="234" y="-13" type="qcurve" smooth="yes"/>
      <point x="88" y="-13"/>
      <point x="88" y="195" type="qcurve" smooth="yes"/>
      <point x="88" y="582" type="line"/>
      <point x="171" y="582" type="line"/>
      <point x="171" y="224" type="line" smooth="yes"/>
      <point x="171" y="109"/>
      <point x="198" y="64"/>
      <point x="301" y="64"/>
      <point x="416" y="117" type="qcurve"/>
    </contour>
    <contour>
      <point x="143" y="735" type="line"/>
      <point x="173" y="802" type="line"/>
      <point x="395" y="707" type="line"/>
      <point x="375" y="657" type="line"/>
    </contour>
  </outline>
</glyph>
<glyph name="uacute" format="1">
  <advance width="600"/>
  <unicode hex="00FA"/>
  <outline>
    <contour>
      <point x="416" y="582" type="line"/>
      <point x="499" y="582" type="line"/>
      <point x="499" y="0" type="line"/>
      <point x="443" y="0" type="line"/>
      <point x="433" y="56" type="line"/>
      <point x="428" y="56" type="line" smooth="yes"/>
      <point x="427" y="56"/>
      <point x="398" y="40" type="qcurve" smooth="yes"/>
      <point x="304" y="-13"/>
      <point x="234" y="-13" type="qcurve" smooth="yes"/>
      <point x="88" y="-13"/>
      <point x="88" y="195" type="qcurve" smooth="yes"/>
      <point x="88" y="582" type="line"/>
      <point x="171" y="582" type="line"/>
      <point x="171" y="224" type="line" smooth="yes"/>
      <point x="171" y="109"/>
      <point x="198" y="64"/>
      <point x="301" y="64"/>
      <point x="416" y="117" type="qcurve"/>
    </contour>
    <contour>
      <point x="449" y="802" type="line"/>
      <point x="480" y="735" type="line"/>
      <point x="247" y="657" type="line"/>
      <point x="227" y="707" type="line"/>
    </contour>
  </outline>
</glyph>
<glyph name="ucircumflex" format="1">
  <advance width="600"/>
  <unicode hex="00FB"/>
  <outline>
    <contour>
      <point x="416" y="582" type="line"/>
      <point x="499" y="582" type="line"/>
      <point x="499" y="0" type="line"/>
      <point x="443" y="0" type="line"/>
      <point x="433" y="56" type="line"/>
      <point x="428" y="56" type="line" smooth="yes"/>
      <point x="427" y="56"/>
      <point x="398" y="40" type="qcurve" smooth="yes"/>
      <point x="304" y="-13"/>
      <point x="234" y="-13" type="qcurve" smooth="yes"/>
      <point x="88" y="-13"/>
      <point x="88" y="195" type="qcurve" smooth="yes"/>
      <point x="88" y="582" type="line"/>
      <point x="171" y="582" type="line"/>
      <point x="171" y="224" type="line" smooth="yes"/>
      <point x="171" y="109"/>
      <point x="198" y="64"/>
      <point x="301" y="64"/>
      <point x="416" y="117" type="qcurve"/>
    </contour>
    <contour>
      <point x="443" y="693" type="line"/>
      <point x="414" y="659" type="line"/>
      <point x="300" y="730" type="line"/>
      <point x="293" y="730" type="line"/>
      <point x="179" y="659" type="line"/>
      <point x="150" y="693" type="line"/>
      <point x="271" y="802" type="line"/>
      <point x="322" y="802" type="line"/>
    </contour>
  </outline>
</glyph>
<glyph name="udieresis" format="1">
  <advance width="600"/>
  <unicode hex="00FC"/>
  <outline>
    <contour>
      <point x="416" y="582" type="line"/>
      <point x="499" y="582" type="line"/>
      <point x="499" y="0" type="line"/>
      <point x="443" y="0" type="line"/>
      <point x="433" y="56" type="line"/>
      <point x="428" y="56" type="line" smooth="yes"/>
      <point x="427" y="56"/>
      <point x="368" y="23"/>
      <point x="349" y="14" type="qcurve" smooth="yes"/>
      <point x="288" y="-13"/>
      <point x="234" y="-13" type="qcurve" smooth="yes"/>
      <point x="88" y="-13"/>
      <point x="88" y="195" type="qcurve" smooth="yes"/>
      <point x="88" y="582" type="line"/>
      <point x="171" y="582" type="line"/>
      <point x="171" y="224" type="line" smooth="yes"/>
      <point x="171" y="109"/>
      <point x="198" y="64"/>
      <point x="301" y="64"/>
      <point x="416" y="117" type="qcurve"/>
    </contour>
    <contour>
      <point x="249" y="684" type="line"/>
      <point x="150" y="684" type="line"/>
      <point x="150" y="766" type="line"/>
      <point x="249" y="766" type="line"/>
    </contour>
    <contour>
      <point x="435" y="684" type="line"/>
      <point x="337" y="684" type="line"/>
      <point x="337" y="766" type="line"/>
      <point x="435" y="766" type="line"/>
    </contour>
  </outline>
</glyph>
<glyph name="yacute" format="1">
  <advance width="479"/>
  <unicode hex="00FD"/>
  <outline>
    <contour>
      <point x="125" y="-166" type="line"/>
      <point x="204" y="57" type="line"/>
      <point x="3" y="582" type="line"/>
      <point x="101" y="582" type="line"/>
      <point x="238" y="155" type="line"/>
      <point x="243" y="155" type="line"/>
      <point x="379" y="582" type="line"/>
      <point x="469" y="582" type="line"/>
      <point x="267" y="37" type="line"/>
      <point x="213" y="-166" type="line"/>
    </contour>
    <contour>
      <point x="379" y="802" type="line"/>
      <point x="410" y="735" type="line"/>
      <point x="177" y="657" type="line"/>
      <point x="157" y="707" type="line"/>
    </contour>
  </outline>
</glyph>
<glyph name="thorn" format="1">
  <advance width="591"/>
  <unicode hex="00FE"/>
  <outline>
    <contour>
      <point x="188" y="-166" type="line"/>
      <point x="105" y="-166" type="line"/>
      <point x="105" y="753" type="line"/>
      <point x="188" y="753" type="line"/>
      <point x="188" y="573" type="line"/>
      <point x="280" y="595"/>
      <point x="341" y="595" type="qcurve" smooth="yes"/>
      <point x="431" y="595"/>
      <point x="521" y="450"/>
      <point x="521" y="293" type="qcurve" smooth="yes"/>
      <point x="521" y="-13"/>
      <point x="316" y="-13" type="qcurve" smooth="yes"/>
      <point x="273" y="-13"/>
      <point x="188" y="3" type="qcurve"/>
    </contour>
    <contour>
      <point x="188" y="77" type="line"/>
      <point x="254" y="60"/>
      <point x="369" y="60"/>
      <point x="388" y="76" type="qcurve" smooth="yes"/>
      <point x="405" y="92"/>
      <point x="434" y="202"/>
      <point x="434" y="298" type="qcurve" smooth="yes"/>
      <point x="434" y="479"/>
      <point x="402" y="505" type="qcurve" smooth="yes"/>
      <point x="381" y="521"/>
      <point x="341" y="521" type="qcurve" smooth="yes"/>
      <point x="270" y="521"/>
      <point x="188" y="495" type="qcurve"/>
    </contour>
  </outline>
</glyph>
<glyph name="ydieresis" format="1">
  <advance width="479"/>
  <unicode hex="00FF"/>
  <outline>
    <contour>
      <point x="125" y="-166" type="line"/>
      <point x="204" y="57" type="line"/>
      <point x="3" y="582" type="line"/>
      <point x="101" y="582" type="line"/>
      <point x="238" y="155" type="line"/>
      <point x="243" y="155" type="line"/>
      <point x="379" y="582" type="line"/>
      <point x="469" y="582" type="line"/>
      <point x="267" y="37" type="line"/>
      <point x="213" y="-166" type="line"/>
    </contour>
    <contour>
      <point x="196" y="684" type="line"/>
      <point x="97" y="684" type="line"/>
      <point x="97" y="766" type="line"/>
      <point x="196" y="766" type="line"/>
    </contour>
    <contour>
      <point x="382" y="684" type="line"/>
      <point x="284" y="684" type="line"/>
      <point x="284" y="766" type="line"/>
      <point x="382" y="766" type="line"/>
    </contour>
  </outline>
</glyph>
<glyph name="hbar" format="1">
  <advance width="596"/>
  <unicode hex="0127"/>
  <outline>
    <contour>
      <point x="404" y="496" type="qcurve" smooth="yes"/>
      <point x="389" y="517"/>
      <point x="277" y="517"/>
      <point x="179" y="475" type="qcurve"/>
      <point x="179" y="0" type="line"/>
      <point x="96" y="0" type="line"/>
      <point x="96" y="650" type="line"/>
      <point x="16" y="650" type="line"/>
      <point x="16" y="715" type="line"/>
      <point x="96" y="715" type="line"/>
      <point x="96" y="753" type="line"/>
      <point x="179" y="753" type="line"/>
      <point x="179" y="715" type="line"/>
      <point x="350" y="715" type="line"/>
      <point x="350" y="650" type="line"/>
      <point x="179" y="650" type="line"/>
      <point x="179" y="546" type="line"/>
      <point x="292" y="595"/>
      <point x="355" y="595" type="qcurve" smooth="yes"/>
      <point x="441" y="595"/>
      <point x="508" y="494"/>
      <point x="508" y="387" type="qcurve" smooth="yes"/>
      <point x="508" y="0" type="line"/>
      <point x="424" y="0" type="line"/>
      <point x="424" y="358" type="line" smooth="yes"/>
      <point x="424" y="467"/>
    </contour>
  </outline>
</glyph>
<glyph name="Itilde" format="1">
  <advance width="295"/>
  <unicode hex="0128"/>
  <outline>
    <contour>
      <point x="0" y="756" type="line"/>
      <point x="0" y="857"/>
      <point x="68" y="857" type="qcurve" smooth="yes"/>
      <point x="99" y="857"/>
      <point x="210" y="812"/>
      <point x="216" y="812" type="qcurve" smooth="yes"/>
      <point x="229" y="812"/>
      <point x="243" y="854" type="qcurve"/>
      <point x="296" y="847" type="line"/>
      <point x="296" y="793"/>
      <point x="260" y="746"/>
      <point x="199" y="746"/>
      <point x="85" y="792"/>
      <point x="79" y="792" type="qcurve" smooth="yes"/>
      <point x="68" y="792"/>
      <point x="52" y="750" type="qcurve"/>
    </contour>
    <contour>
      <point x="185" y="388" type="line"/>
      <point x="190" y="0" type="line"/>
      <point x="105" y="-1" type="line"/>
      <point x="109" y="318" type="line"/>
      <point x="105" y="695" type="line"/>
      <point x="190" y="695" type="line"/>
    </contour>
  </outline>
</glyph>
<glyph name="itilde" format="1">
  <advance width="295"/>
  <unicode hex="0129"/>
  <outline>
    <contour>
      <point x="0" y="676" type="line"/>
      <point x="0" y="776"/>
      <point x="58" y="776" type="qcurve" smooth="yes"/>
      <point x="84" y="776"/>
      <point x="214" y="728"/>
      <point x="221" y="728" type="qcurve" smooth="yes"/>
      <point x="229" y="728"/>
      <point x="243" y="773" type="qcurve"/>
      <point x="295" y="766" type="line"/>
      <point x="295" y="712"/>
      <point x="265" y="666"/>
      <point x="212" y="666"/>
      <point x="81" y="716"/>
      <point x="75" y="716" type="qcurve" smooth="yes"/>
      <point x="66" y="716"/>
      <point x="52" y="670" type="qcurve"/>
    </contour>
    <contour>
      <point x="106" y="0" type="line"/>
      <point x="106" y="582" type="line"/>
      <point x="189" y="582" type="line"/>
      <point x="189" y="0" type="line"/>
    </contour>
  </outline>
</glyph>
<glyph name="IJ" format="1">
  <advance width="579"/>
  <unicode hex="0132"/>
  <outline>
    <contour>
      <point x="185" y="388" type="line"/>
      <point x="190" y="0" type="line"/>
      <point x="105" y="0" type="line"/>
      <point x="109" y="318" type="line"/>
      <point x="105" y="695" type="line"/>
      <point x="190" y="695" type="line"/>
    </contour>
    <contour>
      <point x="483" y="236" type="line" smooth="yes"/>
      <point x="483" y="-13"/>
      <point x="319" y="-13" type="qcurve" smooth="yes"/>
      <point x="299" y="-13"/>
      <point x="256" y="-6" type="qcurve"/>
      <point x="265" y="66" type="line"/>
      <point x="313" y="60"/>
      <point x="358" y="60"/>
      <point x="370" y="69" type="qcurve" smooth="yes"/>
      <point x="399" y="90"/>
      <point x="399" y="223" type="qcurve" smooth="yes"/>
      <point x="399" y="695" type="line"/>
      <point x="483" y="695" type="line"/>
    </contour>
  </outline>
</glyph>
<glyph name="ij" format="1">
  <advance width="569"/>
  <unicode hex="0133"/>
  <outline>
    <contour>
      <point x="189" y="0" type="line"/>
      <point x="106" y="0" type="line"/>
      <point x="106" y="582" type="line"/>
      <point x="189" y="582" type="line"/>
    </contour>
    <contour>
      <point x="199" y="668" type="line"/>
      <point x="97" y="668" type="line"/>
      <point x="97" y="753" type="line"/>
      <point x="199" y="753" type="line"/>
    </contour>
    <contour>
      <point x="463" y="582" type="line"/>
      <point x="463" y="55" type="line" smooth="yes"/>
      <point x="463" y="-178"/>
      <point x="305" y="-178" type="qcurve"/>
      <point x="245" y="-173" type="line"/>
      <point x="254" y="-99" type="line"/>
      <point x="282" y="-103"/>
      <point x="344" y="-103"/>
      <point x="356" y="-94" type="qcurve" smooth="yes"/>
      <point x="380" y="-78"/>
      <point x="380" y="52" type="qcurve" smooth="yes"/>
      <point x="380" y="582" type="line"/>
    </contour>
    <contour>
      <point x="472" y="668" type="line"/>
      <point x="370" y="668" type="line"/>
      <point x="370" y="753" type="line"/>
      <point x="472" y="753" type="line"/>
    </contour>
  </outline>
</glyph>
<glyph name="Jcircumflex" format="1">
  <advance width="316"/>
  <unicode hex="0134"/>
  <outline>
    <contour>
      <point x="318" y="773" type="line"/>
      <point x="292" y="733" type="line"/>
      <point x="182" y="794" type="line"/>
      <point x="175" y="794" type="line"/>
      <point x="65" y="733" type="line"/>
      <point x="39" y="773" type="line"/>
      <point x="153" y="866" type="line"/>
      <point x="204" y="866" type="line"/>
    </contour>
    <contour>
      <point x="220" y="236" type="line" smooth="yes"/>
      <point x="220" y="-13"/>
      <point x="56" y="-13" type="qcurve" smooth="yes"/>
      <point x="36" y="-13"/>
      <point x="-7" y="-6" type="qcurve"/>
      <point x="2" y="66" type="line"/>
      <point x="50" y="60"/>
      <point x="95" y="60"/>
      <point x="108" y="69" type="qcurve" smooth="yes"/>
      <point x="136" y="90"/>
      <point x="136" y="223" type="qcurve" smooth="yes"/>
      <point x="136" y="695" type="line"/>
      <point x="220" y="695" type="line"/>
    </contour>
  </outline>
</glyph>
<glyph name="jcircumflex" format="1">
  <advance width="336"/>
  <unicode hex="0135"/>
  <outline>
    <contour>
      <point x="214" y="55" type="line" smooth="yes"/>
      <point x="214" y="-178"/>
      <point x="56" y="-178" type="qcurve" smooth="yes"/>
      <point x="30" y="-178"/>
      <point x="-4" y="-173" type="qcurve"/>
      <point x="5" y="-99" type="line"/>
      <point x="66" y="-103" type="line" smooth="yes"/>
      <point x="95" y="-103"/>
      <point x="107" y="-94" type="qcurve" smooth="yes"/>
      <point x="131" y="-78"/>
      <point x="131" y="52" type="qcurve" smooth="yes"/>
      <point x="131" y="582" type="line"/>
      <point x="214" y="582" type="line"/>
    </contour>
    <contour>
      <point x="313" y="693" type="line"/>
      <point x="281" y="660" type="line"/>
      <point x="177" y="730" type="line"/>
      <point x="169" y="730" type="line"/>
      <point x="65" y="660" type="line"/>
      <point x="32" y="693" type="line"/>
      <point x="146" y="802" type="line"/>
      <point x="199" y="802" type="line"/>
    </contour>
  </outline>
</glyph>
<glyph name="kcommaaccent" format="1">
  <advance width="522"/>
  <unicode hex="0137"/>
  <outline>
    <contour>
      <point x="233" y="-55" type="qcurve"/>
      <point x="317" y="-55" type="line"/>
      <point x="315" y="-141"/>
      <point x="256" y="-216"/>
      <point x="208" y="-233" type="qcurve"/>
      <point x="186" y="-192" type="line"/>
      <point x="218" y="-176"/>
      <point x="233" y="-126"/>
    </contour>
    <contour>
      <point x="173" y="753" type="line"/>
      <point x="173" y="0" type="line"/>
      <point x="90" y="0" type="line"/>
      <point x="95" y="321" type="line"/>
      <point x="90" y="753" type="line"/>
    </contour>
    <contour>
      <point x="174" y="314" type="line"/>
      <point x="406" y="582" type="line"/>
      <point x="513" y="582" type="line"/>
      <point x="266" y="319" type="line"/>
      <point x="266" y="314" type="line"/>
      <point x="531" y="0" type="line"/>
      <point x="423" y="0" type="line"/>
    </contour>
  </outline>
</glyph>
<glyph name="kgreenlandic" format="1">
  <advance width="533"/>
  <unicode hex="0138"/>
  <outline>
    <contour>
      <point x="185" y="314" type="line"/>
      <point x="417" y="582" type="line"/>
      <point x="524" y="582" type="line"/>
      <point x="277" y="319" type="line"/>
      <point x="277" y="314" type="line"/>
      <point x="542" y="0" type="line"/>
      <point x="434" y="0" type="line"/>
    </contour>
    <contour>
      <point x="101" y="582" type="line"/>
      <point x="158" y="582" type="line"/>
      <point x="184" y="506" type="line"/>
      <point x="184" y="0" type="line"/>
      <point x="101" y="0" type="line"/>
    </contour>
  </outline>
</glyph>
<glyph name="Ldotaccent" format="1">
  <advance width="446"/>
  <unicode hex="013F"/>
  <outline>
    <contour>
      <point x="105" y="0" type="line"/>
      <point x="105" y="695" type="line"/>
      <point x="189" y="695" type="line"/>
      <point x="184" y="75" type="line"/>
      <point x="435" y="77" type="line"/>
      <point x="435" y="0" type="line"/>
    </contour>
    <contour>
      <point x="275" y="333" type="line"/>
      <point x="275" y="420" type="line"/>
      <point x="373" y="420" type="line"/>
      <point x="373" y="333" type="line"/>
    </contour>
  </outline>
</glyph>
<glyph name="ldot" format="1">
  <advance width="367"/>
  <unicode hex="0140"/>
  <outline>
    <contour>
      <point x="244" y="361" type="line"/>
      <point x="244" y="447" type="line"/>
      <point x="342" y="447" type="line"/>
      <point x="342" y="361" type="line"/>
    </contour>
    <contour>
      <point x="172" y="0" type="line"/>
      <point x="90" y="0" type="line"/>
      <point x="90" y="753" type="line"/>
      <point x="172" y="753" type="line"/>
    </contour>
  </outline>
</glyph>
<glyph name="Lslash" format="1">
  <advance width="438"/>
  <unicode hex="0141"/>
  <outline>
    <contour>
      <point x="102" y="695" type="line"/>
      <point x="186" y="695" type="line"/>
      <point x="183" y="389" type="line"/>
      <point x="346" y="502" type="line"/>
      <point x="346" y="419" type="line"/>
      <point x="183" y="306" type="line"/>
      <point x="181" y="75" type="line"/>
      <point x="433" y="77" type="line"/>
      <point x="433" y="0" type="line"/>
      <point x="102" y="0" type="line"/>
      <point x="102" y="251" type="line"/>
      <point x="41" y="209" type="line"/>
      <point x="41" y="291" type="line"/>
      <point x="102" y="333" type="line"/>
    </contour>
  </outline>
</glyph>
<glyph name="Nacute" format="1">
  <advance width="677"/>
  <unicode hex="0143"/>
  <outline>
    <contour>
      <point x="488" y="869" type="line"/>
      <point x="516" y="796" type="line"/>
      <point x="281" y="736" type="line"/>
      <point x="263" y="787" type="line"/>
    </contour>
    <contour>
      <point x="105" y="695" type="line"/>
      <point x="222" y="695" type="line"/>
      <point x="500" y="79" type="line"/>
      <point x="505" y="79" type="line"/>
      <point x="490" y="695" type="line"/>
      <point x="572" y="695" type="line"/>
      <point x="572" y="0" type="line"/>
      <point x="455" y="0" type="line"/>
      <point x="178" y="616" type="line"/>
      <point x="174" y="616" type="line"/>
      <point x="187" y="0" type="line"/>
      <point x="105" y="0" type="line"/>
    </contour>
  </outline>
</glyph>
<glyph name="nacute" format="1">
  <advance width="601"/>
  <unicode hex="0144"/>
  <outline>
    <contour>
      <point x="184" y="0" type="line"/>
      <point x="101" y="0" type="line"/>
      <point x="101" y="582" type="line"/>
      <point x="157" y="582" type="line"/>
      <point x="166" y="525" type="line"/>
      <point x="171" y="525" type="line"/>
      <point x="291" y="595"/>
      <point x="379" y="595" type="qcurve" smooth="yes"/>
      <point x="419" y="595"/>
      <point x="446" y="580" type="qcurve" smooth="yes"/>
      <point x="513" y="541"/>
      <point x="513" y="387" type="qcurve" smooth="yes"/>
      <point x="513" y="0" type="line"/>
      <point x="429" y="0" type="line"/>
      <point x="429" y="358" type="line" smooth="yes"/>
      <point x="429" y="472"/>
      <point x="400" y="516"/>
      <point x="360" y="516" type="qcurve" smooth="yes"/>
      <point x="284" y="516"/>
      <point x="184" y="463" type="qcurve"/>
    </contour>
    <contour>
      <point x="444" y="802" type="line"/>
      <point x="475" y="735" type="line"/>
      <point x="242" y="657" type="line"/>
      <point x="222" y="707" type="line"/>
    </contour>
  </outline>
</glyph>
<glyph name="OE" format="1">
  <advance width="909"/>
  <unicode hex="0152"/>
  <outline>
    <contour>
      <point x="499" y="642" type="line"/>
      <point x="499" y="695" type="line"/>
      <point x="841" y="695" type="line"/>
      <point x="841" y="619" type="line"/>
      <point x="583" y="622" type="line"/>
      <point x="578" y="389" type="line"/>
      <point x="817" y="389" type="line"/>
      <point x="817" y="318" type="line"/>
      <point x="578" y="318" type="line"/>
      <point x="583" y="73" type="line"/>
      <point x="841" y="75" type="line"/>
      <point x="841" y="0" type="line"/>
      <point x="499" y="0" type="line"/>
      <point x="499" y="54" type="line"/>
      <point x="495" y="54" type="line"/>
      <point x="437" y="-13"/>
      <point x="328" y="-13" type="qcurve" smooth="yes"/>
      <point x="271" y="-13"/>
      <point x="185" y="19"/>
      <point x="148" y="58" type="qcurve" smooth="yes"/>
      <point x="72" y="137"/>
      <point x="72" y="349" type="qcurve" smooth="yes"/>
      <point x="72" y="560"/>
      <point x="148" y="638" type="qcurve" smooth="yes"/>
      <point x="185" y="676"/>
      <point x="271" y="708"/>
      <point x="328" y="708" type="qcurve" smooth="yes"/>
      <point x="435" y="708"/>
      <point x="495" y="642" type="qcurve"/>
    </contour>
    <contour>
      <point x="162" y="469"/>
      <point x="162" y="253"/>
      <point x="180" y="141"/>
      <point x="225" y="82"/>
      <point x="281" y="64"/>
      <point x="391" y="64"/>
      <point x="424" y="82" type="qcurve" smooth="yes"/>
      <point x="495" y="121"/>
      <point x="495" y="346" type="qcurve" smooth="yes"/>
      <point x="495" y="573"/>
      <point x="425" y="613" type="qcurve" smooth="yes"/>
      <point x="392" y="632"/>
      <point x="264" y="632"/>
      <point x="198" y="594"/>
    </contour>
  </outline>
</glyph>
<glyph name="oe" format="1">
  <advance width="916"/>
  <unicode hex="0153"/>
  <outline>
    <contour>
      <point x="169" y="595"/>
      <point x="411" y="595"/>
      <point x="463" y="502" type="qcurve"/>
      <point x="467" y="502" type="line"/>
      <point x="522" y="595"/>
      <point x="649" y="595" type="qcurve" smooth="yes"/>
      <point x="749" y="595"/>
      <point x="851" y="467"/>
      <point x="851" y="321" type="qcurve" smooth="yes"/>
      <point x="851" y="259" type="line"/>
      <point x="507" y="259" type="line"/>
      <point x="507" y="225" type="line" smooth="yes"/>
      <point x="510" y="118"/>
      <point x="550" y="84" type="qcurve" smooth="yes"/>
      <point x="577" y="60"/>
      <point x="638" y="60" type="qcurve" smooth="yes"/>
      <point x="671" y="60"/>
      <point x="759" y="79"/>
      <point x="814" y="98" type="qcurve"/>
      <point x="835" y="30" type="line"/>
      <point x="752" y="-13"/>
      <point x="648" y="-13" type="qcurve" smooth="yes"/>
      <point x="526" y="-13"/>
      <point x="470" y="80" type="qcurve"/>
      <point x="466" y="80" type="line"/>
      <point x="415" y="-13"/>
      <point x="169" y="-13"/>
      <point x="70" y="141"/>
      <point x="70" y="440"/>
    </contour>
    <contour>
      <point x="234" y="523"/>
      <point x="181" y="489"/>
      <point x="154" y="390"/>
      <point x="154" y="192"/>
      <point x="180" y="92"/>
      <point x="234" y="58"/>
      <point x="342" y="58"/>
      <point x="395" y="92"/>
      <point x="421" y="192"/>
      <point x="421" y="390"/>
      <point x="395" y="489"/>
      <point x="342" y="523"/>
    </contour>
    <contour>
      <point x="743" y="493" type="qcurve" smooth="yes"/>
      <point x="726" y="523"/>
      <point x="570" y="523"/>
      <point x="507" y="441"/>
      <point x="507" y="325" type="qcurve"/>
      <point x="766" y="330" type="line"/>
      <point x="766" y="455"/>
    </contour>
  </outline>
</glyph>
<glyph name="Racute" format="1">
  <advance width="635"/>
  <unicode hex="0154"/>
  <outline>
    <contour>
      <point x="190" y="0" type="line"/>
      <point x="105" y="0" type="line"/>
      <point x="110" y="329" type="line"/>
      <point x="107" y="695" type="line"/>
      <point x="204" y="708"/>
      <point x="328" y="708" type="qcurve" smooth="yes"/>
      <point x="550" y="708"/>
      <point x="550" y="492" type="qcurve" smooth="yes"/>
      <point x="550" y="321"/>
      <point x="402" y="286" type="qcurve"/>
      <point x="402" y="282" type="line"/>
      <point x="559" y="0" type="line"/>
      <point x="459" y="0" type="line"/>
      <point x="316" y="276" type="line"/>
      <point x="190" y="281" type="line"/>
    </contour>
    <contour>
      <point x="189" y="356" type="line"/>
      <point x="283" y="346"/>
      <point x="409" y="346"/>
      <point x="461" y="413"/>
      <point x="461" y="493" type="qcurve" smooth="yes"/>
      <point x="461" y="607"/>
      <point x="422" y="630" type="qcurve" smooth="yes"/>
      <point x="399" y="644"/>
      <point x="274" y="644"/>
      <point x="191" y="633" type="qcurve"/>
    </contour>
    <contour>
      <point x="431" y="877" type="line"/>
      <point x="462" y="810" type="line"/>
      <point x="229" y="732" type="line"/>
      <point x="209" y="782" type="line"/>
    </contour>
  </outline>
</glyph>
<glyph name="Rcommaaccent" format="1">
  <advance width="635"/>
  <unicode hex="0156"/>
  <outline>
    <contour>
      <point x="279" y="-55" type="qcurve"/>
      <point x="362" y="-55" type="line"/>
      <point x="360" y="-147"/>
      <point x="325" y="-186" type="qcurve" smooth="yes"/>
      <point x="297" y="-217"/>
      <point x="254" y="-233" type="qcurve"/>
      <point x="232" y="-192" type="line"/>
      <point x="264" y="-176"/>
      <point x="279" y="-126"/>
    </contour>
    <contour>
      <point x="190" y="0" type="line"/>
      <point x="105" y="0" type="line"/>
      <point x="110" y="329" type="line"/>
      <point x="107" y="695" type="line"/>
      <point x="204" y="708"/>
      <point x="328" y="708" type="qcurve" smooth="yes"/>
      <point x="550" y="708"/>
      <point x="550" y="492" type="qcurve" smooth="yes"/>
      <point x="550" y="321"/>
      <point x="402" y="286" type="qcurve"/>
      <point x="402" y="282" type="line"/>
      <point x="559" y="0" type="line"/>
      <point x="459" y="0" type="line"/>
      <point x="316" y="276" type="line"/>
      <point x="190" y="281" type="line"/>
    </contour>
    <contour>
      <point x="189" y="356" type="line"/>
      <point x="283" y="346"/>
      <point x="409" y="346"/>
      <point x="461" y="413"/>
      <point x="461" y="493" type="qcurve" smooth="yes"/>
      <point x="461" y="607"/>
      <point x="422" y="630" type="qcurve" smooth="yes"/>
      <point x="399" y="644"/>
      <point x="274" y="644"/>
      <point x="191" y="633" type="qcurve"/>
    </contour>
  </outline>
</glyph>
<glyph name="rcommaaccent" format="1">
  <advance width="395"/>
  <unicode hex="0157"/>
  <outline>
    <contour>
      <point x="368" y="510" type="line"/>
      <point x="345" y="512"/>
      <point x="292" y="512"/>
      <point x="208" y="480"/>
      <point x="184" y="461" type="qcurve"/>
      <point x="184" y="0" type="line"/>
      <point x="101" y="0" type="line"/>
      <point x="101" y="582" type="line"/>
      <point x="154" y="582" type="line"/>
      <point x="165" y="523" type="line"/>
      <point x="171" y="523" type="line"/>
      <point x="212" y="553"/>
      <point x="304" y="595"/>
      <point x="334" y="595" type="qcurve" smooth="yes"/>
      <point x="375" y="590" type="line"/>
    </contour>
    <contour>
      <point x="101" y="-55" type="qcurve"/>
      <point x="184" y="-55" type="line"/>
      <point x="182" y="-147"/>
      <point x="147" y="-186" type="qcurve" smooth="yes"/>
      <point x="119" y="-217"/>
      <point x="76" y="-233" type="qcurve"/>
      <point x="54" y="-192" type="line"/>
      <point x="86" y="-176"/>
      <point x="101" y="-126"/>
    </contour>
  </outline>
</glyph>
<glyph name="Rcaron" format="1">
  <advance width="635"/>
  <unicode hex="0158"/>
  <outline>
    <contour>
      <point x="190" y="0" type="line"/>
      <point x="105" y="0" type="line"/>
      <point x="110" y="329" type="line"/>
      <point x="107" y="695" type="line"/>
      <point x="204" y="708"/>
      <point x="328" y="708" type="qcurve" smooth="yes"/>
      <point x="550" y="708"/>
      <point x="550" y="492" type="qcurve" smooth="yes"/>
      <point x="550" y="321"/>
      <point x="402" y="286" type="qcurve"/>
      <point x="402" y="282" type="line"/>
      <point x="559" y="0" type="line"/>
      <point x="459" y="0" type="line"/>
      <point x="316" y="276" type="line"/>
      <point x="190" y="281" type="line"/>
    </contour>
    <contour>
      <point x="189" y="356" type="line"/>
      <point x="283" y="346"/>
      <point x="409" y="346"/>
      <point x="461" y="413"/>
      <point x="461" y="493" type="qcurve" smooth="yes"/>
      <point x="461" y="607"/>
      <point x="422" y="630" type="qcurve" smooth="yes"/>
      <point x="399" y="644"/>
      <point x="274" y="644"/>
      <point x="191" y="633" type="qcurve"/>
    </contour>
    <contour>
      <point x="437" y="879" type="line"/>
      <point x="465" y="841" type="line"/>
      <point x="344" y="746" type="line"/>
      <point x="293" y="746" type="line"/>
      <point x="172" y="841" type="line"/>
      <point x="200" y="879" type="line"/>
      <point x="315" y="818" type="line"/>
      <point x="322" y="818" type="line"/>
    </contour>
  </outline>
</glyph>
<glyph name="rcaron" format="1">
  <advance width="395"/>
  <unicode hex="0159"/>
  <outline>
    <contour>
      <point x="368" y="510" type="line"/>
      <point x="345" y="512"/>
      <point x="292" y="512"/>
      <point x="208" y="480"/>
      <point x="184" y="461" type="qcurve"/>
      <point x="184" y="0" type="line"/>
      <point x="101" y="0" type="line"/>
      <point x="101" y="582" type="line"/>
      <point x="154" y="582" type="line"/>
      <point x="165" y="523" type="line"/>
      <point x="171" y="523" type="line"/>
      <point x="212" y="553"/>
      <point x="304" y="595"/>
      <point x="334" y="595" type="qcurve" smooth="yes"/>
      <point x="375" y="590" type="line"/>
    </contour>
    <contour>
      <point x="345" y="806" type="line"/>
      <point x="374" y="772" type="line"/>
      <point x="253" y="663" type="line"/>
      <point x="202" y="663" type="line"/>
      <point x="81" y="772" type="line"/>
      <point x="110" y="806" type="line"/>
      <point x="224" y="735" type="line"/>
      <point x="231" y="735" type="line"/>
    </contour>
  </outline>
</glyph>
<glyph name="dotlessj" format="1">
  <advance width="307"/>
  <unicode hex="0237"/>
  <outline>
    <contour>
      <point x="201" y="582" type="line"/>
      <point x="201" y="55" type="line" smooth="yes"/>
      <point x="201" y="-178"/>
      <point x="43" y="-178" type="qcurve"/>
      <point x="-17" y="-173" type="line"/>
      <point x="-8" y="-99" type="line"/>
      <point x="20" y="-103"/>
      <point x="82" y="-103"/>
      <point x="94" y="-94" type="qcurve" smooth="yes"/>
      <point x="118" y="-78"/>
      <point x="118" y="52" type="qcurve" smooth="yes"/>
      <point x="118" y="582" type="line"/>
    </contour>
  </outline>
</glyph>
<glyph name="circumflex" format="1">
  <advance width="501"/>
  <unicode hex="02C6"/>
  <outline>
    <contour>
      <point x="398" y="693" type="line"/>
      <point x="369" y="659" type="line"/>
      <point x="255" y="730" type="line"/>
      <point x="248" y="730" type="line"/>
      <point x="134" y="659" type="line"/>
      <point x="105" y="693" type="line"/>
      <point x="226" y="802" type="line"/>
      <point x="277" y="802" type="line"/>
    </contour>
  </outline>
</glyph>
<glyph name="caron" format="1">
  <advance width="317"/>
  <unicode hex="02C7"/>
  <outline>
    <contour>
      <point x="277" y="806" type="line"/>
      <point x="306" y="772" type="line"/>
      <point x="185" y="663" type="line"/>
      <point x="134" y="663" type="line"/>
      <point x="13" y="772" type="line"/>
      <point x="42" y="806" type="line"/>
      <point x="156" y="735" type="line"/>
      <point x="163" y="735" type="line"/>
    </contour>
  </outline>
</glyph>
<glyph name="ring" format="1">
  <advance width="284"/>
  <unicode hex="02DA"/>
  <outline>
    <contour>
      <point x="178" y="814"/>
      <point x="226" y="775"/>
      <point x="226" y="686"/>
      <point x="178" y="647"/>
      <point x="106" y="647"/>
      <point x="58" y="686"/>
      <point x="58" y="775"/>
      <point x="106" y="814"/>
    </contour>
    <contour>
      <point x="123" y="768"/>
      <point x="106" y="753"/>
      <point x="106" y="708"/>
      <point x="123" y="693"/>
      <point x="161" y="693"/>
      <point x="176" y="708"/>
      <point x="176" y="753"/>
      <point x="161" y="768"/>
    </contour>
  </outline>
</glyph>
<glyph name="tilde" format="1">
  <advance width="536"/>
  <unicode hex="02DC"/>
  <outline>
    <contour>
      <point x="95" y="675" type="line"/>
      <point x="95" y="776"/>
      <point x="163" y="776" type="qcurve" smooth="yes"/>
      <point x="194" y="776"/>
      <point x="355" y="728"/>
      <point x="362" y="728" type="qcurve" smooth="yes"/>
      <point x="374" y="728"/>
      <point x="388" y="773" type="qcurve"/>
      <point x="441" y="766" type="line"/>
      <point x="441" y="712"/>
      <point x="405" y="665"/>
      <point x="344" y="665"/>
      <point x="180" y="715"/>
      <point x="174" y="715" type="qcurve" smooth="yes"/>
      <point x="163" y="715"/>
      <point x="147" y="669" type="qcurve"/>
    </contour>
  </outline>
</glyph>
<glyph name="dotaccentcmb" format="1">
  <advance width="370"/>
  <unicode hex="0307"/>
  <outline>
    <contour>
      <point x="136" y="682" type="line"/>
      <point x="136" y="766" type="line"/>
      <point x="234" y="766" type="line"/>
      <point x="234" y="682" type="line"/>
    </contour>
  </outline>
</glyph>
<glyph name="endash" format="1">
  <advance width="577"/>
  <unicode hex="2013"/>
  <outline>
    <contour>
      <point x="50" y="292" type="line"/>
      <point x="50" y="363" type="line"/>
      <point x="527" y="363" type="line"/>
      <point x="527" y="292" type="line"/>
    </contour>
  </outline>
</glyph>
<glyph name="quoteleft" format="1">
  <advance width="226"/>
  <unicode hex="2018"/>
  <outline>
    <contour>
      <point x="128" y="728" type="qcurve"/>
      <point x="167" y="696" type="line"/>
      <point x="136" y="656"/>
      <point x="136" y="598" type="qcurve" smooth="yes"/>
      <point x="142" y="481" type="line"/>
      <point x="63" y="481" type="line"/>
      <point x="59" y="514"/>
      <point x="59" y="548" type="qcurve" smooth="yes"/>
      <point x="60" y="666"/>
    </contour>
  </outline>
</glyph>
<glyph name="quoteright" format="1">
  <advance width="226"/>
  <unicode hex="2019"/>
  <outline>
    <contour>
      <point x="98" y="466" type="qcurve"/>
      <point x="59" y="498" type="line"/>
      <point x="91" y="537"/>
      <point x="91" y="596" type="qcurve" smooth="yes"/>
      <point x="84" y="713" type="line"/>
      <point x="163" y="713" type="line"/>
      <point x="167" y="680"/>
      <point x="167" y="646" type="qcurve" smooth="yes"/>
      <point x="166" y="526"/>
    </contour>
  </outline>
</glyph>
<glyph name="quotesinglbase" format="1">
  <advance width="264"/>
  <unicode hex="201A"/>
  <outline>
    <contour>
      <point x="101" y="-114" type="qcurve"/>
      <point x="62" y="-82" type="line"/>
      <point x="93" y="-42"/>
      <point x="93" y="16" type="qcurve" smooth="yes"/>
      <point x="87" y="133" type="line"/>
      <point x="166" y="133" type="line"/>
      <point x="170" y="100"/>
      <point x="170" y="66" type="qcurve" smooth="yes"/>
      <point x="169" y="-52"/>
    </contour>
  </outline>
</glyph>
<glyph name="quotedblleft" format="1">
  <advance width="366"/>
  <unicode hex="201C"/>
  <outline>
    <contour>
      <point x="128" y="728" type="qcurve"/>
      <point x="167" y="696" type="line"/>
      <point x="136" y="656"/>
      <point x="136" y="598" type="qcurve" smooth="yes"/>
      <point x="142" y="481" type="line"/>
      <point x="63" y="481" type="line"/>
      <point x="59" y="514"/>
      <point x="59" y="548" type="qcurve" smooth="yes"/>
      <point x="60" y="666"/>
    </contour>
    <contour>
      <point x="268" y="728" type="qcurve"/>
      <point x="307" y="696" type="line"/>
      <point x="276" y="656"/>
      <point x="276" y="598" type="qcurve" smooth="yes"/>
      <point x="282" y="481" type="line"/>
      <point x="203" y="481" type="line"/>
      <point x="199" y="514"/>
      <point x="199" y="548" type="qcurve" smooth="yes"/>
      <point x="200" y="666"/>
    </contour>
  </outline>
</glyph>
<glyph name="quotedblright" format="1">
  <advance width="366"/>
  <unicode hex="201D"/>
  <outline>
    <contour>
      <point x="238" y="466" type="qcurve"/>
      <point x="199" y="498" type="line"/>
      <point x="230" y="538"/>
      <point x="230" y="596" type="qcurve" smooth="yes"/>
      <point x="224" y="713" type="line"/>
      <point x="303" y="713" type="line"/>
      <point x="307" y="680"/>
      <point x="307" y="646" type="qcurve" smooth="yes"/>
      <point x="306" y="528"/>
    </contour>
    <contour>
      <point x="98" y="466" type="qcurve"/>
      <point x="59" y="498" type="line"/>
      <point x="90" y="538"/>
      <point x="90" y="596" type="qcurve" smooth="yes"/>
      <point x="84" y="713" type="line"/>
      <point x="163" y="713" type="line"/>
      <point x="167" y="680"/>
      <point x="167" y="646" type="qcurve" smooth="yes"/>
      <point x="166" y="528"/>
    </contour>
  </outline>
</glyph>
